<svg width="25" height="24" viewBox="0 0 25 24" fill="none" xmlns="http://www.w3.org/2000/svg">
<path d="M1.54 12C1.54 5.94696 6.44696 1.04 12.5 1.04C18.553 1.04 23.46 5.94696 23.46 12V22.96H12.5C6.44696 22.96 1.54 18.053 1.54 12Z" fill="white" stroke="black" stroke-width="2.08"/>
<path d="M9.61051 17.322C6.89755 17.322 5.20411 15.1966 5.20411 12.6737C5.20411 10.1508 6.89755 8.02536 9.61051 8.02536C11.8051 8.02536 13.2912 9.4596 13.6886 11.3258H11.4768C11.183 10.4964 10.4918 9.99528 9.61051 9.99528C8.24539 9.99528 7.34683 11.0666 7.34683 12.6737C7.34683 14.2807 8.24539 15.3521 9.61051 15.3521C10.5264 15.3521 11.2348 14.8164 11.5113 13.9351H13.7059C13.343 15.8532 11.8396 17.322 9.61051 17.322ZM14.5797 17.0801V8.26728H16.6533V9.21768C17.1372 8.57832 17.8975 8.1636 19.038 8.1636H19.5736V10.2026H19.0207C18.2431 10.2026 17.7592 10.3754 17.3964 10.7038C16.9816 11.0494 16.7397 11.6196 16.7397 12.4836V17.0801H14.5797Z" fill="black"/>
</svg>
