<svg width="100" height="100" viewBox="0 0 100 100" fill="none" xmlns="http://www.w3.org/2000/svg">
<g clip-path="url(#clip0_29_2962)">
<mask id="mask0_29_2962" style="mask-type:luminance" maskUnits="userSpaceOnUse" x="0" y="0" width="100" height="100">
<path d="M100 0H0V100H100V0Z" fill="white"/>
</mask>
<g mask="url(#mask0_29_2962)">
<path d="M49.9978 100C77.6115 100 100 77.616 100 50.011C100 22.3927 77.6115 0 49.9978 0C22.3795 0 0 22.3927 0 50.011C0 77.616 22.3795 100 49.9978 100Z" fill="black"/>
<path d="M33.8447 27.6714C24.4123 27.3054 21.859 40.7067 21.2769 42.9953C21.2461 43.1585 21.1667 43.2158 21.1667 43.2158C18.2562 42.8189 16.6467 42.2236 16.6467 42.2236L15.9852 44.0978C17.9476 45.0282 20.8359 45.3104 20.8359 45.3104C20.2715 48.9132 17.4184 55.6731 17.4184 55.6731C17.4184 55.6731 14.8872 54.9016 11.6857 54.9016C7.52288 54.9016 6.05888 56.8596 5.95303 58.0986C5.67963 61.3091 9.74983 62.8391 12.5677 62.8391C18.0666 62.8391 20.9462 59.8626 20.9462 59.8626C20.9462 59.8626 36.3406 65.7056 52.4759 65.7056C73.5944 65.7056 91.3919 60.0831 91.3919 60.0831L90.8409 58.0986C90.8409 58.0986 77.9424 62.5921 53.2479 62.2881C36.2128 62.0806 23.1511 57.1066 23.1511 57.1066C23.1511 57.1066 23.645 56.2246 23.9228 55.6731C25.6293 52.1941 27.6711 45.2002 27.6711 45.2002C27.6711 45.2002 39.3569 41.9282 39.3569 32.6324C39.3569 29.6911 36.5479 27.7905 33.8447 27.6714ZM34.2857 30.3173C36.0981 30.3173 36.7508 31.7504 36.6008 33.0734C35.7189 40.8389 28.0018 42.6646 28.0018 42.6646C28.0018 42.6646 29.8671 30.3173 34.2857 30.3173ZM53.0274 36.7114C51.0649 36.7114 49.7198 37.5184 49.7198 39.3573C49.7198 41.2182 51.2899 41.6724 53.0274 41.6724C54.7689 41.6724 56.4449 40.9227 56.4449 39.0265C56.4449 37.1259 54.4469 36.7114 53.0274 36.7114ZM79.1549 43.4363C73.5194 43.4363 70.4679 48.2958 70.3354 51.1531C70.3089 51.7751 70.2254 51.8146 70.2254 51.8146C70.0929 51.9646 68.1524 54.2401 65.7054 54.2401C63.7474 54.2401 63.3899 52.6436 63.3899 51.5941C63.3899 50.4566 64.3604 45.9719 67.0284 45.9719C68.4789 45.9719 69.3434 47.1846 69.3434 47.1846L70.1149 44.649C70.1149 44.649 68.8979 43.6656 66.3669 43.6568C60.9164 43.6524 57.2384 47.6873 57.1064 51.3736C57.0799 51.9251 56.9869 52.1101 56.9959 52.1456C56.8154 52.3661 55.5409 53.9096 53.7989 53.9096C52.6084 53.9096 52.5864 52.9966 52.5864 52.5866C52.5864 52.0266 54.9014 43.9875 54.9014 43.9875L48.7276 44.0978L46.633 51.9251C46.633 51.9251 43.1934 54.3461 38.475 54.6811C36.0408 54.8486 35.1676 53.3451 35.1676 52.4761C35.1677 52.1146 35.1676 52.1456 35.1676 52.1456C35.1721 52.1456 36.1907 52.2556 36.9316 52.2556C37.5136 52.2556 44.7589 51.6956 44.7589 47.2948C44.7589 44.7769 42.2056 43.8773 39.0262 43.8773C33.148 43.8773 28.994 47.4889 28.994 51.8146C28.994 55.7616 32.363 57.4371 36.7111 57.4371C41.6456 57.4371 46.5228 54.4606 46.5228 54.4606C46.5228 54.4606 46.8182 57.4371 50.7119 57.4371C54.7294 57.4371 57.8779 54.4606 57.8779 54.4606C57.8779 54.4606 59.6154 57.3271 63.6104 57.3271C67.6939 57.3271 70.7764 54.0196 70.7764 54.0196C70.7764 54.0196 71.9144 57.1066 75.9579 57.1066C79.1199 57.1066 80.8084 55.1221 80.8084 55.1221C80.8084 55.1221 81.6904 57.1066 84.4469 57.1066C87.8114 57.1066 90.2894 54.7916 90.2894 54.7916L89.7384 52.8071C89.7384 52.8071 88.4594 53.7991 87.5334 53.7991C86.8324 53.7991 86.4309 53.2301 86.4309 52.5866C86.4309 51.1401 88.7464 43.9875 88.7464 43.9875L83.1239 44.0978L82.9034 44.9797C82.9034 44.9797 82.0654 43.4363 79.1549 43.4363ZM39.2467 45.6412C40.0757 45.6897 40.7063 46.2497 40.6798 46.8539C40.5431 50.7696 35.7189 50.1611 35.7189 50.1611C35.7189 50.1611 36.4288 45.4692 39.2467 45.6412ZM80.2574 45.7514C81.4174 45.7514 82.0214 46.6731 82.0214 47.4051C82.0214 47.555 81.3644 54.2401 78.0524 54.2401C76.5354 54.2401 76.5089 52.5161 76.5089 52.0351C76.5089 50.7611 77.5099 45.7514 80.2574 45.7514ZM10.5833 57.3271C10.8712 57.2981 11.1047 57.3096 11.355 57.3271C13.7671 57.4591 15.875 58.3191 15.875 58.3191C15.875 58.3191 13.3923 60.2416 11.355 60.3036C9.79833 60.3521 8.81938 59.3376 8.81938 58.7601C8.81938 57.8011 9.71943 57.4141 10.5833 57.3271Z" fill="white"/>
</g>
</g>
<defs>
<clipPath id="clip0_29_2962">
<rect width="100" height="100" fill="white"/>
</clipPath>
</defs>
</svg>
