<?xml version="1.0" encoding="UTF-8"?>
<svg width="18px" height="16px" viewBox="0 0 18 16" version="1.1" xmlns="http://www.w3.org/2000/svg"
  xmlns:xlink="http://www.w3.org/1999/xlink">
  <g stroke="none" stroke-width="1" fill="none" fill-rule="evenodd">
    <path
      d="M1.43999973,0 C2.17848321,0 2.7871298,0.537098895 2.87031154,1.22904772 L2.87999947,1.39130305 L2.87999947,4.17390916 C2.87999947,5.64084594 4.05486327,6.84265814 5.5450612,6.94888294 L5.75999894,6.95651526 L13.0823976,6.95651526 L9.78176443,3.76640593 C9.26266762,3.26486349 9.2227371,2.47567319 9.66197286,1.92987724 L9.78176443,1.79880628 C10.3008612,1.29726385 11.1176738,1.25868366 11.682573,1.68306572 L11.8182316,1.79880628 L17.5782305,7.36401849 C18.0758895,7.84484806 18.1358531,8.59471548 17.7437251,9.14028696 L17.6362662,9.27214975 L11.8762672,15.5330135 C11.3479054,16.1073194 10.4377213,16.1590491 9.84331425,15.6485549 C9.2946308,15.1773295 9.20680429,14.3917666 9.61211007,13.8219919 L9.72372878,13.6843506 L13.3516775,9.73912136 L5.75999894,9.73912136 C2.67523814,9.73912136 0.15684639,7.39621089 0.00704924111,4.45166937 L0,4.17390916 L0,1.39130305 C0,0.622907594 0.644709841,0 1.43999973,0 Z"
      fill="#CCCCCC" fill-rule="nonzero"></path>
  </g>
</svg>