<svg width="86" height="156" viewBox="0 0 86 156" xmlns="http://www.w3.org/2000/svg">
  <g fill="none" fill-rule="evenodd">
    <path
      d="M77.84 156c-4.16 0-7.533-3.366-7.533-7.518 0-27.716-10.744-49.25-31.93-64.003-14.174-9.869-24.06-21.124-30.225-34.41C2.59 38.082 0 24.561 0 7.518 0 3.365 3.373 0 7.533 0s7.533 3.366 7.533 7.518c0 30.113 9.25 48.837 31.93 64.63 31.718 22.085 38.376 53.7 38.376 76.334 0 4.152-3.373 7.518-7.533 7.518"
      fill="#5548ED" />
    <path
      d="M46.996 72.148c-.197-.138-.385-.277-.58-.415a97.766 97.766 0 01-7.97 6.152 98.424 98.424 0 00-4.512 3.338c1.435 1.1 2.908 2.188 4.442 3.256a81.114 81.114 0 017.93 6.283c.255-.181.503-.367.76-.546 4.085-2.844 7.801-5.807 11.188-8.896a94.51 94.51 0 00-11.258-9.172"
      fill="#000" opacity=".3" />
    <path
      d="M7.603 156c-4.16 0-7.533-3.366-7.533-7.518 0-22.633 6.658-54.25 38.377-76.334 22.68-15.793 31.93-34.517 31.93-64.63C70.377 3.366 73.75 0 77.91 0s7.533 3.366 7.533 7.518c0 17.044-2.59 30.565-8.152 42.55-6.164 13.287-16.051 24.542-30.224 34.41-21.188 14.754-31.93 36.288-31.93 64.004 0 4.152-3.374 7.518-7.534 7.518"
      fill="#FF5000" />
    <path
      d="M73.41 124.46c3.121 0 5.65 2.524 5.65 5.639a5.644 5.644 0 01-5.65 5.638h-3.924a81.99 81.99 0 00-2.288-11.277zm-55.164 0a81.898 81.898 0 00-2.289 11.277h-3.986a5.644 5.644 0 01-5.65-5.638 5.644 5.644 0 015.65-5.639zm44.724-23.18c3.12 0 5.65 2.524 5.65 5.638a5.644 5.644 0 01-5.65 5.639h-.236a68.584 68.584 0 00-6.814-11.277zm-33.447 0a68.584 68.584 0 00-6.815 11.277h-.295a5.644 5.644 0 01-5.65-5.639 5.644 5.644 0 015.65-5.638zm-.985-46.362c3.016 3.994 6.574 7.727 10.725 11.277h-16.85a5.644 5.644 0 01-5.65-5.638 5.644 5.644 0 015.65-5.639zm34.432 0c3.12 0 5.65 2.524 5.65 5.639a5.644 5.644 0 01-5.65 5.638H46.18c4.15-3.55 7.709-7.283 10.725-11.277zm10.44-23.18c3.121 0 5.65 2.524 5.65 5.638a5.644 5.644 0 01-5.65 5.638h-9.47c1.579-3.54 2.846-7.288 3.828-11.277zm-55.735 0c.98 3.988 2.248 7.737 3.828 11.276H11.97a5.644 5.644 0 01-5.65-5.638 5.644 5.644 0 015.65-5.639z"
      fill="#000" opacity=".3" />
    <path
      d="M73.41 37.277H11.972a5.644 5.644 0 01-5.65-5.638A5.644 5.644 0 0111.972 26h61.44c3.12 0 5.65 2.524 5.65 5.639a5.644 5.644 0 01-5.65 5.638M62.97 60.458H22.413a5.644 5.644 0 01-5.65-5.639 5.644 5.644 0 015.65-5.638H62.97c3.12 0 5.65 2.524 5.65 5.638a5.644 5.644 0 01-5.65 5.639M62.97 106.82H22.413a5.644 5.644 0 01-5.65-5.64 5.644 5.644 0 015.65-5.638H62.97c3.12 0 5.65 2.524 5.65 5.639a5.644 5.644 0 01-5.65 5.638M73.41 130H11.972a5.644 5.644 0 01-5.65-5.639 5.644 5.644 0 015.65-5.638h61.44c3.12 0 5.65 2.524 5.65 5.638A5.644 5.644 0 0173.41 130"
      fill="#FFD500" />
    <path
      d="M71.248 30.484H14.124a1.255 1.255 0 01-1.255-1.253c0-.691.562-1.253 1.255-1.253h57.124c.693 0 1.256.562 1.256 1.253 0 .692-.563 1.253-1.256 1.253M63.142 53.665H22.23a1.255 1.255 0 01-1.255-1.253c0-.692.562-1.253 1.255-1.253h40.912c.693 0 1.256.561 1.256 1.253 0 .692-.563 1.253-1.256 1.253M63.142 100.027H22.23a1.255 1.255 0 01-1.255-1.254c0-.691.562-1.253 1.255-1.253h40.912c.693 0 1.256.562 1.256 1.253 0 .692-.563 1.254-1.256 1.254M71.248 123.207H14.124a1.255 1.255 0 01-1.255-1.253c0-.691.562-1.253 1.255-1.253h57.124c.693 0 1.256.562 1.256 1.253 0 .692-.563 1.253-1.256 1.253"
      fill="#FFF" />
  </g>
</svg>