<svg data-name="Layer 1" xmlns="http://www.w3.org/2000/svg" viewBox="0 0 16 16"><defs><clipPath id="a"><path fill="none" d="M0 0h16v16H0z"/></clipPath><clipPath id="b"><path d="M2 0h12a2 2 0 012 2v12a2 2 0 01-2 2H2a2 2 0 01-2-2V2a2 2 0 012-2z" fill="none" clip-path="url(#a)" clip-rule="evenodd"/></clipPath><clipPath id="c"><path d="M9.38 3.33l3.95 9.43H2.67l4-9.43zM8 6.78l-1.72 4.06h1.81l.79 1.92h1.63L8 6.78z" fill="none" clip-path="url(#a)" clip-rule="evenodd"/></clipPath></defs><g clip-path="url(#b)"><path fill="#ea1f21" d="M-5-5h26v26H-5z"/></g><g clip-path="url(#c)"><path fill="#fff" d="M-2.33-1.67h20.67v19.43H-2.33z"/></g></svg>