<svg xmlns="http://www.w3.org/2000/svg" xmlns:xlink="http://www.w3.org/1999/xlink" width="14" height="15"
  viewBox="0 0 14 15">
  <defs>
    <clipPath id="a">
      <rect width="14" height="15" transform="translate(0 -14)" fill="none" />
    </clipPath>
    <clipPath id="b">
      <path d="M0,0H14V-14H0Z" fill="none" />
    </clipPath>
    <clipPath id="c">
      <rect width="15" height="15" transform="translate(-1 -14)" fill="none" />
    </clipPath>
    <clipPath id="d">
      <path
        d="M11.46,0H2.54A2.54,2.54,0,0,1,0-2.54V-11.46A2.54,2.54,0,0,1,2.54-14H11.46A2.54,2.54,0,0,1,14-11.46V-2.54A2.54,2.54,0,0,1,11.46,0"
        fill="none" clip-rule="evenodd" />
    </clipPath>
    <clipPath id="f">
      <path
        d="M6.937-9.858v1.184a1.6,1.6,0,0,1-.179-.057,3.173,3.173,0,0,0-1.6-.227,1.148,1.148,0,0,0-.379.108.431.431,0,0,0-.095.78,6.951,6.951,0,0,0,.84.445,10.025,10.025,0,0,1,.995.5A1.631,1.631,0,0,1,7.238-5.3,1.657,1.657,0,0,1,6.229-4.13a3.261,3.261,0,0,1-1.739.211,8.393,8.393,0,0,1-.977-.207,1.708,1.708,0,0,1-.269-.116v-1.3c.092.045.159.075.224.11a3.043,3.043,0,0,0,1.822.366,1.141,1.141,0,0,0,.418-.126.468.468,0,0,0,.1-.768,2,2,0,0,0-.486-.311c-.243-.12-.5-.205-.747-.326A6.913,6.913,0,0,1,3.868-7,1.678,1.678,0,0,1,4.044-9.78a2.686,2.686,0,0,1,.855-.283A4.28,4.28,0,0,1,6.544-10a3.85,3.85,0,0,1,.393.137"
        fill="none" clip-rule="evenodd" />
    </clipPath>
    <clipPath id="h">
      <path
        d="M8.212-7.492h-.6V-8.554l.6-.028.114-1.179L9.55-9.916v1.341h.876V-7.49H9.538c-.006.088-.015.155-.015.222q0,.86,0,1.72a1.514,1.514,0,0,0,.01.209.379.379,0,0,0,.413.382c.138.008.278,0,.439,0v.917a2.049,2.049,0,0,1-1.646-.042.937.937,0,0,1-.476-.683,2.8,2.8,0,0,1-.048-.507c-.005-.643,0-1.286,0-1.929Z"
        fill="none" clip-rule="evenodd" />
    </clipPath>
  </defs>
  <g transform="translate(0 14)" style="isolation:isolate">
    <g clip-path="url(#a)">
      <g clip-path="url(#b)">
        <g style="isolation:isolate">
          <g clip-path="url(#c)">
            <g clip-path="url(#d)">
              <g clip-path="url(#b)">
                <path d="M-5-19H19V5H-5Z" fill="#0b131f" />
              </g>
            </g>
          </g>
        </g>
      </g>
      <g clip-path="url(#f)">
        <g clip-path="url(#b)">
          <path d="M-1.79-15.113H12.29V1.113H-1.79Z" fill="#fff" />
        </g>
      </g>
      <g clip-path="url(#h)">
        <g clip-path="url(#b)">
          <path d="M2.611-14.916H15.426V1.113H2.611Z" fill="#fff" />
        </g>
      </g>
    </g>
  </g>
</svg>