<svg id="Layer_1" data-name="Layer 1" xmlns="http://www.w3.org/2000/svg" xmlns:xlink="http://www.w3.org/1999/xlink"
  viewBox="0 0 16 16">
  <defs>
    <clipPath id="clip-path">
      <rect width="16" height="16" fill="none" />
    </clipPath>
    <clipPath id="clip-path-3">
      <path d="M2,0H14a2,2,0,0,1,2,2V14a2,2,0,0,1-2,2H2a2,2,0,0,1-2-2V2A2,2,0,0,1,2,0Z" fill="none"
        clip-path="url(#clip-path)" clip-rule="evenodd" />
    </clipPath>
    <clipPath id="clip-path-4">
      <path d="M9.38,3.33l3.95,9.43H2.67l4-9.43ZM8,6.78,6.28,10.84H8.09l.79,1.92h1.63L8,6.78Z" fill="none"
        clip-path="url(#clip-path)" clip-rule="evenodd" />
    </clipPath>
  </defs>
  <g clip-path="url(#clip-path-3)">
    <rect x="-5" y="-5" width="26" height="26" fill="#ea1f21" />
  </g>
  <g clip-path="url(#clip-path-4)">
    <rect x="-2.33" y="-1.67" width="20.67" height="19.43" fill="#fff" />
  </g>
</svg>