<svg xmlns="http://www.w3.org/2000/svg" xmlns:xlink="http://www.w3.org/1999/xlink" viewBox="0 0 25 25">
  <defs>
    <clipPath id="a">
      <rect width="25" height="25" fill="none" />
    </clipPath>
    <clipPath id="c">
      <path
        d="M20.64,25H4.36A4.36,4.36,0,0,1,0,20.64V4.36A4.36,4.36,0,0,1,4.36,0H20.64A4.36,4.36,0,0,1,25,4.36V20.64A4.36,4.36,0,0,1,20.64,25"
        fill="none" clip-path="url(#a)" clip-rule="evenodd" />
    </clipPath>
    <clipPath id="d">
      <path
        d="M17.88,9.54a5.32,5.32,0,0,1,1.05.15,2.78,2.78,0,0,1,.51.17.11.11,0,0,1,.08.09.39.39,0,0,1,0,.15v1.58h0c0,.14-.08.19-.21.13a4.12,4.12,0,0,0-.69-.27,5.74,5.74,0,0,0-1.65-.2,1.71,1.71,0,0,0-.51.1.46.46,0,0,0-.2.76,1.36,1.36,0,0,0,.35.24,9.07,9.07,0,0,0,1,.44,5.85,5.85,0,0,1,1.43.73,2.1,2.1,0,0,1,.69.76,2.19,2.19,0,0,1,.24,1.1,2.3,2.3,0,0,1-.24,1,2.43,2.43,0,0,1-.71.85,3.52,3.52,0,0,1-1.44.59,5.67,5.67,0,0,1-1.54.07,6.81,6.81,0,0,1-1.19-.16,5.25,5.25,0,0,1-.79-.27.22.22,0,0,1-.14-.22V15.6h0c0-.12.06-.16.16-.1a5,5,0,0,0,1.88.6,3.56,3.56,0,0,0,1,0,1.59,1.59,0,0,0,.44-.12.46.46,0,0,0,.07-.81,3.36,3.36,0,0,0-.91-.45,10,10,0,0,1-1-.42,5,5,0,0,1-.9-.6A2.16,2.16,0,0,1,14,12.31a2.28,2.28,0,0,1,.21-1.26,2.22,2.22,0,0,1,.46-.64,3,3,0,0,1,1.63-.81,6.67,6.67,0,0,1,1.61-.06ZM8.48,7a6,6,0,0,1,2,.31,3.31,3.31,0,0,1,2.4,2.9,4.54,4.54,0,0,1-.12,1.56,3.19,3.19,0,0,1-1.14,1.7,3.92,3.92,0,0,1-1.5.71,7.5,7.5,0,0,1-1.26.18c-.48,0-1,0-1.45,0-.1,0-.11,0-.12.06V17.6h0c0,.14,0,.18-.18.18H5.2c-.18,0-.2,0-.2-.19V7.16C5,7.08,5,7,5.13,7L8.48,7ZM7.34,9c-.06,0-.08,0-.08.08v3.17c0,.06,0,.13,0,.17s.1,0,.15,0h0A7.24,7.24,0,0,0,9,12.37,2.37,2.37,0,0,0,10,12a1.38,1.38,0,0,0,.5-.65,2,2,0,0,0,.09-.9,1.42,1.42,0,0,0-.7-1.11A2.49,2.49,0,0,0,8.63,9,11.11,11.11,0,0,0,7.34,9Z"
        fill="none" clip-path="url(#a)" clip-rule="evenodd" />
    </clipPath>
  </defs>
  <g clip-path="url(#c)">
    <rect x="-5" y="-5" width="35" height="35" fill="#001d32" />
  </g>
  <g clip-path="url(#d)">
    <rect y="2" width="25" height="21" fill="#52a6f7" />
  </g>
</svg>