<svg xmlns="http://www.w3.org/2000/svg" xmlns:xlink="http://www.w3.org/1999/xlink" viewBox="0 0 14 14"><defs><mask id="a" x="0" y="1.28" width="12.18" height="10.66" maskUnits="userSpaceOnUse"><polygon points="0 1.28 12.18 1.28 12.18 11.94 0 11.94 0 1.28" fill="#fff" fill-rule="evenodd"/></mask></defs><path d="M6.36,10.6a2.82,2.82,0,0,1-1.15-.24.52.52,0,0,1-.28-.67.53.53,0,0,1,.68-.27A1.93,1.93,0,1,0,4.43,7.64a.52.52,0,1,1-1,0,3,3,0,1,1,3,3" fill="#09a8eb" fill-rule="evenodd"/><g mask="url(#a)"><path d="M1.9,11.94a.51.51,0,0,1-.39-.18A6.36,6.36,0,1,1,12.14,5a.52.52,0,0,1-.94.43,5.33,5.33,0,1,0-8.9,5.67.53.53,0,0,1-.06.73.54.54,0,0,1-.34.12" fill="#09a8eb" fill-rule="evenodd"/></g><path d="M6.36,14A6.36,6.36,0,0,1,3,13.05a.51.51,0,0,1-.17-.71.52.52,0,0,1,.71-.17,5.24,5.24,0,0,0,2.81.8,5.33,5.33,0,0,0,5.33-5.33c0-.19,0-.39,0-.59a.51.51,0,0,1,.45-.56.52.52,0,0,1,.57.45c0,.23,0,.47,0,.7A6.37,6.37,0,0,1,6.36,14" fill="#0983c8" fill-rule="evenodd"/><path d="M8.09,11.81a.51.51,0,0,1-.47-.29.51.51,0,0,1,.25-.68A3.57,3.57,0,0,0,9.49,9.27a.51.51,0,1,1,.91.48,4.57,4.57,0,0,1-2.09,2,.44.44,0,0,1-.22.05" fill="#09ccfe" fill-rule="evenodd"/><path d="M10.4,8.16a.51.51,0,0,1-.51-.52,3.54,3.54,0,0,0-5.35-3,.51.51,0,0,1-.7-.17A.52.52,0,0,1,4,3.73a4.62,4.62,0,0,1,2.35-.65,4.57,4.57,0,0,1,4.56,4.56.52.52,0,0,1-.52.52" fill="#0983c8" fill-rule="evenodd"/><path d="M6.36,12.2A4.56,4.56,0,0,1,1.8,7.64a4.49,4.49,0,0,1,.74-2.49.51.51,0,1,1,.86.56,3.49,3.49,0,0,0-.57,1.93,3.53,3.53,0,0,0,3.53,3.53.52.52,0,0,1,0,1" fill="#09ccfe" fill-rule="evenodd"/><path d="M12.46,1a.51.51,0,0,0-.51.51.52.52,0,0,0,.51.52A.53.53,0,0,0,13,1.54.52.52,0,0,0,12.46,1m0,2.05A1.54,1.54,0,1,1,14,1.54a1.54,1.54,0,0,1-1.54,1.54" fill="#09ccfe" fill-rule="evenodd"/></svg>