<svg xmlns="http://www.w3.org/2000/svg" width="17.766" height="17.767" viewBox="0 0 17.766 17.767">
  <g id="_seal-white" transform="translate(0.883 0.883)" style="fill:#383838 ;">
    <g id="Fill_2" data-name="Fill 2" transform="translate(0.667 0.667)" fill="#fff" stroke-miterlimit="10" style="fill:#383838 ;">
      <path d="M5.841,1.766,3.665.982,3.259,3.259.982,3.665l.785,2.175L0,7.333,1.766,8.825.982,11l2.277.408.406,2.277L5.841,12.9l1.492,1.766L8.825,12.9,11,13.685l.406-2.277L13.684,11,12.9,8.825l1.767-1.492L12.9,5.841l.785-2.175-2.277-.407L11,.982l-2.175.784L7.333,0Z" stroke="none"/>
      <path d="M 7.332623481750488 -1.9073486328125e-06 L 5.840583801269531 1.766347885131836 L 3.665253639221191 0.9816980361938477 L 3.259103775024414 3.259098052978516 L 0.9817037582397461 3.665247917175293 L 1.766353607177734 5.840578079223633 L 3.814697265625e-06 7.333337783813477 L 1.765643119812012 8.82537841796875 L 0.9817037582397461 11.00070762634277 L 3.258393287658691 11.40827751159668 L 3.664543151855469 13.68496799468994 L 5.840583801269531 12.90102767944336 L 7.332623481750488 14.66737747192383 L 8.824663162231445 12.90102767944336 L 11.00070381164551 13.68496799468994 L 11.40685367584229 11.40827751159668 L 13.68425369262695 11.0014181137085 L 12.89960384368896 8.82537841796875 L 14.66666316986084 7.333337783813477 L 12.89960384368896 5.840578079223633 L 13.68425369262695 3.665957450866699 L 11.40685367584229 3.259098052978516 L 11.00070381164551 0.9824075698852539 L 8.825373649597168 1.766347885131836 L 7.332623481750488 -1.9073486328125e-06 M 7.332443714141846 -1.549461364746094 L 9.140398025512695 0.5898714065551758 L 11.77696323394775 -0.3602924346923828 L 12.26889801025391 2.397274017333984 L 15.02731323242188 2.890068054199219 L 14.0763578414917 5.525599479675293 L 16.21648406982422 7.333517551422119 L 14.07629776000977 9.140613555908203 L 15.02707386016846 11.77735805511475 L 12.26889801025391 12.27010154724121 L 11.7769832611084 15.02754783630371 L 9.139901161193848 14.07751178741455 L 7.332623481750488 16.2170581817627 L 5.525345802307129 14.07751178741455 L 2.888263702392578 15.02754783630371 L 2.396303176879883 12.26984405517578 L -0.3607463836669922 11.77627754211426 L 0.5891571044921875 9.140429496765137 L -1.549277305603027 7.333367824554443 L 0.5897035598754883 5.525694847106934 L -0.3613567352294922 2.88898754119873 L 2.397058486938477 2.397052764892578 L 2.888993263244629 -0.3613624572753906 L 5.52553653717041 0.5896387100219727 L 7.332443714141846 -1.549461364746094 Z" stroke="none" fill="rgba(0,0,0,0.3)"/>
    </g>
    <path id="Fill_4" data-name="Fill 4" d="M1.667,8H0V3.2H1.667V8Zm0-6.4H0V0H1.667V1.6Z" transform="translate(7.167 4)" fill="#383838"/>
  </g>
</svg>
