<svg width="16" height="16" viewBox="0 0 16 16" fill="none" xmlns="http://www.w3.org/2000/svg">
	<path fill-rule="evenodd" clip-rule="evenodd" d="M0.243895 12.6936C-0.515302 14.213 0.589863 16 2.28869 16H13.7113C15.4101 16 16.5153 14.213 15.7561 12.6937L10.0448 1.26392C9.20271 -0.421305 6.79729 -0.421308 5.9552 1.26392L0.243895 12.6936ZM9.02843 10.4798C9.02843 10.6229 8.91361 10.739 8.77198 10.739H7.23326C7.09162 10.739 6.97681 10.6229 6.97681 10.4798V4.25919C6.97681 4.11604 7.09162 4 7.23326 4H8.77198C8.91361 4 9.02843 4.11604 9.02843 4.25919V10.4798ZM9.02843 13.5901C9.02843 13.7332 8.91361 13.8493 8.77198 13.8493H7.23326C7.09162 13.8493 6.97681 13.7332 6.97681 13.5901V12.0349C6.97681 11.8918 7.09162 11.7757 7.23326 11.7757H8.77198C8.91361 11.7757 9.02843 11.8918 9.02843 12.0349V13.5901Z" fill="white"/>
</svg>
	