<?xml version="1.0" encoding="UTF-8"?>
<svg width="18px" height="15px" viewBox="0 0 18 15" version="1.1" xmlns="http://www.w3.org/2000/svg" xmlns:xlink="http://www.w3.org/1999/xlink">
    <title>dropdown</title>
    <g id="Page-1" stroke="none" stroke-width="1" fill="none" fill-rule="evenodd">
        <path d="M1.222,1.33236364 L1.222,3.55418182 L8.89745455,3.55418182 L6.73927273,1.33236364 L1.222,1.33236364 Z M6.22927273,7.17053496 C5.922,7.17145455 5.67381818,7.42145455 5.67472478,7.72872727 C5.67563636,7.87509091 5.73381818,8.01690909 5.83836364,8.12054545 L8.61018182,10.8914545 C8.82654545,11.1078182 9.17745455,11.1087273 9.39381818,10.8923636 C9.39472727,10.8923636 9.39472727,10.8914545 9.39563636,10.8914545 L12.1683636,8.12054545 C12.3856364,7.90418182 12.3865455,7.55236364 12.1692727,7.33509091 C12.0656364,7.22963636 11.9238182,7.17145455 11.7765455,7.17145455 C11.6292727,7.17053496 11.4874545,7.22872727 11.3838182,7.33418182 L9.002,9.71327273 L6.62290909,7.33327273 C6.51836364,7.22781818 6.37654545,7.16963636 6.22927273,7.17053496 L6.22927273,7.17053496 Z M17.3329091,14.6650934 L0.665636364,14.6650934 C0.359272727,14.6650934 0.111090909,14.4169091 0.111090909,14.1114545 L0.111090909,1.33236364 C0.111090909,0.719636364 0.608363636,0.222363636 1.222,0.221454545 L6.73927273,0.221454545 C7.03836364,0.221454545 7.32472727,0.341454545 7.53563636,0.555090909 L9.372,2.44418182 L17.3338182,2.44418182 C17.6410909,2.44418182 17.8901818,2.69236364 17.8901818,2.99963636 L17.8901818,14.1114545 C17.8883636,14.4178182 17.6401818,14.666 17.3329091,14.6650934 L17.3329091,14.6650934 Z" id="dropdown" fill="currentColor"></path>
    </g>
</svg>