<?xml version="1.0" encoding="UTF-8"?>
<svg width="19px" height="16px" viewBox="0 0 19 16" version="1.1" xmlns="http://www.w3.org/2000/svg" xmlns:xlink="http://www.w3.org/1999/xlink">
    <title>dropdown</title>
    <g id="Page-1" stroke="none" stroke-width="1" fill="none" fill-rule="evenodd">
        <g id="dropdown" fill="#4B4B4B">
            <path d="M9.69140856,5.50246048 C10.2645851,7.89271592 12.3774253,9.57671828 14.8088871,9.57987979 C14.9753266,9.57852043 15.1415646,9.5692326 15.3070503,9.55206022 L15.5546459,9.52039373 L15.542,10.9998706 L15.5545502,11 L15.5545502,16 L6.57252031e-14,16 L6.57252031e-14,5.93985796 C6.57252031e-14,5.72513089 0.152846139,5.54654282 0.35440774,5.50950754 L0.432073498,5.50246048 L9.69140856,5.50246048 Z M10.7096194,10.0403806 C10.4557786,9.7865398 10.0442214,9.7865398 9.79038059,10.0403806 L9.79038059,10.0403806 L7.25,12.581 L4.70961941,10.0403806 L4.62905111,9.97184358 C4.37504434,9.78907821 4.0188373,9.81192388 3.79038059,10.0403806 C3.5365398,10.2942214 3.5365398,10.7057786 3.79038059,10.9596194 L3.79038059,10.9596194 L7.25,14.4192388 L10.7096194,10.9596194 L10.7781564,10.8790511 C10.9609218,10.6250443 10.9380761,10.2688373 10.7096194,10.0403806 Z M9.56005822,3.75287056 L9.54245122,3.9966103 L9.54245122,3.9966103 L9.5358621,4.24363053 L9.54363942,4.43630412 L9.54363942,4.43630412 L9.55660163,4.62766552 L1.72829399,4.62766552 L1.72829399,4.19026804 C1.72829399,3.97554097 1.88114013,3.7969529 2.08270173,3.75991762 L2.16036749,3.75287056 L9.56005822,3.75287056 Z" id="Combined-Shape"></path>
            <path d="M14.8071588,9.02268864e-08 C15.9190899,-0.000231860773 16.9855577,0.446761185 17.7718928,1.2426214 C18.5582279,2.03848162 19,3.1179982 19,4.24363053 L18.9982717,4.24363053 C18.9977945,6.58672579 17.121158,8.48583331 14.8065828,8.48551125 C12.4920076,8.48518919 10.6158869,6.5855595 10.6160459,4.2424642 C10.616205,1.8993689 12.4925835,9.02268864e-08 14.8071588,9.02268864e-08 Z M15.3031792,3.32684541 L14.1253468,3.32684541 C14.0611747,3.32684541 13.9996309,3.35265179 13.9542544,3.39858744 C13.9088779,3.44452308 13.8833856,3.50682519 13.8833856,3.571788 L13.8833856,4.20076558 C13.8838597,4.33584437 13.9919122,4.44522831 14.1253468,4.44570817 L14.4312548,4.44570817 L14.4312548,6.12793888 L14.1391731,6.12793888 C14.0055417,6.12793888 13.897212,6.23760341 13.897212,6.37288146 L13.897212,6.99573548 C13.897212,7.13101353 14.0055417,7.24067806 14.1391731,7.24067806 L15.8588257,7.24067806 C15.9924571,7.24067806 16.1007868,7.13101353 16.1007868,6.99573548 L16.0947378,6.37288146 C16.0947378,6.23760341 15.9864081,6.12793888 15.8527766,6.12793888 L15.5451403,6.12793888 L15.5451403,3.571788 C15.5451403,3.50682519 15.519648,3.44452308 15.4742715,3.39858744 C15.428895,3.35265179 15.3673512,3.32684541 15.3031792,3.32684541 Z M14.7751853,1.11536375 L14.7043253,1.11536375 L14.7043253,1.11536375 C14.2984586,1.13287939 13.9830967,1.47951366 13.9991813,1.89043209 C13.9976804,1.91840491 13.9976804,1.94643958 13.9991813,1.97441241 C14.0096268,2.17200094 14.0977078,2.3571516 14.2437985,2.48861013 C14.3898892,2.62006865 14.5818516,2.68691267 14.7769136,2.67424837 C14.8142803,2.67774589 14.8518861,2.67774589 14.8892527,2.67424837 C15.0804475,2.65907298 15.2578354,2.56756005 15.3823244,2.41987684 C15.5068135,2.27219363 15.5681862,2.08046125 15.5529176,1.88693291 C15.5542133,1.86303983 15.5542133,1.8390928 15.5529176,1.81519972 C15.5415639,1.61795144 15.4532175,1.43336305 15.3073398,1.30209614 C15.161462,1.17082924 14.9700201,1.10365248 14.7751853,1.11536375 Z" id="Combined-Shape" fill-rule="nonzero"></path>
        </g>
    </g>
</svg>