<svg width="24" height="24" viewBox="0 0 24 24" fill="none" xmlns="http://www.w3.org/2000/svg">
	<path d="M17.4828 4.68951L12 10.1729L6.51722 4.68951C6.26489 4.43726 5.85586 4.43726 5.60353 4.68951L4.68919 5.6032C4.43694 5.85553 4.43694 6.26456 4.68919 6.51689L10.1726 12.0003L4.68919 17.4831C4.43694 17.7354 4.43694 18.1445 4.68919 18.3968L5.60288 19.3111C5.85521 19.5634 6.26424 19.5634 6.51657 19.3111L12 13.8277L17.4828 19.3111C17.7351 19.5634 18.1441 19.5634 18.3965 19.3111L19.3108 18.3974C19.5631 18.1451 19.5631 17.7361 19.3108 17.4838L13.8274 12.0003L19.3108 6.51754C19.5631 6.26521 19.5631 5.85618 19.3108 5.60385L18.3971 4.68951C18.276 4.56826 18.1117 4.50009 17.9403 4.5C17.7689 4.49991 17.6045 4.56789 17.4833 4.68901L17.4828 4.68951Z" fill="currentColor"/>
</svg>
	