<svg width="16" height="16" viewBox="0 0 16 16" fill="none" xmlns="http://www.w3.org/2000/svg">
<g clip-path="url(#clip0_12_472)">
<path fill-rule="evenodd" clip-rule="evenodd" d="M9.77778 5.17777V4C9.77778 3.88212 9.73095 3.76908 9.6476 3.68573C9.56425 3.60238 9.45121 3.55555 9.33333 3.55555H3.55556V1.33333C3.55556 1.08787 3.75454 0.888885 4 0.888885H12C12.2455 0.888885 12.4444 1.08787 12.4444 1.33333V5.67422C11.7531 5.33362 10.9929 5.15618 10.2222 5.15555C10.072 5.15555 9.92445 5.16489 9.77778 5.17777ZM5.15556 10.2222C5.1576 7.93916 6.6863 5.93947 8.88889 5.33866V4.88889C8.88889 4.64343 8.68991 4.44444 8.44444 4.44444H0.444444C0.198985 4.44444 0 4.64343 0 4.88889V14.6667C0 14.9121 0.198985 15.1111 0.444444 15.1111H8.44444C8.52352 15.1095 8.60053 15.0856 8.66667 15.0422C6.57462 14.3673 5.15641 12.4204 5.15556 10.2222ZM13.6204 12.2667L15.6404 14.2858C16.0053 14.6635 16.0057 15.2623 15.6413 15.6404C15.469 15.8333 15.2226 15.9435 14.964 15.9435C14.7054 15.9435 14.459 15.8333 14.2867 15.6404L12.2667 13.6204C10.5237 14.6784 8.26522 14.2676 7.00636 12.6638C5.74751 11.0599 5.88509 8.76849 7.32679 7.32679C8.76849 5.88508 11.0599 5.74751 12.6638 7.00636C14.2676 8.26521 14.6784 10.5237 13.6204 12.2667ZM10.2129 7.73822C8.84617 7.73846 7.73842 8.84661 7.73867 10.2133C7.73891 11.5799 8.84679 12.6876 10.2133 12.6876H10.2138C11.5805 12.6873 12.6882 11.5792 12.688 10.2124C12.6878 8.84572 11.5796 7.73797 10.2129 7.73822Z" fill="currentColor"/>
</g>
<defs>
<clipPath id="clip0_12_472">
<rect width="16" height="16" fill="white"/>
</clipPath>
</defs>
</svg>
