<svg width="16" height="16" viewBox="0 0 16 16" fill="none" xmlns="http://www.w3.org/2000/svg">
<g clip-path="url(#clip0_304_33755)">
<path fill-rule="evenodd" clip-rule="evenodd" d="M12.8529 2.375H15.0588C15.1758 2.375 15.288 2.42439 15.3708 2.51229C15.4535 2.6002 15.5 2.71943 15.5 2.84375V15.0312C15.5 15.1556 15.4535 15.2748 15.3708 15.3627C15.288 15.4506 15.1758 15.5 15.0588 15.5H0.941176C0.824169 15.5 0.711954 15.4506 0.629218 15.3627C0.546481 15.2748 0.5 15.1556 0.5 15.0312V2.84375C0.5 2.71943 0.546481 2.6002 0.629218 2.51229C0.711954 2.42439 0.824169 2.375 0.941176 2.375H3.14706V0.96875C3.14706 0.84443 3.19354 0.725201 3.27628 0.637294C3.35901 0.549386 3.47123 0.5 3.58824 0.5H4.47059C4.5876 0.5 4.69981 0.549386 4.78255 0.637294C4.86528 0.725201 4.91176 0.84443 4.91176 0.96875V2.375H11.0882V0.96875C11.0882 0.84443 11.1347 0.725201 11.2175 0.637294C11.3002 0.549386 11.4124 0.5 11.5294 0.5H12.4118C12.5288 0.5 12.641 0.549386 12.7237 0.637294C12.8065 0.725201 12.8529 0.84443 12.8529 0.96875V2.375ZM1.38235 14.5625H14.6176V3.3125H12.8529V3.78125C12.8529 3.90557 12.8065 4.0248 12.7237 4.11271C12.641 4.20061 12.5288 4.25 12.4118 4.25H11.5294C11.4124 4.25 11.3002 4.20061 11.2175 4.11271C11.1347 4.0248 11.0882 3.90557 11.0882 3.78125V3.3125H4.91176V3.78125C4.91176 3.90557 4.86528 4.0248 4.78255 4.11271C4.69981 4.20061 4.5876 4.25 4.47059 4.25H3.58824C3.47123 4.25 3.35901 4.20061 3.27628 4.11271C3.19354 4.0248 3.14706 3.90557 3.14706 3.78125V3.3125H1.38235V14.5625ZM9.76466 8.9375H12.4117C12.6554 8.9375 12.8529 9.14737 12.8529 9.40625V12.2188C12.8529 12.4776 12.6554 12.6875 12.4117 12.6875H9.76466C9.52101 12.6875 9.32349 12.4776 9.32349 12.2188V9.40625C9.32349 9.14737 9.52101 8.9375 9.76466 8.9375Z" fill="currentColor"/>
</g>
<defs>
<clipPath id="clip0_304_33755">
<rect width="16" height="16" fill="white"/>
</clipPath>
</defs>
</svg>
