<svg width="40" height="63" viewBox="0 0 40 63" fill="none" xmlns="http://www.w3.org/2000/svg">
<path fill-rule="evenodd" clip-rule="evenodd" d="M3.07909 3.09082C2.94768 3.09082 2.84045 3.19805 2.84045 3.32946V49.4374C2.84045 49.5691 2.94732 49.676 3.07909 49.676H14.159C14.7804 49.676 15.284 50.1797 15.284 50.801C15.284 51.4224 14.7804 51.926 14.159 51.926H3.07909C1.70541 51.926 0.590454 50.8125 0.590454 49.4374V3.32946C0.590454 1.95541 1.70504 0.84082 3.07909 0.84082H24.5175C24.8397 0.84082 25.1302 0.976251 25.3353 1.19329L39.6308 15.4888C39.9526 15.8106 40.0488 16.2944 39.8747 16.7148C39.7006 17.1352 39.2904 17.4093 38.8353 17.4093H24.5172C23.8958 17.4093 23.3922 16.9056 23.3922 16.2843V3.09082H3.07909ZM38.8353 20.8524C39.4567 20.8524 39.9603 21.3561 39.9603 21.9774V49.5211C39.9603 50.903 38.7986 51.9258 37.489 51.9258H25.409C24.7877 51.9258 24.284 51.4221 24.284 50.8008C24.284 50.1795 24.7877 49.6758 25.409 49.6758H37.489C37.5686 49.6758 37.6287 49.6459 37.666 49.6105C37.7021 49.5762 37.7103 49.5449 37.7103 49.5211V21.9774C37.7103 21.3561 38.214 20.8524 38.8353 20.8524ZM25.6422 15.1593V4.68212L36.1194 15.1593H25.6422Z" fill="currentColor"/>
<path fill-rule="evenodd" clip-rule="evenodd" d="M19.7211 62.375C20.3424 62.375 20.8461 61.8713 20.8461 61.25V35.841L25.6756 40.6705C26.1149 41.1098 26.8272 41.1098 27.2666 40.6705C27.7059 40.2312 27.7059 39.5188 27.2666 39.0795L20.5166 32.3295C20.0772 31.8902 19.3649 31.8902 18.9256 32.3295L12.1756 39.0795C11.7362 39.5188 11.7362 40.2312 12.1756 40.6705C12.6149 41.1098 13.3272 41.1098 13.7666 40.6705L18.5961 35.841V61.25C18.5961 61.8713 19.0997 62.375 19.7211 62.375Z" fill="currentColor"/>
</svg>
