<?xml version="1.0" encoding="UTF-8"?>
<svg width="58px" height="99px" viewBox="0 0 58 99" version="1.1" xmlns="http://www.w3.org/2000/svg" xmlns:xlink="http://www.w3.org/1999/xlink">
    <title>Group 11</title>
    <g id="Page-1" stroke="none" stroke-width="1" fill="none" fill-rule="evenodd">
        <g id="Group-11" transform="translate(1.000000, 1.000000)" fill="#B3B3B3" fill-rule="nonzero">
            <path d="M33.9424,-1.0003 C34.7708271,-1.0003 35.4424,-0.328727125 35.4424,0.4997 C35.4424,1.27939612 34.8475119,1.92014868 34.08686,1.99283342 L33.9424,1.9997 L2.4994,1.9997 C2.25444633,1.9997 2.04990412,2.17702514 2.00747442,2.40997436 L1.9994,2.4997 L1.9994,70.1247 C1.9994,70.3701325 2.1763606,70.5743023 2.40955285,70.6166433 L2.4994,70.6247 L20.2164,70.6247 C21.0448271,70.6247 21.7164,71.2962729 21.7164,72.1247 C21.7164,72.9043961 21.1215119,73.5451487 20.36086,73.6178334 L20.2164,73.6247 L2.4994,73.6247 C0.631165285,73.6247 -0.895704537,72.1606104 -0.995420042,70.316754 L-1.0006,70.1247 L-1.0006,2.4997 C-1.0006,0.631687113 0.464209765,-0.895389748 2.30741801,-0.995119302 L2.4994,-1.0003 L33.9424,-1.0003 Z" id="Stroke-1"></path>
            <path d="M54.942,24.9093 C55.7216961,24.9093 56.3624487,25.5041881 56.4351334,26.26484 L56.442,26.4093 L56.442,70.1243 C56.442,71.9930579 54.9774047,73.5194394 53.1340034,73.6191218 L52.942,73.6243 L33.216,73.6243 C32.3875729,73.6243 31.716,72.9527271 31.716,72.1243 C31.716,71.3446039 32.3108881,70.7038513 33.07154,70.6311666 L33.216,70.6243 L52.942,70.6243 C53.1873638,70.6243 53.391587,70.4474005 53.4339408,70.2141675 L53.442,70.1243 L53.442,26.4093 C53.442,25.5808729 54.1135729,24.9093 54.942,24.9093 Z" id="Stroke-3"></path>
            <path d="M32.442,0.5001 L32.442,21.5001 C32.442,22.3285271 33.1135729,23.0001 33.942,23.0001 L54.942,23.0001 C56.2783573,23.0001 56.9476075,21.3843871 56.0026602,20.4394398 L35.0026602,-0.560560172 C34.0577129,-1.50550746 32.442,-0.836257276 32.442,0.5001 Z M35.442,4.121 L51.321,20 L35.442,20 L35.442,4.121 Z" id="Stroke-5"></path>
            <path d="M26.7223,52.8161 C27.5019961,52.8161 28.1427487,53.4109881 28.2154334,54.17164 L28.2223,54.3161 L28.2223,95.0601 C28.2223,95.8885271 27.5507271,96.5601 26.7223,96.5601 C25.9426039,96.5601 25.3018513,95.9652119 25.2291666,95.20456 L25.2223,95.0601 L25.2223,54.3161 C25.2223,53.4876729 25.8938729,52.8161 26.7223,52.8161 Z" id="Stroke-7"></path>
            <path d="M35.5898248,85.7093085 C36.1714312,85.1193716 37.1211547,85.1126184 37.7110915,85.6942248 C38.2641573,86.2394808 38.3046594,87.1082772 37.8283328,87.7008398 L37.7261752,87.8154915 L28.5820282,97.0906086 C27.6457235,98.0436759 26.1353304,98.0851136 25.1507267,97.2165696 L25.0198248,97.0924915 L15.8738248,87.8154915 C15.2922184,87.2255547 15.2989716,86.2758312 15.8889085,85.6942248 C16.4419743,85.1489688 17.3112588,85.1208257 17.8969878,85.6055307 L18.0101752,85.7093085 L26.8,94.624 L35.5898248,85.7093085 Z" id="Stroke-9"></path>
        </g>
    </g>
</svg>