<svg width="156" height="156" viewBox="0 0 156 156" fill="none" xmlns="http://www.w3.org/2000/svg">
	<path fill-rule="evenodd" clip-rule="evenodd" d="M47.8039 27.8905C47.5761 27.8905 47.3902 28.0764 47.3902 28.3042V108.225C47.3902 108.453 47.5755 108.638 47.8039 108.638H67.0091C68.0861 108.638 68.9591 109.511 68.9591 110.588C68.9591 111.665 68.0861 112.538 67.0091 112.538H47.8039C45.4228 112.538 43.4902 110.608 43.4902 108.225V28.3042C43.4902 25.9225 45.4222 23.9905 47.8039 23.9905H84.9638C85.5222 23.9905 86.0258 24.2253 86.3813 24.6014L111.16 49.3804C111.718 49.9381 111.885 50.7768 111.583 51.5055C111.281 52.2342 110.57 52.7093 109.781 52.7093H84.9632C83.8862 52.7093 83.0132 51.8362 83.0132 50.7593V27.8905H47.8039ZM109.781 58.6773C110.858 58.6773 111.731 59.5504 111.731 60.6273V108.37C111.731 110.765 109.718 112.538 107.448 112.538H86.509C85.4321 112.538 84.559 111.665 84.559 110.588C84.559 109.511 85.4321 108.638 86.509 108.638H107.448C107.586 108.638 107.69 108.586 107.754 108.525C107.817 108.465 107.831 108.411 107.831 108.37V60.6273C107.831 59.5504 108.704 58.6773 109.781 58.6773ZM86.9132 48.8093V30.6488L105.074 48.8093H86.9132Z" fill="currentColor"/>
	<path fill-rule="evenodd" clip-rule="evenodd" d="M76.65 130.65C77.727 130.65 78.6 129.777 78.6 128.7V84.6579L86.9711 93.0291C87.7327 93.7906 88.9673 93.7906 89.7289 93.0291C90.4904 92.2675 90.4904 91.0329 89.7289 90.2714L78.0289 78.5714C77.9337 78.4762 77.8311 78.3929 77.723 78.3215C76.9661 77.8217 75.9375 77.905 75.2711 78.5714L63.5711 90.2714C62.8096 91.0329 62.8096 92.2675 63.5711 93.0291C64.3327 93.7906 65.5673 93.7906 66.3289 93.0291L74.7 84.6579V128.7C74.7 129.777 75.573 130.65 76.65 130.65Z" fill="currentColor"/>
</svg>
	