<svg width="138" height="106" viewBox="0 0 138 106" fill="none" xmlns="http://www.w3.org/2000/svg">
<path fill-rule="evenodd" clip-rule="evenodd" d="M6 3.5H132C133.381 3.5 134.5 4.61929 134.5 6V78.0754L98.5461 36.821C96.3267 34.5049 92.6756 34.3975 90.3244 36.5284L90.1143 36.7283L58.0499 68.7463L46.6481 56.8445C44.4297 54.5279 40.7784 54.4196 38.4273 56.5504L38.2173 56.7502L3.5 91.4172V6C3.5 4.61929 4.61929 3.5 6 3.5ZM3.5 94.7484V100C3.5 101.381 4.61929 102.5 6 102.5H24.3187C24.3722 102.4 24.4411 102.306 24.5254 102.222L56.3814 70.4123L44.9433 58.4726L44.7811 58.3136C43.3978 57.0409 41.2341 57.0691 39.8853 58.4159L3.5 94.7484ZM27.5832 102.5H132C133.381 102.5 134.5 101.381 134.5 100V81.6635L96.8041 38.4084L96.646 38.2541C95.2954 37.0181 93.1315 37.0468 91.7824 38.3939L27.5832 102.5ZM0 6C0 2.68629 2.68629 0 6 0H132C135.314 0 138 2.68629 138 6V100C138 103.314 135.314 106 132 106H6C2.68629 106 0 103.314 0 100V6ZM47.1794 31.7999C47.1794 24.6457 41.3696 18.8443 34.2051 18.8443C27.0405 18.8443 21.2307 24.6457 21.2307 31.7999C21.2307 38.954 27.0405 44.7554 34.2051 44.7554C41.3696 44.7554 47.1794 38.954 47.1794 31.7999ZM23.5897 31.7999C23.5897 25.9467 28.3433 21.1999 34.205 21.1999C40.0668 21.1999 44.8204 25.9467 44.8204 31.7999C44.8204 37.6531 40.0668 42.3999 34.205 42.3999C28.3433 42.3999 23.5897 37.6531 23.5897 31.7999Z" fill="currentColor"/>
</svg>
