<svg width="57" height="43" viewBox="0 0 57 43" fill="none" xmlns="http://www.w3.org/2000/svg">
<path d="M55.1111 0H1.77778C1.30628 0 0.854097 0.187301 0.520699 0.520699C0.187301 0.854097 0 1.30628 0 1.77778V40.8889C0 41.3604 0.187301 41.8126 0.520699 42.146C0.854097 42.4794 1.30628 42.6667 1.77778 42.6667H55.1111C55.5826 42.6667 56.0348 42.4794 56.3682 42.146C56.7016 41.8126 56.8889 41.3604 56.8889 40.8889V1.77778C56.8889 1.30628 56.7016 0.854097 56.3682 0.520699C56.0348 0.187301 55.5826 0 55.1111 0ZM53.3333 34.4409L43.9609 25.0667C43.2941 24.4001 42.3899 24.0256 41.4471 24.0256C40.5043 24.0256 39.6001 24.4001 38.9333 25.0667L33.472 30.528L20.0391 17.0933C19.3723 16.4268 18.4681 16.0523 17.5253 16.0523C16.5825 16.0523 15.6783 16.4268 15.0116 17.0933L3.55556 28.5493V3.55556H53.3333V34.4409Z" fill="currentColor"/>
<path d="M43.9108 17.7778C46.5618 17.7778 48.7108 15.6287 48.7108 12.9778C48.7108 10.3268 46.5618 8.17778 43.9108 8.17778C41.2599 8.17778 39.1108 10.3268 39.1108 12.9778C39.1108 15.6287 41.2599 17.7778 43.9108 17.7778Z" fill="#6D6D6D"/>
</svg>
