<svg width="16" height="16" viewBox="0 0 16 16" fill="none" xmlns="http://www.w3.org/2000/svg">
<path fill-rule="evenodd" clip-rule="evenodd" d="M14.8572 7.99985C14.8572 10.7733 13.1865 13.2736 10.6242 14.335C8.06193 15.3963 5.11259 14.8097 3.15148 12.8486C1.19037 10.8875 0.603704 7.93813 1.66504 5.37583C2.72638 2.81352 5.22671 1.14285 8.00013 1.14285C11.7872 1.14285 14.8571 4.21283 14.8572 7.99985ZM6.15879 4.39886C6.7195 4.10176 7.34682 3.95286 7.98123 3.9663C9.41957 3.9663 10.2107 4.81959 10.2107 5.90695C10.2199 6.56068 9.93894 7.18489 9.44346 7.61145L9.35565 7.69716C8.92185 8.12003 8.53224 8.49983 8.53224 8.84663C8.5338 9.08645 8.60008 9.3214 8.72407 9.52668C8.73855 9.54338 8.74107 9.56734 8.73038 9.58669C8.7197 9.60604 8.69807 9.61665 8.67622 9.61328H7.63323C7.57663 9.62011 7.51986 9.60207 7.47759 9.56383C7.28885 9.31978 7.18745 9.01948 7.18959 8.71097C7.18959 8.13014 7.5376 7.76008 8.11301 7.1666C8.50835 6.75896 8.73627 6.49958 8.73627 6.11645C8.73627 5.67164 8.4483 5.36285 7.71716 5.36285C7.18636 5.36157 6.66486 5.50217 6.20663 5.77008C6.18827 5.78347 6.16394 5.78538 6.14373 5.77501C6.12351 5.76465 6.11085 5.74378 6.111 5.72107V4.52262C6.111 4.4732 6.111 4.42418 6.15879 4.39886ZM8.67514 11.7893C8.8272 11.6325 8.90217 11.4166 8.87996 11.1993L8.88004 11.1849L8.87996 11.1756C8.87343 10.7401 8.5151 10.3924 8.07961 10.3989C7.64412 10.4055 7.29638 10.7638 7.30291 11.1993C7.28471 11.4157 7.36107 11.6293 7.51229 11.7852C7.66351 11.941 7.87478 12.0238 8.09162 12.0121C8.30948 12.0277 8.52307 11.9461 8.67514 11.7893ZM10.0608 3.02507C12.0729 3.85852 13.3848 5.82197 13.3848 7.99986C13.3848 9.42795 12.8175 10.7975 11.8076 11.8074C10.7978 12.8172 9.42822 13.3845 8.00013 13.3845C5.82224 13.3845 3.8588 12.0725 3.02536 10.0604C2.19192 8.04832 2.65261 5.73228 4.19261 4.19229C5.73262 2.65229 8.04866 2.19161 10.0608 3.02507Z" fill="currentColor"/>
</svg>
