<svg width="16" height="16" viewBox="0 0 16 16" fill="currentColor" xmlns="http://www.w3.org/2000/svg">
<path fill-rule="evenodd" clip-rule="evenodd" d="M15 7.99981C15.0001 11.8657 11.8664 14.9997 8.0005 15C6.14373 15.0005 4.36287 14.2631 3.04992 12.9501C1.73698 11.6372 0.999564 9.85634 1 7.99956C1.00024 4.13369 4.13425 0.999932 8.00012 1C11.866 1.00007 14.9999 4.13394 15 7.99981ZM7.99133 6.24999C8.59851 6.24689 9.09012 5.75575 9.09379 5.14857C9.09094 4.75764 8.87964 4.39795 8.53957 4.2051C8.1995 4.01226 7.78235 4.01559 7.4454 4.21383C7.10844 4.41207 6.90291 4.77508 6.90629 5.16601C6.90488 5.45412 7.01878 5.73081 7.2226 5.93444C7.42642 6.13806 7.70323 6.25168 7.99133 6.24999ZM9.38884 11.5H8.87503V7.12498H6.61673C6.41487 7.12742 6.25196 7.29074 6.25003 7.49261V7.66144C6.24629 7.75273 6.28108 7.84139 6.3459 7.90577C6.41072 7.97015 6.49961 8.00434 6.59087 7.99998H7.12503V11.5H6.62055C6.41821 11.5011 6.25374 11.6635 6.25003 11.8658V12.0116C6.25246 12.2126 6.41576 12.3744 6.61673 12.375H9.38884C9.48524 12.3758 9.5779 12.3377 9.64587 12.2693C9.71384 12.2009 9.75138 12.108 9.75003 12.0116V11.8709C9.75183 11.7737 9.71466 11.6798 9.64682 11.6101C9.57898 11.5404 9.48608 11.5008 9.38884 11.5Z" fill="white"/>
</svg>
