<?xml version="1.0" encoding="UTF-8"?>
<svg width="15px" height="13px" viewBox="0 0 15 13" version="1.1" xmlns="http://www.w3.org/2000/svg" xmlns:xlink="http://www.w3.org/1999/xlink">
    <title>Combined Shape</title>
    <g id="Page-1" stroke="none" stroke-width="1" fill="none" fill-rule="evenodd">
        <path d="M5.05394249,0.74645686 C5.50586188,0.406951211 6.15931193,0.437815361 6.57458938,0.83904931 L6.57458938,0.83904931 L6.67042264,0.943906075 C7.02181125,1.38054284 6.98986683,2.01189508 6.57458938,2.41312903 L6.57458938,2.41312903 L3.93408286,4.96521649 L8.01475604,4.96487983 C8.0494034,4.96165081 8.08450891,4.96 8.12,4.96 L13.08,4.96 C13.6985589,4.96 14.2,5.46144108 14.2,6.08 C14.2,6.69855892 13.6985589,7.2 13.08,7.2 L8.12,7.2 C8.07456912,7.2 8.02977001,7.19729504 7.98575495,7.1920374 L3.7186589,7.19130138 L6.6210179,10.3474848 L6.71031287,10.4575978 C7.03455749,10.9134176 6.96429629,11.5418679 6.52534952,11.9188482 C6.04982386,12.3272435 5.32167662,12.2858598 4.89898714,11.8264151 L4.89898714,11.8264151 L0.290987996,6.81772408 L0.205020856,6.71223385 C-0.108681595,6.27577667 -0.0607106686,5.67588273 0.337416511,5.29121908 L0.337416511,5.29121908 L4.94541566,0.83904931 Z" id="Combined-Shape" fill="currentColor" fill-rule="nonzero"></path>
    </g>
</svg>