<svg width="16" height="16" viewBox="0 0 16 16" fill="currentColor" xmlns="http://www.w3.org/2000/svg">
<g clip-path="url(#clip0_654_7739)">
<path d="M6.25645 9.20313C6.1731 9.11981 6.06008 9.073 5.94222 9.073C5.82437 9.073 5.71135 9.11981 5.628 9.20313L2.74622 12.0849L1.42222 10.7582C1.39355 10.729 1.3593 10.7059 1.32151 10.6901C1.28372 10.6744 1.24316 10.6664 1.20222 10.6667C1.11971 10.6667 1.04058 10.6995 0.982236 10.7578C0.923891 10.8161 0.891113 10.8953 0.891113 10.9778V14.9067C0.895112 14.9591 0.917583 15.0085 0.954529 15.0459C0.991476 15.0833 1.0405 15.1064 1.09289 15.1111H5.02222C5.10474 15.1111 5.18387 15.0783 5.24221 15.02C5.30056 14.9617 5.33334 14.8825 5.33334 14.8C5.3333 14.7594 5.32514 14.7192 5.30934 14.6818C5.29354 14.6444 5.27042 14.6106 5.24134 14.5822L3.91511 13.2538L6.79689 10.372C6.88021 10.2887 6.92702 10.1756 6.92702 10.0578C6.92702 9.93994 6.88021 9.82692 6.79689 9.74357L6.25645 9.20313Z" fill="currentColor"/>
<path d="M14.9071 0.888916H10.9778C10.8953 0.888916 10.8161 0.921694 10.7578 0.980038C10.6995 1.03838 10.6667 1.11752 10.6667 1.20003V1.20225C10.6667 1.24285 10.6749 1.28303 10.6907 1.32043C10.7065 1.35783 10.7296 1.39169 10.7587 1.42003L12.0849 2.74625L9.20313 5.62803C9.11981 5.71137 9.073 5.8244 9.073 5.94225C9.073 6.0601 9.11981 6.17313 9.20313 6.25647L9.74357 6.79692C9.82692 6.88024 9.93994 6.92704 10.0578 6.92704C10.1756 6.92704 10.2887 6.88024 10.372 6.79692L13.2538 3.91514L14.58 5.24181C14.6087 5.27101 14.6429 5.29417 14.6807 5.3099C14.7185 5.32562 14.7591 5.3336 14.8 5.33336C14.8825 5.33336 14.9617 5.30058 15.02 5.24224C15.0783 5.18389 15.1111 5.10476 15.1111 5.02225V1.09292C15.107 1.0402 15.0841 0.990702 15.0467 0.953311C15.0093 0.91592 14.9598 0.893087 14.9071 0.888916Z" fill="currentColor"/>
</g>
<defs>
<clipPath id="clip0_654_7739">
<rect width="16" height="16" fill="white"/>
</clipPath>
</defs>
</svg>
