<svg width="16" height="16" viewBox="0 0 16 16" fill="none" xmlns="http://www.w3.org/2000/svg">
	<path d="M14.6667 2.66666H1.33333C1.21546 2.66666 1.10241 2.71348 1.01906 2.79683C0.935711 2.88018 0.888885 2.99323 0.888885 3.1111V12.8889C0.888885 13.0068 0.935711 13.1198 1.01906 13.2031C1.10241 13.2865 1.21546 13.3333 1.33333 13.3333H14.6667C14.7845 13.3333 14.8976 13.2865 14.9809 13.2031C15.0643 13.1198 15.1111 13.0068 15.1111 12.8889V3.1111C15.1111 2.99323 15.0643 2.88018 14.9809 2.79683C14.8976 2.71348 14.7845 2.66666 14.6667 2.66666ZM14.2222 11.2769L11.8791 8.93332C11.7124 8.76668 11.4864 8.67307 11.2507 8.67307C11.015 8.67307 10.7889 8.76668 10.6222 8.93332L9.25689 10.2987L5.89866 6.93999C5.73197 6.77335 5.50592 6.67974 5.27022 6.67974C5.03452 6.67974 4.80847 6.77335 4.64177 6.93999L1.77777 9.80399V3.55555H14.2222V11.2769Z" fill="currentColor"/>
	<path d="M11.8667 7.11112C12.5294 7.11112 13.0667 6.57386 13.0667 5.91112C13.0667 5.24838 12.5294 4.71112 11.8667 4.71112C11.2039 4.71112 10.6667 5.24838 10.6667 5.91112C10.6667 6.57386 11.2039 7.11112 11.8667 7.11112Z" fill="currentColor"/>
	</svg>
	