<svg width="16" height="16" viewBox="0 0 16 16" fill="none" xmlns="http://www.w3.org/2000/svg">
	<path fill-rule="evenodd" clip-rule="evenodd" d="M1 14.5001V1.5C1 1.22386 1.22386 1 1.5 1H14.5001C14.7762 1 15.0001 1.22386 15.0001 1.5V14.5001C15.0001 14.7762 14.7762 15.0001 14.5001 15.0001H1.5C1.22386 15.0001 1 14.7762 1 14.5001ZM3.75005 14.0002C3.88812 14.0002 4.00005 13.8882 4.00005 13.7502V12.2501C4.00005 12.1121 3.88812 12.0001 3.75005 12.0001H2.25004C2.11197 12.0001 2.00004 12.1121 2.00004 12.2501V13.7502C2.00004 13.8882 2.11197 14.0002 2.25004 14.0002H3.75005ZM4.00005 10.3971C4.00007 10.4634 3.97374 10.527 3.92685 10.5739C3.87996 10.6208 3.81636 10.6471 3.75005 10.6471H2.25004C2.18373 10.6471 2.12013 10.6208 2.07324 10.5739C2.02635 10.527 2.00002 10.4634 2.00004 10.3971V8.89709C2.00009 8.75904 2.11199 8.64714 2.25004 8.64709H3.75005C3.8881 8.64714 4 8.75904 4.00005 8.89709V10.3971ZM3.75005 7.35283C3.88812 7.35283 4.00005 7.2409 4.00005 7.10283V5.60282C4.00005 5.46475 3.88812 5.35282 3.75005 5.35282H2.25004C2.11197 5.35282 2.00004 5.46475 2.00004 5.60282V7.10283C2.00004 7.2409 2.11197 7.35283 2.25004 7.35283H3.75005ZM4.00005 3.75005C4.00005 3.88812 3.88812 4.00005 3.75005 4.00005H2.25004C2.11197 4.00005 2.00004 3.88812 2.00004 3.75005V2.25004C2.00004 2.11197 2.11197 2.00004 2.25004 2.00004H3.75005C3.88812 2.00004 4.00005 2.11197 4.00005 2.25004V3.75005ZM5.25015 7.99996H10.7502V7.99997C10.8165 7.99997 10.8801 7.97363 10.927 7.92674C10.9739 7.87986 11.0002 7.81627 11.0002 7.74996V7.24996C11.0002 7.11188 10.8883 6.99995 10.7502 6.99995H5.25015C5.11208 6.99995 5.00015 7.11188 5.00015 7.24996V7.74996C5.00015 7.88803 5.11208 7.99996 5.25015 7.99996ZM14.0002 13.7502C14.0002 13.8882 13.8882 14.0002 13.7502 14.0002H12.2501C12.1121 14.0002 12.0001 13.8882 12.0001 13.7502V12.2501C12.0001 12.1121 12.1121 12.0001 12.2501 12.0001H13.7502C13.8882 12.0001 14.0002 12.1121 14.0002 12.2501V13.7502ZM13.927 10.5739C13.9738 10.527 14.0002 10.4634 14.0002 10.3971V8.89709C14.0001 8.75904 13.8882 8.64714 13.7502 8.64709H12.2501C12.1121 8.64714 12.0002 8.75904 12.0001 8.89709V10.3971C12.0001 10.4634 12.0265 10.527 12.0734 10.5739C12.1202 10.6208 12.1838 10.6471 12.2501 10.6471H13.7502C13.8165 10.6471 13.8801 10.6208 13.927 10.5739ZM14.0002 7.10283C14.0002 7.2409 13.8882 7.35283 13.7502 7.35283H12.2501C12.1121 7.35283 12.0001 7.2409 12.0001 7.10283V5.60282C12.0001 5.46475 12.1121 5.35282 12.2501 5.35282H13.7502C13.8882 5.35282 14.0002 5.46475 14.0002 5.60282V7.10283ZM13.7502 4.00005C13.8882 4.00005 14.0002 3.88812 14.0002 3.75005V2.25004C14.0002 2.11197 13.8882 2.00004 13.7502 2.00004H12.2501C12.1121 2.00004 12.0001 2.11197 12.0001 2.25004V3.75005C12.0001 3.88812 12.1121 4.00005 12.2501 4.00005H13.7502Z" fill="currentColor"/>
	</svg>
	