<svg width="16" height="16" viewBox="0 0 16 16" fill="none" xmlns="http://www.w3.org/2000/svg">
	<path fill-rule="evenodd" clip-rule="evenodd" d="M4.125 3.75C4.125 3.33579 4.46079 3 4.875 3C5.28921 3 5.625 3.33579 5.625 3.75V12.25C5.625 12.6642 5.28921 13 4.875 13C4.46079 13 4.125 12.6642 4.125 12.25V3.75ZM1 6.25C1 5.83579 1.33579 5.5 1.75 5.5C2.16421 5.5 2.5 5.83579 2.5 6.25V9.75C2.5 10.1642 2.16421 10.5 1.75 10.5C1.33579 10.5 1 10.1642 1 9.75V6.25ZM8 5.5C7.58579 5.5 7.25 5.83579 7.25 6.25V9.75C7.25 10.1642 7.58579 10.5 8 10.5C8.41421 10.5 8.75 10.1642 8.75 9.75V6.25C8.75 5.83579 8.41421 5.5 8 5.5ZM10.375 3.75C10.375 3.33579 10.7108 3 11.125 3C11.5392 3 11.875 3.33579 11.875 3.75V12.25C11.875 12.6642 11.5392 13 11.125 13C10.7108 13 10.375 12.6642 10.375 12.25V3.75ZM14.25 5.5C13.8358 5.5 13.5 5.83579 13.5 6.25V9.75C13.5 10.1642 13.8358 10.5 14.25 10.5C14.6642 10.5 15 10.1642 15 9.75V6.25C15 5.83579 14.6642 5.5 14.25 5.5Z" fill="currentColor"/>
	</svg>
	