<?xml version="1.0" encoding="UTF-8"?>
<svg width="19px" height="17px" viewBox="0 0 19 17" version="1.1" xmlns="http://www.w3.org/2000/svg" xmlns:xlink="http://www.w3.org/1999/xlink">
    <title>nested-arrow</title>
    <g id="Page-1" stroke="none" stroke-width="1" fill="none" fill-rule="evenodd">
        <g id="nested-arrow" transform="translate(1.500000, 1.000000)" fill="currentColor" fill-rule="nonzero">
            <path d="M0,-1 C0.512835839,-1 0.935507161,-0.61395981 0.993272269,-0.116621125 L1,0 L1,5 C1,6.59768088 2.24891996,7.90366088 3.82372721,7.99490731 L4,8 L14,8 C14.5522847,8 15,8.44771525 15,9 C15,9.51283584 14.6139598,9.93550716 14.1166211,9.99327227 L14,10 L4,10 C1.3112453,10 -0.881818115,7.87769329 -0.995380486,5.21688962 L-1,5 L-1,0 C-1,-0.55228475 -0.55228475,-1 0,-1 Z" id="Path-4"></path>
            <path d="M9.04289322,2.29289322 C9.40337718,1.93240926 9.97060824,1.90467972 10.3628994,2.20970461 L10.4571068,2.29289322 L17.1642136,9 L10.4571068,15.7071068 C10.0665825,16.0976311 9.43341751,16.0976311 9.04289322,15.7071068 C8.68240926,15.3466228 8.65467972,14.7793918 8.95970461,14.3871006 L9.04289322,14.2928932 L14.335,9 L9.04289322,3.70710678 C8.68240926,3.34662282 8.65467972,2.77939176 8.95970461,2.38710056 L9.04289322,2.29289322 Z" id="Path-3"></path>
        </g>
    </g>
</svg>