<?xml version="1.0" encoding="UTF-8"?>
<svg width="126px" height="90px" viewBox="0 0 126 90" version="1.1" xmlns="http://www.w3.org/2000/svg" xmlns:xlink="http://www.w3.org/1999/xlink">
    <title>no-credentials</title>
    <g id="Page-1" stroke="none" stroke-width="1" fill="none" fill-rule="evenodd">
        <g id="no-credentials" transform="translate(1.000000, 1.000000)" fill="currentColor" fill-rule="nonzero">
            <path d="M18.7422984,35.2873885 C19.3296043,34.7031255 20.2793486,34.7055924 20.8636115,35.2928984 C21.4113581,35.8434977 21.4434241,36.7126463 20.9613675,37.300557 L20.8581016,37.4142115 L1.55810164,56.6142115 C0.970795662,57.1984745 0.0210513974,57.1960076 -0.563211546,56.6087016 C-1.11095806,56.0581023 -1.14302407,55.1889537 -0.660967468,54.601043 L-0.557701642,54.4873885 L18.7422984,35.2873885 Z" id="Stroke-1"></path>
            <path d="M-0.563411546,35.2928984 C-0.0156650365,34.742299 0.85330529,34.7057184 1.44371216,35.1847144 L1.55790164,35.2873885 L20.8579016,54.4873885 C21.4452076,55.0716514 21.4476745,56.0213957 20.8634115,56.6087016 C20.315665,57.159301 19.4466947,57.1958816 18.8562878,56.7168856 L18.7420984,56.6142115 L-0.557901642,37.4142115 C-1.14520762,36.8299486 -1.14767449,35.8802043 -0.563411546,35.2928984 Z" id="Stroke-3"></path>
            <path d="M118.5852,-0.9995 C121.548544,-0.9995 123.964733,1.34441231 124.080833,4.27930254 L124.0852,4.5005 L124.0852,83.5005 C124.0852,86.4638435 121.741288,88.8800325 118.806397,88.9961326 L118.5852,89.0005 L12.5852,89.0005 C9.62185646,89.0005 7.20566748,86.6565877 7.08956745,83.7216975 L7.0852,83.5005 L7.0852,60.3205 C7.0852,59.4920729 7.75677288,58.8205 8.5852,58.8205 C9.36489612,58.8205 10.0056487,59.4153881 10.0783334,60.17604 L10.0852,60.3205 L10.0852,83.5005 C10.0852,84.82585 11.116864,85.910528 12.4208397,85.9951817 L12.5852,86.0005 L118.5852,86.0005 C119.91055,86.0005 120.995228,84.968836 121.079882,83.6648603 L121.0852,83.5005 L121.0852,4.5005 C121.0852,3.17515004 120.053536,2.090472 118.74956,2.00581832 L118.5852,2.0005 L12.5852,2.0005 C11.25985,2.0005 10.175172,3.03216404 10.0905183,4.33613968 L10.0852,4.5005 L10.0852,31.8555 C10.0852,32.6839271 9.41362712,33.3555 8.5852,33.3555 C7.80550388,33.3555 7.16475132,32.7606119 7.09206658,31.99996 L7.0852,31.8555 L7.0852,4.5005 C7.0852,1.53715646 9.42911231,-0.879032522 12.3640025,-0.995132554 L12.5852,-0.9995 L118.5852,-0.9995 Z" id="Stroke-5"></path>
            <path d="M40.5352646,30.263266 C42.4169035,28.2967047 45.5124249,28.2055366 47.5057923,30.0147805 L47.6839068,30.1844932 L103.291907,85.7924932 C103.682431,86.1830175 103.682431,86.8161825 103.291907,87.2067068 C102.931423,87.5671907 102.364192,87.5949203 101.971901,87.2898954 L101.877693,87.2067068 L46.2696932,31.5987068 C45.1259027,30.4549163 43.2912588,30.4305544 42.1352823,31.4922618 L41.9999104,31.6248777 L28.1339104,46.9768777 C27.7637263,47.3867339 27.1313786,47.4188945 26.7215223,47.0487104 C26.3431935,46.707002 26.2866881,46.1419116 26.5713935,45.7346335 L26.6496896,45.6363223 L40.5352646,30.263266 Z" id="Stroke-7"></path>
            <path d="M84.535742,47.2642988 C86.4165194,45.2973697 89.5121851,45.2054522 91.5054978,47.0145885 L91.6836068,47.1842932 L123.292607,78.7932932 C123.683131,79.1838175 123.683131,79.8169825 123.292607,80.2075068 C122.932123,80.5679907 122.364892,80.5957203 121.972601,80.2906954 L121.878393,80.2075068 L90.2693932,48.5985068 C89.1258916,47.4550052 87.2914177,47.4310865 86.1185908,48.5116798 L85.9811141,48.6466517 L75.7101141,59.3836517 C75.3283463,59.7827404 74.6953371,59.7967818 74.2962483,59.4150141 C73.9278587,59.0626131 73.8875568,58.4961365 74.183807,58.0971773 L74.2648859,58.0011483 L84.535742,47.2642988 Z" id="Stroke-9"></path>
            <path d="M95.0852,15 C89.0109153,15 84.0852,19.9257153 84.0852,26 C84.0852,32.0742847 89.0109153,37 95.0852,37 C101.159485,37 106.0852,32.0742847 106.0852,26 C106.0852,19.9257153 101.159485,15 95.0852,15 Z M95.0852,17 C100.054915,17 104.0852,21.0302847 104.0852,26 C104.0852,30.9697153 100.054915,35 95.0852,35 C90.1154847,35 86.0852,30.9697153 86.0852,26 C86.0852,21.0302847 90.1154847,17 95.0852,17 Z" id="Stroke-11"></path>
        </g>
    </g>
</svg>