<svg width="156" height="156" viewBox="0 0 156 156" fill="none" xmlns="http://www.w3.org/2000/svg">
	<path fill-rule="evenodd" clip-rule="evenodd" d="M15 28.5H141C142.381 28.5 143.5 29.6193 143.5 31V103.075L107.546 61.821C105.327 59.5049 101.676 59.3975 99.3244 61.5284L99.1143 61.7283L67.0499 93.7463L55.6481 81.8445C53.4297 79.5279 49.7784 79.4196 47.4273 81.5504L47.2173 81.7502L12.5 116.417V31C12.5 29.6193 13.6193 28.5 15 28.5ZM12.5 119.748V125C12.5 126.381 13.6193 127.5 15 127.5H33.3187C33.3722 127.4 33.4411 127.306 33.5254 127.222L65.3814 95.4123L53.9433 83.4726L53.7811 83.3136C52.3978 82.0409 50.2341 82.0691 48.8853 83.4159L12.5 119.748ZM36.5832 127.5H141C142.381 127.5 143.5 126.381 143.5 125V106.664L105.804 63.4084L105.646 63.2541C104.295 62.0181 102.131 62.0468 100.782 63.3939L36.5832 127.5ZM9 31C9 27.6863 11.6863 25 15 25H141C144.314 25 147 27.6863 147 31V125C147 128.314 144.314 131 141 131H15C11.6863 131 9 128.314 9 125V31ZM56.1794 56.7999C56.1794 49.6457 50.3696 43.8443 43.2051 43.8443C36.0405 43.8443 30.2307 49.6457 30.2307 56.7999C30.2307 63.954 36.0405 69.7554 43.2051 69.7554C50.3696 69.7554 56.1794 63.954 56.1794 56.7999ZM32.5897 56.7999C32.5897 50.9467 37.3433 46.1999 43.205 46.1999C49.0668 46.1999 53.8204 50.9467 53.8204 56.7999C53.8204 62.6531 49.0668 67.3999 43.205 67.3999C37.3433 67.3999 32.5897 62.6531 32.5897 56.7999Z" fill="currentColor"/>
</svg>
	