<?xml version="1.0" encoding="UTF-8"?>
<svg width="127px" height="90px" viewBox="0 0 127 90" version="1.1" xmlns="http://www.w3.org/2000/svg" xmlns:xlink="http://www.w3.org/1999/xlink">
    <title>no-data</title>
    <g id="Page-1" stroke="none" stroke-width="1" fill="none" fill-rule="evenodd">
        <g id="no-data" transform="translate(1.000000, 1.000000)" fill="currentColor" fill-rule="nonzero">
            <path d="M120.5,-0.9999 C123.463344,-0.9999 125.879533,1.34401231 125.995633,4.27890254 L126,4.5001 L126,83.5001 C126,86.4634435 123.656088,88.8796325 120.721197,88.9957326 L120.5,89.0001 L14.5,89.0001 C11.5366565,89.0001 9.12046748,86.6561877 9.00436745,83.7212975 L9,83.5001 L9,64.1301 C9,63.3016729 9.67157288,62.6301 10.5,62.6301 C11.2796961,62.6301 11.9204487,63.2249881 11.9931334,63.98564 L12,64.1301 L12,83.5001 C12,84.82545 13.031664,85.910128 14.3356397,85.9947817 L14.5,86.0001 L120.5,86.0001 C121.82535,86.0001 122.910028,84.968436 122.994682,83.6644603 L123,83.5001 L123,4.5001 C123,3.17475004 121.968336,2.090072 120.66436,2.00541832 L120.5,2.0001 L14.5,2.0001 C13.17465,2.0001 12.089972,3.03176404 12.0053183,4.33573968 L12,4.5001 L12,27.8701 C12,28.6985271 11.3284271,29.3701 10.5,29.3701 C9.72030388,29.3701 9.07955132,28.7752119 9.00686658,28.01456 L9,27.8701 L9,4.5001 C9,1.53675646 11.3439123,-0.879432522 14.2788025,-0.995532554 L14.5,-0.9999 L120.5,-0.9999 Z" id="Stroke-1"></path>
            <path d="M42.4500646,30.263266 C44.3317035,28.2967047 47.4272249,28.2055366 49.4205923,30.0147805 L49.5987068,30.1844932 L105.206707,85.7924932 C105.597231,86.1830175 105.597231,86.8161825 105.206707,87.2067068 C104.846223,87.5671907 104.278992,87.5949203 103.886701,87.2898954 L103.792493,87.2067068 L48.1844932,31.5987068 C47.0407027,30.4549163 45.2060588,30.4305544 44.0500823,31.4922618 L43.9147104,31.6248777 L30.0487104,46.9768777 C29.6785263,47.3867339 29.0461786,47.4188945 28.6363223,47.0487104 C28.2579935,46.707002 28.2014881,46.1419116 28.4861935,45.7346335 L28.5644896,45.6363223 L42.4500646,30.263266 Z" id="Stroke-3"></path>
            <path d="M86.450542,47.2642988 C88.3313194,45.2973697 91.4269851,45.2054522 93.4202978,47.0145885 L93.5984068,47.1842932 L125.207407,78.7932932 C125.597931,79.1838175 125.597931,79.8169825 125.207407,80.2075068 C124.846923,80.5679907 124.279692,80.5957203 123.887401,80.2906954 L123.793193,80.2075068 L92.1841932,48.5985068 C91.0406916,47.4550052 89.2062177,47.4310865 88.0333908,48.5116798 L87.8959141,48.6466517 L77.6249141,59.3836517 C77.2431463,59.7827404 76.6101371,59.7967818 76.2110483,59.4150141 C75.8426587,59.0626131 75.8023568,58.4961365 76.098607,58.0971773 L76.1796859,58.0011483 L86.450542,47.2642988 Z" id="Stroke-5"></path>
            <path d="M97,15 C90.9257153,15 86,19.9257153 86,26 C86,32.0742847 90.9257153,37 97,37 C103.074285,37 108,32.0742847 108,26 C108,19.9257153 103.074285,15 97,15 Z M97,17 C101.969715,17 106,21.0302847 106,26 C106,30.9697153 101.969715,35 97,35 C92.0302847,35 88,30.9697153 88,26 C88,21.0302847 92.0302847,17 97,17 Z" id="Stroke-7"></path>
            <path d="M10.5,34.5 C4.14957288,34.5 -1,39.6495729 -1,46 C-1,52.3504271 4.14957288,57.5 10.5,57.5 C16.8504271,57.5 22,52.3504271 22,46 C22,39.6495729 16.8504271,34.5 10.5,34.5 Z M10.5,37.5 C15.1935729,37.5 19,41.3064271 19,46 C19,50.6935729 15.1935729,54.5 10.5,54.5 C5.80642712,54.5 2,50.6935729 2,46 C2,41.3064271 5.80642712,37.5 10.5,37.5 Z" id="Stroke-9"></path>
            <path d="M16.8641932,38.2215932 C17.2547175,37.8310689 17.8878825,37.8310689 18.2784068,38.2215932 C18.6388907,38.5820772 18.6666203,39.1493082 18.3615954,39.5415994 L18.2784068,39.6358068 L4.13540678,53.7788068 C3.74488249,54.1693311 3.11171751,54.1693311 2.72119322,53.7788068 C2.36070926,53.4183228 2.33297972,52.8510918 2.63800461,52.4588006 L2.72119322,52.3645932 L16.8641932,38.2215932 Z" id="Stroke-11"></path>
        </g>
    </g>
</svg>