<svg id="default" xmlns="http://www.w3.org/2000/svg" width="4" height="4" viewBox="0 0 16 16">
  <path id="Combined_Shape" data-name="Combined Shape" d="M12.945,14.222a.5.5,0,0,1-.5-.5V11.166a.5.5,0,0,1,.5-.5h.833V8a.445.445,0,0,0-.365-.437l-.08-.007H8.445v3.111h.833a.5.5,0,0,1,.5.5v2.556a.5.5,0,0,1-.5.5H6.722a.5.5,0,0,1-.5-.5V11.166a.5.5,0,0,1,.5-.5h.833V7.556H2.667a.445.445,0,0,0-.437.365L2.222,8v2.667H1.333V8A1.334,1.334,0,0,1,2.538,6.673l.129-.006H7.556V3.556h.889v3.11h4.889a1.334,1.334,0,0,1,1.328,1.205L14.666,8v2.667H15.5a.5.5,0,0,1,.5.5v2.556a.5.5,0,0,1-.5.5ZM.5,14.222a.5.5,0,0,1-.5-.5V11.166a.5.5,0,0,1,.5-.5H3.056a.5.5,0,0,1,.5.5v2.556a.5.5,0,0,1-.5.5ZM6.722,3.556a.5.5,0,0,1-.5-.5V.5a.5.5,0,0,1,.5-.5H9.278a.5.5,0,0,1,.5.5V3.056a.5.5,0,0,1-.5.5Z" transform="translate(0 0.889)" fill="currentColor"/>
</svg>
