<svg width="16" height="16" viewBox="0 0 16 16" fill="none" xmlns="http://www.w3.org/2000/svg">
<g clip-path="url(#clip0_451_35033)">
<path d="M7.99988 11.511C9.93901 11.511 11.511 9.93901 11.511 7.99988C11.511 6.06075 9.93901 4.48877 7.99988 4.48877C6.06075 4.48877 4.48877 6.06075 4.48877 7.99988C4.48877 9.93901 6.06075 11.511 7.99988 11.511Z" fill="currentColor"/>
<path d="M8.57773 0H7.42217C7.29944 0 7.19995 0.0994923 7.19995 0.222222V2.44444C7.19995 2.56717 7.29944 2.66667 7.42217 2.66667H8.57773C8.70046 2.66667 8.79995 2.56717 8.79995 2.44444V0.222222C8.79995 0.0994923 8.70046 0 8.57773 0Z" fill="currentColor"/>
<path d="M8.57773 13.3333H7.42217C7.29944 13.3333 7.19995 13.4327 7.19995 13.5555V15.7777C7.19995 15.9004 7.29944 15.9999 7.42217 15.9999H8.57773C8.70046 15.9999 8.79995 15.9004 8.79995 15.7777V13.5555C8.79995 13.4327 8.70046 13.3333 8.57773 13.3333Z" fill="currentColor"/>
<path d="M2.44444 7.19995H0.222222C0.0994923 7.19995 0 7.29944 0 7.42217V8.57773C0 8.70046 0.0994923 8.79995 0.222222 8.79995H2.44444C2.56717 8.79995 2.66667 8.70046 2.66667 8.57773V7.42217C2.66667 7.29944 2.56717 7.19995 2.44444 7.19995Z" fill="currentColor"/>
<path d="M15.7777 7.19995H13.5555C13.4327 7.19995 13.3333 7.29944 13.3333 7.42217V8.57773C13.3333 8.70046 13.4327 8.79995 13.5555 8.79995H15.7777C15.9004 8.79995 15.9999 8.70046 15.9999 8.57773V7.42217C15.9999 7.29944 15.9004 7.19995 15.7777 7.19995Z" fill="currentColor"/>
<path d="M13.1179 1.76859L11.5465 3.33994C11.4598 3.42672 11.4598 3.56742 11.5465 3.65421L12.3636 4.47131C12.4504 4.55809 12.5911 4.55809 12.6779 4.47131L14.2493 2.89996C14.336 2.81317 14.336 2.67247 14.2493 2.58569L13.4322 1.76859C13.3454 1.6818 13.2047 1.6818 13.1179 1.76859Z" fill="currentColor"/>
<path d="M3.34006 11.5467L1.76871 13.118C1.68192 13.2048 1.68192 13.3455 1.76871 13.4323L2.58581 14.2494C2.67259 14.3362 2.81329 14.3362 2.90008 14.2494L4.47143 12.678C4.55821 12.5913 4.55821 12.4505 4.47143 12.3638L3.65433 11.5467C3.56754 11.4599 3.42684 11.4599 3.34006 11.5467Z" fill="currentColor"/>
<path d="M2.57653 1.75965L1.75943 2.57675C1.67265 2.66354 1.67265 2.80424 1.75943 2.89102L3.33078 4.46237C3.41756 4.54915 3.55826 4.54915 3.64505 4.46237L4.46215 3.64527C4.54893 3.55849 4.54893 3.41778 4.46215 3.331L2.8908 1.75965C2.80402 1.67287 2.66331 1.67287 2.57653 1.75965Z" fill="currentColor"/>
<path d="M12.3458 11.5287L11.5287 12.3458C11.4419 12.4326 11.4419 12.5733 11.5287 12.6601L13.1001 14.2314C13.1868 14.3182 13.3276 14.3182 13.4143 14.2314L14.2314 13.4143C14.3182 13.3275 14.3182 13.1868 14.2314 13.1L12.6601 11.5287C12.5733 11.4419 12.4326 11.4419 12.3458 11.5287Z" fill="currentColor"/>
</g>
<defs>
<clipPath id="clip0_451_35033">
<rect width="16" height="16" fill="white"/>
</clipPath>
</defs>
</svg>
