<svg width="194" height="24" viewBox="0 0 194 24" fill="none" xmlns="http://www.w3.org/2000/svg">
	<path fill-rule="evenodd" clip-rule="evenodd" d="M21.92 12V21.92H12C6.52133 21.92 2.08 17.4787 2.08 12C2.08 6.52133 6.52133 2.08 12 2.08C17.4787 2.08 21.92 6.52133 21.92 12ZM0 12C0 5.37258 5.37258 0 12 0C18.6274 0 24 5.37258 24 12V24H12C5.37258 24 0 18.6274 0 12ZM4.77056 12.4752C4.77056 14.9514 6.43264 17.0375 9.09536 17.0375C11.2832 17.0375 12.7587 15.5959 13.1149 13.7133H10.961C10.6896 14.5783 9.99424 15.104 9.09536 15.104C7.75552 15.104 6.8736 14.0525 6.8736 12.4752C6.8736 10.8979 7.75552 9.84642 9.09536 9.84642C9.96032 9.84642 10.6387 10.3383 10.927 11.1523H13.0979C12.7078 9.32066 11.2493 7.91298 9.09536 7.91298C6.43264 7.91298 4.77056 9.99906 4.77056 12.4752ZM16.0078 8.15042H13.9726V16.8H16.0926V12.2887C16.0926 11.4407 16.33 10.881 16.737 10.5418C17.0932 10.2195 17.5681 10.0499 18.3313 10.0499H18.874V8.04866H18.3482C17.2289 8.04866 16.4826 8.4557 16.0078 9.08322V8.15042Z" fill="currentColor"/>
	<path d="M33.82 18.78C30.68 18.78 28.72 16.32 28.72 13.4C28.72 10.48 30.68 8.02 33.82 8.02C36.36 8.02 38.08 9.68 38.54 11.84H35.98C35.64 10.88 34.84 10.3 33.82 10.3C32.24 10.3 31.2 11.54 31.2 13.4C31.2 15.26 32.24 16.5 33.82 16.5C34.88 16.5 35.7 15.88 36.02 14.86H38.56C38.14 17.08 36.4 18.78 33.82 18.78ZM44.4714 18.78C41.2914 18.78 39.3114 16.32 39.3114 13.4C39.3114 10.48 41.2914 8.02 44.4714 8.02C47.6514 8.02 49.6314 10.48 49.6314 13.4C49.6314 16.32 47.6514 18.78 44.4714 18.78ZM41.8114 13.4C41.8114 15.26 42.8914 16.5 44.4714 16.5C46.0314 16.5 47.1114 15.26 47.1114 13.4C47.1114 11.54 46.0314 10.3 44.4714 10.3C42.8914 10.3 41.8114 11.54 41.8114 13.4ZM57.2692 12.42C57.2692 11.64 57.0692 11.18 56.7292 10.82C56.4092 10.5 55.9292 10.3 55.3692 10.3C54.7692 10.3 54.2892 10.5 53.9692 10.82C53.6292 11.18 53.4292 11.64 53.4292 12.42V18.5H50.9292V8.3H53.3292V9.04C53.9492 8.42 54.8092 8.02 55.9092 8.02C57.1092 8.02 58.0692 8.46 58.7492 9.22C59.3892 9.9 59.7692 10.84 59.7692 12.28V18.5H57.2692V12.42ZM65.1919 18.64C63.9919 18.64 63.3519 18.34 62.9319 17.84C62.5719 17.42 62.3919 16.84 62.3919 15.82V10.46H60.2119V8.3H62.4519V5.1H64.8719V8.3H67.2719V10.46H64.8719V15.44C64.8719 16.06 64.9919 16.36 65.6519 16.36H67.2719V18.64H65.1919ZM72.5514 18.78C69.4514 18.78 67.5114 16.32 67.5114 13.4C67.5114 10.48 69.3914 8.02 72.4114 8.02C75.4314 8.02 77.3114 10.48 77.3114 13.4C77.3114 13.7 77.2914 13.98 77.2514 14.22H69.9714C70.1314 15.66 71.1114 16.6 72.5514 16.6C73.5714 16.6 74.3514 16.08 74.6914 15.22H77.1314C76.6114 17.26 74.9514 18.78 72.5514 18.78ZM69.9714 12.34H74.8514C74.6914 11.02 73.7514 10.12 72.4314 10.12C71.0914 10.12 70.1314 11.02 69.9714 12.34ZM84.9419 12.42C84.9419 11.64 84.7419 11.18 84.4019 10.82C84.0819 10.5 83.6019 10.3 83.0419 10.3C82.4419 10.3 81.9619 10.5 81.6419 10.82C81.3019 11.18 81.1019 11.64 81.1019 12.42V18.5H78.6019V8.3H81.0019V9.04C81.6219 8.42 82.4819 8.02 83.5819 8.02C84.7819 8.02 85.7419 8.46 86.4219 9.22C87.0619 9.9 87.4419 10.84 87.4419 12.28V18.5H84.9419V12.42ZM92.8645 18.64C91.6645 18.64 91.0245 18.34 90.6045 17.84C90.2445 17.42 90.0645 16.84 90.0645 15.82V10.46H87.8845V8.3H90.1245V5.1H92.5445V8.3H94.9445V10.46H92.5445V15.44C92.5445 16.06 92.6645 16.36 93.3245 16.36H94.9445V18.64H92.8645ZM104.547 18.78C101.407 18.78 99.4473 16.32 99.4473 13.4C99.4473 10.48 101.407 8.02 104.547 8.02C107.087 8.02 108.807 9.68 109.267 11.84H106.707C106.367 10.88 105.567 10.3 104.547 10.3C102.967 10.3 101.927 11.54 101.927 13.4C101.927 15.26 102.967 16.5 104.547 16.5C105.607 16.5 106.427 15.88 106.747 14.86H109.287C108.867 17.08 107.127 18.78 104.547 18.78ZM110.499 18.5V8.3H112.899V9.4C113.459 8.66 114.339 8.18 115.659 8.18H116.279V10.54H115.639C114.739 10.54 114.179 10.74 113.759 11.12C113.279 11.52 112.999 12.18 112.999 13.18V18.5H110.499ZM121.49 18.78C118.39 18.78 116.45 16.32 116.45 13.4C116.45 10.48 118.33 8.02 121.35 8.02C124.37 8.02 126.25 10.48 126.25 13.4C126.25 13.7 126.23 13.98 126.19 14.22H118.91C119.07 15.66 120.05 16.6 121.49 16.6C122.51 16.6 123.29 16.08 123.63 15.22H126.07C125.55 17.26 123.89 18.78 121.49 18.78ZM118.91 12.34H123.79C123.63 11.02 122.69 10.12 121.37 10.12C120.03 10.12 119.07 11.02 118.91 12.34ZM134.761 18.5V17.58C134.021 18.32 133.021 18.78 131.821 18.78C128.901 18.78 127.081 16.28 127.081 13.4C127.081 10.48 128.901 8.02 131.821 8.02C132.981 8.02 133.941 8.44 134.681 9.12V4.1H137.181V18.5H134.761ZM129.581 13.4C129.581 15.24 130.641 16.5 132.221 16.5C133.801 16.5 134.861 15.24 134.861 13.4C134.861 11.56 133.801 10.3 132.221 10.3C130.641 10.3 129.581 11.56 129.581 13.4ZM143.333 18.78C140.233 18.78 138.293 16.32 138.293 13.4C138.293 10.48 140.173 8.02 143.193 8.02C146.213 8.02 148.093 10.48 148.093 13.4C148.093 13.7 148.073 13.98 148.033 14.22H140.753C140.913 15.66 141.893 16.6 143.333 16.6C144.353 16.6 145.133 16.08 145.473 15.22H147.913C147.393 17.26 145.733 18.78 143.333 18.78ZM140.753 12.34H145.633C145.473 11.02 144.533 10.12 143.213 10.12C141.873 10.12 140.913 11.02 140.753 12.34ZM155.523 12.42C155.523 11.64 155.323 11.18 154.983 10.82C154.663 10.5 154.183 10.3 153.623 10.3C153.023 10.3 152.543 10.5 152.223 10.82C151.883 11.18 151.683 11.64 151.683 12.42V18.5H149.183V8.3H151.583V9.04C152.203 8.42 153.063 8.02 154.163 8.02C155.363 8.02 156.323 8.46 157.003 9.22C157.643 9.9 158.023 10.84 158.023 12.28V18.5H155.523V12.42ZM163.617 18.64C162.417 18.64 161.777 18.34 161.357 17.84C160.997 17.42 160.817 16.84 160.817 15.82V10.46H158.637V8.3H160.877V5.1H163.297V8.3H165.697V10.46H163.297V15.44C163.297 16.06 163.417 16.36 164.077 16.36H165.697V18.64H163.617ZM166.611 18.5V8.3H169.111V18.5H166.611ZM166.571 7.08V4.4H169.151V7.08H166.571ZM174.134 18.78C171.874 18.78 170.434 17.38 170.434 15.66C170.434 13.26 172.194 12.64 174.454 12.4L175.414 12.28C175.954 12.22 176.394 12.16 176.794 12.08V11.86C176.794 11.24 176.614 10.84 176.334 10.56C176.034 10.28 175.574 10.12 175.034 10.12C173.974 10.12 173.274 10.66 173.214 11.52H170.774C170.854 9.6 172.454 8.02 175.054 8.02C176.314 8.02 177.354 8.4 178.054 8.98C178.954 9.72 179.234 10.54 179.234 11.8V16.36C179.234 17.26 179.254 17.98 179.274 18.62V18.64H177.014L176.974 17.68C176.434 18.36 175.434 18.78 174.134 18.78ZM172.914 15.64C172.914 16.38 173.554 16.84 174.554 16.84C175.274 16.84 175.874 16.62 176.234 16.26C176.594 15.92 176.794 15.46 176.794 14.68V13.94C176.314 14.06 176.034 14.1 175.514 14.18L174.794 14.3C173.854 14.46 172.914 14.64 172.914 15.64ZM180.88 18.5V4.1H183.38V18.5H180.88ZM189.023 18.78C186.283 18.78 184.723 17.22 184.563 15.38H187.063C187.263 16.26 187.983 16.7 189.023 16.7C190.063 16.7 190.843 16.3 190.843 15.58C190.843 15.02 190.423 14.82 189.723 14.68L187.783 14.3C185.683 13.9 184.823 12.76 184.823 11.24C184.823 9.6 186.303 8.02 188.863 8.02C191.443 8.02 192.923 9.58 193.023 11.3H190.543C190.403 10.52 189.783 10.1 188.843 10.1C187.943 10.1 187.283 10.48 187.283 11.1C187.283 11.58 187.623 11.84 188.343 11.96L190.283 12.34C192.343 12.74 193.323 13.82 193.323 15.44C193.323 17.18 191.743 18.78 189.023 18.78Z" fill="currentColor"/>
</svg>
	