<svg width="14" height="14" viewBox="0 0 14 14" fill="none" xmlns="http://www.w3.org/2000/svg">
<path d="M7 0C5.61553 0 4.26215 0.410543 3.11101 1.17971C1.95987 1.94888 1.06266 3.04213 0.532846 4.32122C0.00303299 5.6003 -0.13559 7.00776 0.134506 8.36563C0.404603 9.7235 1.07129 10.9708 2.05026 11.9497C3.02922 12.9287 4.2765 13.5954 5.63437 13.8655C6.99224 14.1356 8.3997 13.997 9.67879 13.4672C10.9579 12.9373 12.0511 12.0401 12.8203 10.889C13.5895 9.73785 14 8.38447 14 7C14 5.14348 13.2625 3.36301 11.9497 2.05025C10.637 0.737498 8.85652 0 7 0V0ZM12.6614 6.58823H10.3674C10.343 5.75417 10.2252 4.92547 10.0162 4.11765H11.8885C12.3345 4.86998 12.5991 5.71586 12.6614 6.58823ZM11.298 3.29412H9.75883C9.54616 2.69545 9.24044 2.13405 8.85294 1.63059C9.79993 1.9607 10.6433 2.53446 11.298 3.29412ZM6.58824 7.41176V9.88235H4.83083C4.60516 9.07728 4.47918 8.24754 4.45571 7.41176H6.58824ZM4.45571 6.58823C4.47918 5.75246 4.60516 4.92272 4.83083 4.11765H6.58824V6.58823H4.45571ZM7.41177 7.41176H9.5443C9.52083 8.24754 9.39485 9.07728 9.16918 9.88235H7.41177V7.41176ZM7.41177 6.58823V4.11765H9.16918C9.39485 4.92272 9.52083 5.75246 9.5443 6.58823H7.41177ZM8.88094 3.29412H7.41177V1.49018C8.10898 1.88764 8.63285 2.53088 8.88094 3.29412ZM6.58824 1.49018V3.29412H5.11906C5.36715 2.53088 5.89103 1.88764 6.58824 1.49018ZM5.14706 1.63059C4.76029 2.13419 4.45527 2.69558 4.24324 3.29412H2.702C3.35675 2.53446 4.20007 1.9607 5.14706 1.63059ZM2.11153 4.11765H3.98383C3.77481 4.92547 3.657 5.75417 3.63259 6.58823H1.33865C1.40093 5.71586 1.66555 4.86998 2.11153 4.11765ZM1.33865 7.41176H3.63259C3.657 8.24583 3.77481 9.07453 3.98383 9.88235H2.11153C1.66555 9.13001 1.40093 8.28414 1.33865 7.41176ZM2.702 10.7059H4.24324C4.45527 11.3044 4.76029 11.8658 5.14706 12.3694C4.20007 12.0393 3.35675 11.4655 2.702 10.7059ZM5.11906 10.7059H6.58824V12.5098C5.89103 12.1124 5.36715 11.4691 5.11906 10.7059ZM7.41177 12.5098V10.7059H8.88094C8.63285 11.4691 8.10898 12.1124 7.41177 12.5098ZM8.85294 12.3694C9.24044 11.8659 9.54616 11.3045 9.75883 10.7059H11.3001C10.6447 11.4658 9.80068 12.0396 8.85294 12.3694ZM11.8885 9.88235H10.0162C10.2252 9.07453 10.343 8.24583 10.3674 7.41176H12.6614C12.5991 8.28414 12.3345 9.13001 11.8885 9.88235Z" fill="#222222"/>
</svg>
