<svg width="240" height="234" viewBox="0 0 240 234" fill="none" xmlns="http://www.w3.org/2000/svg">
<g clip-path="url(#clip0_1_2)">
<path d="M197.5 0H42.5C19.0279 0 0 19.0279 0 42.5V191.5C0 214.972 19.0279 234 42.5 234H197.5C220.972 234 240 214.972 240 191.5V42.5C240 19.0279 220.972 0 197.5 0Z" fill="#EB1000"/>
<path d="M165.86 68.02L175.67 70.22C179.52 71.09 182.2 66.47 179.52 63.57L172.71 56.2C171.81 55.23 171.45 53.88 171.74 52.59L173.95 42.81C174.82 38.97 170.19 36.3 167.28 38.97L159.89 45.77C158.91 46.66 157.57 47.02 156.27 46.74L146.46 44.54C142.61 43.67 139.93 48.29 142.61 51.19L149.42 58.56C150.32 59.53 150.68 60.88 150.39 62.17L148.18 71.95C147.31 75.79 151.94 78.46 154.85 75.79L162.24 68.99C163.22 68.1 164.56 67.74 165.86 68.02Z" fill="white"/>
<path d="M92.01 164.01C92.01 164.95 91.57 165.39 90.63 165.39H70.74C69.96 165.39 69.65 164.84 69.65 163.99V61.2C69.65 60.28 69.94 59.95 70.88 59.95H134.61C135.69 59.95 135.97 60.26 136.14 61.31L137.93 78.66C138.09 79.62 137.62 80.04 136.57 80.04H92.01V104.51H132.15C133.08 104.51 133.52 104.8 133.52 105.77V123.33C133.52 124.28 133.05 124.6 132.25 124.6H92.02V164.01H92.01Z" fill="white"/>
<path d="M149.83 86.72C149.83 85.8 150.25 85.38 151.18 85.38H170.96C171.99 85.38 172.31 85.66 172.31 86.7V163.89C172.31 164.93 172.02 165.37 170.85 165.37H151.45C150.37 165.37 149.83 164.91 149.83 163.85V86.7V86.72Z" fill="white"/>
</g>
<defs>
<clipPath id="clip0_1_2">
<rect width="240" height="234" fill="white"/>
</clipPath>
</defs>
</svg>
