<svg width="16" height="16" viewBox="0 0 16 16" fill="none" xmlns="http://www.w3.org/2000/svg">
<path d="M11.6552 3.12634L8 6.78196L4.34481 3.12634C4.17659 2.95817 3.9039 2.95817 3.73568 3.12634L3.12613 3.73547C2.95796 3.90369 2.95796 4.17638 3.12613 4.3446L6.78175 8.00022L3.12613 11.6554C2.95796 11.8236 2.95796 12.0963 3.12613 12.2645L3.73525 12.8741C3.90347 13.0423 4.17616 13.0423 4.34438 12.8741L8 9.21847L11.6552 12.8741C11.8234 13.0423 12.0961 13.0423 12.2643 12.8741L12.8739 12.265C13.042 12.0967 13.042 11.8241 12.8739 11.6558L9.21825 8.00022L12.8739 4.34503C13.042 4.17681 13.042 3.90412 12.8739 3.7359L12.2647 3.12634C12.184 3.04551 12.0745 3.00006 11.9602 3C11.846 2.99994 11.7364 3.04526 11.6555 3.12601L11.6552 3.12634Z" fill="#222222"/>
</svg>
