<svg width="16" height="16" viewBox="0 0 16 16" fill="none" xmlns="http://www.w3.org/2000/svg">
<g clip-path="url(#clip0_300_33604)">
<path d="M8.95557 5.33335C8.95557 5.52234 8.89953 5.70709 8.79453 5.86423C8.68954 6.02137 8.5403 6.14384 8.36569 6.21617C8.19109 6.28849 7.99896 6.30741 7.8136 6.27054C7.62824 6.23367 7.45797 6.14266 7.32434 6.00903C7.1907 5.87539 7.09969 5.70513 7.06282 5.51977C7.02595 5.33441 7.04487 5.14228 7.1172 4.96767C7.18952 4.79307 7.312 4.64383 7.46914 4.53883C7.62628 4.43383 7.81103 4.37779 8.00002 4.37779C8.25345 4.37779 8.4965 4.47847 8.6757 4.65767C8.8549 4.83687 8.95557 5.07992 8.95557 5.33335ZM9.03711 10.6667H8.88891V7.2889C8.88889 7.24176 8.87016 7.19655 8.83682 7.16321C8.80348 7.12987 8.75827 7.11114 8.71113 7.11112H6.9629C6.9629 7.11112 6.44446 7.12545 6.44446 7.55557C6.44446 7.98548 6.96291 8.00001 6.96291 8.00001H7.11113V10.6667H6.96291C6.96291 10.6667 6.44446 10.681 6.44446 11.1111C6.44446 11.541 6.96291 11.5556 6.96291 11.5556H9.03713C9.03713 11.5556 9.55557 11.541 9.55557 11.1111C9.55557 10.681 9.03711 10.6667 9.03711 10.6667ZM8.00002 0.444458C6.50567 0.444458 5.04488 0.887584 3.80238 1.7178C2.55987 2.54801 1.59146 3.72803 1.01959 5.10863C0.447732 6.48922 0.298107 8.0084 0.589639 9.47403C0.881172 10.9397 1.60077 12.2859 2.65743 13.3426C3.7141 14.3993 5.06037 15.1189 6.526 15.4104C7.99164 15.7019 9.51081 15.5523 10.8914 14.9804C12.272 14.4086 13.452 13.4402 14.2822 12.1977C15.1124 10.9552 15.5556 9.49436 15.5556 8.00001C15.5556 5.99616 14.7595 4.07437 13.3426 2.65743C11.9257 1.24049 10.0039 0.444458 8.00002 0.444458ZM8.00002 13.9332C6.82655 13.9332 5.67943 13.5852 4.70373 12.9332C3.72803 12.2813 2.96757 11.3547 2.51851 10.2705C2.06944 9.18636 1.95195 7.9934 2.18089 6.84248C2.40982 5.69156 2.97491 4.63438 3.80468 3.80461C4.63445 2.97485 5.69164 2.40977 6.84256 2.18084C7.99348 1.95191 9.18644 2.06941 10.2706 2.51848C11.3547 2.96755 12.2814 3.72802 12.9333 4.70372C13.5852 5.67943 13.9332 6.82655 13.9332 8.00001C13.9332 8.77917 13.7797 9.5507 13.4816 10.2705C13.1834 10.9904 12.7464 11.6445 12.1954 12.1954C11.6445 12.7463 10.9904 13.1834 10.2705 13.4815C9.5507 13.7797 8.77917 13.9332 8.00002 13.9332Z" fill="#222222"/>
</g>
<defs>
<clipPath id="clip0_300_33604">
<rect width="16" height="16" fill="white"/>
</clipPath>
</defs>
</svg>
