<svg width="24" height="24" viewBox="0 0 24 24" fill="none" xmlns="http://www.w3.org/2000/svg">
<path fill-rule="evenodd" clip-rule="evenodd" d="M2 12C2 6.48721 6.48721 2 12 2C17.5114 2 22 6.48739 22 12V22H12C6.48721 22 2 17.5128 2 12ZM12 0C18.6158 0 24 5.38264 24 12V24H12C5.38264 24 0 18.6174 0 12C0 5.38264 5.38264 0 12 0ZM18.7032 8.08344V8.0795L18.5141 8.06922C18.365 8.06112 18.2362 8.05783 18.1276 8.05783C17.5812 8.05783 17.0886 8.20325 16.6529 8.496C16.4046 8.66289 16.1988 8.8649 16.0357 9.10081V8.1878H14.0047V17.2546H16.0912V11.7623C16.0912 11.4201 16.173 11.1209 16.3327 10.8603C16.4945 10.5963 16.7138 10.3893 16.994 10.2377C17.2722 10.0887 17.5924 10.0111 17.9627 10.0111C18.127 10.0111 18.2904 10.023 18.4545 10.0456C18.6294 10.0713 18.7366 10.0902 18.7902 10.1052L19.044 10.176V8.12416L18.8707 8.10083C18.8231 8.09442 18.767 8.08864 18.7032 8.08344ZM7.37891 11.3157C7.22842 11.7139 7.15018 12.1821 7.15018 12.7228C7.15018 13.3204 7.24258 13.8535 7.4229 14.2807C7.60259 14.7114 7.85251 15.0353 8.16979 15.2626C8.48436 15.4879 8.85794 15.604 9.29756 15.604C9.59276 15.604 9.85409 15.5501 10.0865 15.4444C10.3202 15.3382 10.5154 15.1877 10.6746 14.9905C10.8324 14.795 10.9455 14.5574 11.0109 14.2698L11.0462 14.1141H13.0706L13.0468 14.3354C12.9832 14.928 12.7899 15.4593 12.4657 15.9287C12.1407 16.3993 11.7064 16.7666 11.1676 17.0326C10.6249 17.3006 9.99759 17.4321 9.28805 17.4321C8.41856 17.4321 7.6588 17.2345 7.01761 16.8289C6.38041 16.4259 5.89303 15.8688 5.55276 15.1634C5.21451 14.4587 5.04789 13.6577 5.04789 12.7624C5.04789 11.8672 5.21749 11.0484 5.56444 10.3412C5.911 9.63481 6.4013 9.0781 7.03675 8.67677C7.67544 8.27338 8.42214 8.07527 9.27061 8.07527C9.95338 8.07527 10.5712 8.20205 11.1167 8.45886C11.6604 8.71481 12.1042 9.07498 12.4437 9.54109C12.785 10.0082 12.985 10.5529 13.0485 11.1679L13.0712 11.3885H11.0471L11.0123 11.232C10.9313 10.8682 10.7474 10.5538 10.4546 10.287C10.1777 10.0347 9.80015 9.89859 9.30073 9.89859C8.86711 9.89859 8.49738 10.0117 8.18209 10.2319C7.86509 10.4532 7.61277 10.7719 7.4303 11.1962L7.37891 11.3157Z" fill="#222222"/>
</svg>
