<svg version="1.1" id="Ebene_1" xmlns="http://www.w3.org/2000/svg" xmlns:xlink="http://www.w3.org/1999/xlink" x="0px" y="0px"
	 width="34.02px" height="34.02px" viewBox="0 0 34.02 34.02" enable-background="new 0 0 34.02 34.02" xml:space="preserve">
<g>
	<path fill="#F0141C" d="M17.01,31.184c7.827,0,14.173-6.347,14.173-14.169c0-7.832-6.346-14.179-14.173-14.179
		c-7.829,0-14.173,6.347-14.173,14.179C2.837,24.837,9.181,31.184,17.01,31.184L17.01,31.184z"/>
	<path fill="none" stroke="#F0141C" stroke-width="0.5" stroke-miterlimit="3.8637" d="M17.01,31.184
		c7.827,0,14.173-6.347,14.173-14.169c0-7.832-6.346-14.179-14.173-14.179c-7.829,0-14.173,6.347-14.173,14.179
		C2.837,24.837,9.181,31.184,17.01,31.184L17.01,31.184z"/>
	<path fill="#FFFFFF" d="M28.278,17.817c0,0-0.369,0.265-0.631,0.265c-0.199,0-0.309-0.166-0.309-0.348
		c0-0.41,0.643-2.43,0.643-2.43l-1.57,0.021l-0.082,0.274c0,0-0.229-0.463-1.053-0.463c-1.599,0-2.475,1.378-2.513,2.188
		c-0.007,0.176-0.009,0.201-0.009,0.201c-0.037,0.043-0.602,0.686-1.295,0.686c-0.555,0-0.646-0.465-0.646-0.762
		c0-0.322,0.268-1.595,1.023-1.595c0.412,0,0.664,0.356,0.664,0.356l0.222-0.728c0,0-0.351-0.274-1.067-0.276
		c-1.545-0.002-2.601,1.159-2.638,2.203c-0.007,0.156-0.013,0.207-0.011,0.216c-0.051,0.063-0.432,0.501-0.926,0.501
		c-0.338,0-0.338-0.263-0.338-0.381c0-0.158,0.668-2.432,0.668-2.432l-1.746,0.026l-0.623,2.207c0,0-0.957,0.694-2.295,0.79
		c-0.69,0.047-0.928-0.372-0.928-0.619c0-0.101,0-0.101,0-0.101s0.281,0.018,0.492,0.018c0.164,0,2.203-0.141,2.203-1.389
		c0-0.713-0.712-0.984-1.615-0.984c-1.666,0-2.834,1.033-2.834,2.26c0,1.119,0.957,1.599,2.19,1.599
		c1.398,0,2.763-0.854,2.763-0.854s0.076,0.854,1.18,0.854c1.139,0,2.031-0.854,2.031-0.854s0.496,0.823,1.63,0.823
		c1.157,0,2.047-0.937,2.047-0.937s0.31,0.884,1.457,0.884c0.896,0,1.377-0.589,1.377-0.589s0.256,0.589,1.037,0.589
		c0.952,0,1.668-0.673,1.668-0.673L28.278,17.817L28.278,17.817z M13.971,15.77c0.235,0.013,0.393,0.182,0.385,0.353
		c-0.039,1.11-1.406,0.938-1.406,0.938S13.173,15.721,13.971,15.77L13.971,15.77z M24.952,18.211c-0.43,0-0.43-0.473-0.43-0.609
		c0-0.361,0.282-1.796,1.063-1.796c0.328,0,0.504,0.278,0.504,0.484C26.089,16.332,25.891,18.211,24.952,18.211L24.952,18.211z"/>
	<path fill="#FFFFFF" d="M28.593,19.31c0,0-3.668,1.279-10.669,1.192c-4.828-0.058-8.509-1.484-8.509-1.484s0.119-0.232,0.197-0.389
		c0.484-0.986,1.055-2.989,1.055-2.989s3.318-0.926,3.318-3.561c0-0.834-0.775-1.371-1.541-1.404
		c-2.674-0.103-3.416,3.707-3.58,4.355c-0.01,0.047-0.014,0.06-0.014,0.06c-0.826-0.112-1.291-0.281-1.291-0.281L7.37,15.323
		c0.557,0.265,1.367,0.351,1.367,0.351c-0.16,1.021-0.953,2.955-0.953,2.955s-0.732-0.242-1.641-0.242
		c-1.179,0-1.584,0.562-1.613,0.912c-0.078,0.911,1.066,1.338,1.865,1.338c1.559,0,2.369-0.842,2.369-0.842s4.385,1.656,8.959,1.656
		c5.987,0,11.035-1.594,11.035-1.594L28.593,19.31L28.593,19.31z M12.571,11.431c0.514,0,0.684,0.418,0.641,0.793
		c-0.25,2.199-2.436,2.704-2.436,2.704S11.319,11.431,12.571,11.431L12.571,11.431z M6.059,19.929
		c-0.441,0.013-0.728-0.279-0.728-0.444c0-0.364,0.445-0.42,0.728-0.399c0.684,0.035,1.272,0.27,1.272,0.27
		S6.637,19.91,6.059,19.929L6.059,19.929z"/>
	<path fill="#FFFFFF" d="M17.883,13.244c-0.556,0-0.966,0.227-0.966,0.748c0,0.527,0.474,0.671,0.966,0.671
		c0.495,0,0.946-0.232,0.946-0.769C18.829,13.354,18.286,13.244,17.883,13.244L17.883,13.244z"/>
</g>
</svg>
