<svg width="16" height="16" viewBox="0 0 16 16" fill="none" xmlns="http://www.w3.org/2000/svg">
<g id="Claim Generator/Lightroom" clip-path="url(#clip0_69_30972)">
<g id="Group 2">
<path id="Fill 10" fill-rule="evenodd" clip-rule="evenodd" d="M13.2104 16H2.78953C1.24892 16 0 14.7511 0 13.2105V2.78955C0 1.24892 1.24892 0 2.78953 0H13.2104C14.7511 0 16 1.24892 16 2.78955V13.2105C16 14.7511 14.7511 16 13.2104 16Z" fill="#071E34"/>
</g>
<path id="Lr" fill-rule="evenodd" clip-rule="evenodd" d="M8.11459 11.5771C8.10743 11.6368 8.07161 11.6667 8.00715 11.6667H3.77409C3.70247 11.6667 3.66666 11.6256 3.66666 11.5435V4.44529C3.66666 4.37065 3.69531 4.33333 3.75261 4.33333H5.08484C5.13498 4.33333 5.16004 4.36318 5.16004 4.4229V10.256H8.23277C8.29723 10.256 8.3223 10.2896 8.30798 10.3567L8.11459 11.5771ZM10.6036 11.5771C10.6036 11.6368 10.5713 11.6667 10.5069 11.6667H9.21762C9.146 11.6667 9.11018 11.6331 9.11018 11.5659V7.7033C9.11018 7.46446 9.1066 7.19949 9.09944 6.90839C9.09228 6.6173 9.07795 6.37472 9.05646 6.18066C9.05646 6.12841 9.07795 6.10228 9.12093 6.10228H10.292C10.3565 6.10228 10.3994 6.13587 10.4209 6.20305C10.4496 6.27769 10.4746 6.36912 10.4961 6.47735C10.5176 6.58558 10.5319 6.70313 10.5391 6.83002C10.7182 6.61357 10.951 6.4195 11.2375 6.24783C11.524 6.07616 11.8606 5.99033 12.2474 5.99033C12.3047 5.99033 12.3333 6.02018 12.3333 6.07989V7.45699C12.3333 7.50924 12.3011 7.53536 12.2366 7.53536C11.8499 7.52044 11.5114 7.56335 11.2213 7.66412C10.9313 7.76488 10.7289 7.88244 10.6143 8.01679L10.6036 11.5771Z" fill="#54A7F7"/>
</g>
<defs>
<clipPath id="clip0_69_30972">
<rect width="16" height="16" fill="white"/>
</clipPath>
</defs>
</svg>
