<svg xmlns="http://www.w3.org/2000/svg" viewBox="0 0 25 25"><defs><clipPath id="a"><path fill="none" d="M0 0h25v25H0z"/></clipPath><clipPath id="b"><path d="M20.64 25H4.36A4.36 4.36 0 010 20.64V4.36A4.36 4.36 0 014.36 0h16.28A4.36 4.36 0 0125 4.36v16.28A4.36 4.36 0 0120.64 25" fill="none" clip-path="url(#a)" clip-rule="evenodd"/></clipPath><clipPath id="c"><path d="M17.88 9.54a5.32 5.32 0 011.05.15 2.78 2.78 0 01.51.17.11.11 0 01.08.09.39.39 0 010 .15v1.58c0 .14-.08.19-.21.13a4.12 4.12 0 00-.69-.27 5.74 5.74 0 00-1.65-.2 1.71 1.71 0 00-.51.1.46.46 0 00-.2.76 1.36 1.36 0 00.35.24 9.07 9.07 0 001 .44 5.85 5.85 0 011.43.73 2.1 2.1 0 01.69.76 2.19 2.19 0 01.24 1.1 2.3 2.3 0 01-.24 1 2.43 2.43 0 01-.71.85 3.52 3.52 0 01-1.44.59 5.67 5.67 0 01-1.54.07 6.81 6.81 0 01-1.19-.16 5.25 5.25 0 01-.79-.27.22.22 0 01-.14-.22V15.6c0-.12.06-.16.16-.1a5 5 0 001.88.6 3.56 3.56 0 001 0 1.59 1.59 0 00.44-.12.46.46 0 00.07-.81 3.36 3.36 0 00-.91-.45 10 10 0 01-1-.42 5 5 0 01-.9-.6 2.16 2.16 0 01-.66-1.39 2.28 2.28 0 01.21-1.26 2.22 2.22 0 01.46-.64 3 3 0 011.63-.81 6.67 6.67 0 011.61-.06zM8.48 7a6 6 0 012 .31 3.31 3.31 0 012.4 2.9 4.54 4.54 0 01-.12 1.56 3.19 3.19 0 01-1.14 1.7 3.92 3.92 0 01-1.5.71 7.5 7.5 0 01-1.26.18H7.41c-.1 0-.11 0-.12.06v3.18c0 .14 0 .18-.18.18H5.2c-.18 0-.2 0-.2-.19V7.16C5 7.08 5 7 5.13 7h3.35zM7.34 9c-.06 0-.08 0-.08.08v3.34c0 .04.1 0 .15 0A7.24 7.24 0 009 12.37a2.37 2.37 0 001-.37 1.38 1.38 0 00.5-.65 2 2 0 00.09-.9 1.42 1.42 0 00-.7-1.11A2.49 2.49 0 008.63 9a11.11 11.11 0 00-1.29 0z" fill="none" clip-path="url(#a)" clip-rule="evenodd"/></clipPath></defs><g clip-path="url(#b)"><path fill="#001d32" d="M-5-5h35v35H-5z"/></g><g clip-path="url(#c)"><path fill="#52a6f7" d="M0 2h25v21H0z"/></g></svg>