<?xml version="1.0" encoding="UTF-8"?>
<svg width="24px" height="24px" viewBox="0 0 24 24" version="1.1" xmlns="http://www.w3.org/2000/svg" xmlns:xlink="http://www.w3.org/1999/xlink">
    <title>connected accounts/social networks/pinterest</title>
    <g id="connected-accounts/social-networks/pinterest" stroke="none" stroke-width="1" fill="none" fill-rule="evenodd">
        <g id="Fill-17" fill="#BD081C">
            <path d="M7.59894176,23.1250837 C2.27008524,21.1253099 -1.48208987,14.9180013 0.570162616,8.36660739 C2.60984704,1.85531702 9.77427636,-1.62945345 16.1466529,0.749476272 C22.5989983,3.15823201 25.7492854,10.4472769 23.007964,16.7263693 C20.1935675,23.1728689 13.3150217,25.0710328 8.55066722,23.4541765 C8.98736746,22.5005914 9.49130946,21.5662371 9.84613172,20.5784819 C10.1990979,19.5961304 10.402202,18.5600603 10.674722,17.533579 C11.8404226,19.0486667 13.8252213,19.0848499 15.4045542,18.4921439 C16.5737017,18.0533888 17.503685,17.2948119 18.2009735,16.2681717 C19.5100137,14.3407645 19.9673955,12.1994894 19.4991956,9.93536068 C18.9686857,7.36995212 17.3277322,5.67728575 14.8660898,4.87542671 C12.3312133,4.04967506 9.83982117,4.29781907 7.55323009,5.70817131 C5.57065874,6.93098515 4.56182021,8.79370752 4.35282985,11.0985225 C4.22481596,12.510623 4.5575248,13.8128492 5.30900981,15.0094395 C5.65715031,15.5637373 6.09994897,16.0267028 6.69133708,16.3285654 C7.00596276,16.4891915 7.11133294,16.4405587 7.19904419,16.0994401 C7.30001289,15.706775 7.40776941,15.3150105 7.48429138,14.9174185 C7.50990476,14.7841815 7.49558672,14.5996628 7.42001929,14.4970995 C6.19344048,12.8332526 6.28231839,10.4834072 7.44499631,8.80769343 C8.37317655,7.46991961 9.67770913,6.76702151 11.2848296,6.59394583 C12.186548,6.49683909 13.0705545,6.5740265 13.9170688,6.90285439 C15.7332327,7.60829539 16.7218139,8.96858441 16.9111302,10.8800456 C17.0397804,12.1794641 16.8503581,13.4539304 16.2846364,14.6483486 C15.8406711,15.5858287 15.2078137,16.3488556 14.2031115,16.727058 C13.6713288,16.9272579 13.1245918,16.9954922 12.5687336,16.8173307 C11.6996816,16.5388839 11.192929,15.7096358 11.4116769,14.8259274 C11.6401822,13.9027511 11.9344975,12.9960507 12.1863359,12.0783841 C12.3310542,11.5511045 12.4563105,11.0187922 12.3861521,10.4615277 C12.2413278,9.3114512 11.2172697,8.73341975 10.1620831,9.22308566 C9.39336346,9.5798324 9.01573839,10.247183 8.81852064,11.0276923 C8.60512881,11.8720918 8.69061281,12.705949 8.95942077,13.5298464 C9.01054147,13.6864463 9.02634435,13.8770043 8.98980683,14.0362 C8.54409153,15.9776462 8.07477798,17.9136886 7.63500201,19.8564591 C7.42219351,20.7963761 7.49012465,21.752504 7.56701784,22.7043408 C7.57757076,22.8350879 7.586904,22.9659939 7.59894176,23.1250837" id="Fill-9"></path>
        </g>
    </g>
</svg>