<svg width="16" height="16" viewBox="0 0 16 16" fill="none" xmlns="http://www.w3.org/2000/svg">
<path d="M14.644 15.1111C14.7611 15.1121 14.8737 15.0666 14.9572 14.9846C15.0407 14.9026 15.0882 14.7908 15.0892 14.6737C15.0893 14.6635 15.0891 14.6533 15.0885 14.6431C14.7947 11.4502 11.5209 10.3627 10.5205 10.2756C9.78934 10.212 9.77779 9.62311 9.77779 8.88889C10.7235 7.76984 11.2751 6.3709 11.3476 4.90755C11.3476 2.49644 9.97556 0.888885 8.00001 0.888885C6.02445 0.888885 4.65245 2.49644 4.65245 4.90755C4.72494 6.3709 5.27652 7.76984 6.22223 8.88889C6.22223 9.62311 6.21068 10.212 5.47823 10.2756C4.47779 10.3644 1.20401 11.4502 0.910232 14.6431C0.906727 14.701 0.91465 14.7589 0.933551 14.8137C0.952451 14.8685 0.981959 14.919 1.02039 14.9624C1.05882 15.0058 1.10541 15.0412 1.15752 15.0666C1.20963 15.0919 1.26622 15.1068 1.32407 15.1103C1.33426 15.1109 1.34446 15.1112 1.35468 15.1111H14.644Z" fill="#222222"/>
</svg>
