<svg xmlns="http://www.w3.org/2000/svg" viewBox="0 0 14 14"><defs><mask id="a" x="0" y="1.28" width="12.18" height="10.66" maskUnits="userSpaceOnUse"><path fill="#fff" fill-rule="evenodd" d="M0 1.28h12.18v10.66H0V1.28z"/></mask></defs><path d="M6.36 10.6a2.82 2.82 0 01-1.15-.24.52.52 0 01-.28-.67.53.53 0 01.68-.27 1.93 1.93 0 10-1.18-1.78.52.52 0 11-1 0 3 3 0 113 3" fill="#09a8eb" fill-rule="evenodd"/><g mask="url(#a)"><path d="M1.9 11.94a.51.51 0 01-.39-.18A6.36 6.36 0 1112.14 5a.52.52 0 01-.94.43 5.33 5.33 0 10-8.9 5.67.53.53 0 01-.06.73.54.54 0 01-.34.12" fill="#09a8eb" fill-rule="evenodd"/></g><path d="M6.36 14A6.36 6.36 0 013 13.05a.51.51 0 01-.17-.71.52.52 0 01.71-.17 5.24 5.24 0 002.81.8 5.33 5.33 0 005.33-5.33v-.59a.51.51 0 01.45-.56.52.52 0 01.57.45v.7A6.37 6.37 0 016.36 14" fill="#0983c8" fill-rule="evenodd"/><path d="M8.09 11.81a.51.51 0 01-.47-.29.51.51 0 01.25-.68 3.57 3.57 0 001.62-1.57.51.51 0 11.91.48 4.57 4.57 0 01-2.09 2 .44.44 0 01-.22.05" fill="#09ccfe" fill-rule="evenodd"/><path d="M10.4 8.16a.51.51 0 01-.51-.52 3.54 3.54 0 00-5.35-3 .51.51 0 01-.7-.17.52.52 0 01.16-.74 4.62 4.62 0 012.35-.65 4.57 4.57 0 014.56 4.56.52.52 0 01-.52.52" fill="#0983c8" fill-rule="evenodd"/><path d="M6.36 12.2A4.56 4.56 0 011.8 7.64a4.49 4.49 0 01.74-2.49.51.51 0 11.86.56 3.49 3.49 0 00-.57 1.93 3.53 3.53 0 003.53 3.53.52.52 0 010 1M12.46 1a.51.51 0 00-.51.51.52.52 0 00.51.52.53.53 0 00.54-.49.52.52 0 00-.54-.54m0 2.05A1.54 1.54 0 1114 1.54a1.54 1.54 0 01-1.54 1.54" fill="#09ccfe" fill-rule="evenodd"/></svg>