<svg width="16" height="16" viewBox="0 0 16 16" fill="none" xmlns="http://www.w3.org/2000/svg">
    <g id="Signers/Truepic" clip-path="url(#clip0_69_30831)">
    <path id="NEW" fill-rule="evenodd" clip-rule="evenodd" d="M11.0076 1.48019C11.0202 1.49449 11.031 1.49735 11.0385 1.47618L11.2318 1.14742L11.425 0.818633C11.4473 0.78258 11.4456 0.77514 11.4113 0.759689C6.07076 -1.75661 -0.165898 2.29854 0.00337159 8.21188C0.000753819 8.21625 0.00279623 8.22028 0.00492751 8.22449L0.00680273 8.22848C0.029677 9.34041 0.299593 10.4432 0.767371 11.4521C0.917058 11.3839 1.05617 11.3012 1.1955 11.2184L1.19554 11.2183C1.28987 11.1623 1.38431 11.1061 1.48219 11.0544C-1.33992 5.00999 4.94935 -1.31939 11.0076 1.48019ZM12.4021 1.67449L12.5333 1.4354C18.2941 5.30399 16.5357 14.3179 9.76492 15.8385C9.39379 15.9169 9.02151 15.9821 8.64065 15.9999V15.1981C8.68319 15.1799 8.72933 15.1784 8.77573 15.1768H8.77574C8.80544 15.1758 8.83523 15.1748 8.86425 15.1695L8.89398 15.1678C12.1112 14.8313 14.8127 12.0969 15.1558 8.88645L15.1565 8.87604V8.87603C15.157 8.86943 15.1575 8.8629 15.1575 8.85612C15.2284 8.29757 15.2044 7.73388 15.1564 7.14043C14.9151 5.13517 13.8102 3.2787 12.1564 2.12271C12.2385 1.97247 12.3199 1.82416 12.4014 1.67575L12.4021 1.67449ZM14.0258 8.72392H14.0258L14.0258 8.72335V8.72392ZM14.0258 8.72392C13.8122 11.6148 11.1292 14.045 8.24893 14.1045C2.24673 14.2744 -0.384377 6.6952 4.41921 3.08928L4.80922 3.8115C0.773059 6.88634 3.03017 13.3823 8.09224 13.2964H8.12141C8.19632 13.2964 8.27066 13.2947 8.345 13.2913C8.337 13.2901 8.32843 13.2901 8.31986 13.2901L8.47939 13.2798C8.47653 13.2815 8.4731 13.2827 8.46967 13.2838C10.4471 13.1413 12.2685 11.7421 12.9439 9.87363C13.152 9.32252 13.1863 9.18174 13.2464 8.71877L14.0258 8.72392ZM8.16487 3.85213C7.97901 3.84411 7.81318 3.85213 7.76686 3.85442C5.58923 3.95857 3.73413 5.9438 3.84335 8.1402C3.8668 9.34484 4.4764 10.4986 5.39308 11.2677C5.44554 11.1708 5.50407 11.0771 5.56211 10.9842C5.65212 10.8402 5.74097 10.6979 5.80425 10.5483C4.99965 9.85589 4.55131 8.7657 4.66111 7.71214C4.97792 4.34944 9.52703 3.51677 11.0287 6.53267C12.1261 8.776 10.426 11.286 8.18088 11.3879C8.19003 11.3856 8.19918 11.3821 8.20833 11.3764L8.19823 11.3775L8.19812 11.3775L8.19808 11.3775L8.19807 11.3775C8.16269 11.3811 8.1277 11.3847 8.09224 11.3879C8.10539 11.3879 8.11798 11.3884 8.13113 11.3896C7.74513 11.401 7.34368 11.3415 6.93766 11.1967C6.92394 11.1859 6.91307 11.1841 6.9085 11.2047C6.86051 11.2947 6.807 11.3819 6.75354 11.4689L6.75353 11.469C6.66619 11.6112 6.57899 11.7532 6.51621 11.9069C6.98742 12.0912 7.4775 12.1719 7.97787 12.1868H8.00818C13.4185 11.9825 13.5775 4.26073 8.16487 3.84984V3.85213ZM5.77966 8.2558C6.17824 11.1378 10.3871 10.7652 10.2396 7.84204C9.91818 4.86334 5.55092 5.26966 5.77966 8.2558ZM9.42467 7.80542C9.63968 9.87992 6.57168 10.0264 6.56596 7.94334C6.68319 6.23681 9.15304 6.10862 9.42467 7.80542ZM14.0533 7.4403C13.856 4.48678 11.2249 2.02656 8.27981 1.93614C8.2699 1.93614 8.25998 1.93563 8.25007 1.93513L8.23521 1.93443C8.08309 1.92584 7.93098 1.92584 7.77886 1.93385C7.77121 1.93415 7.76356 1.93459 7.75598 1.93504L7.75597 1.93504L7.73483 1.93614C7.47292 1.95217 7.20987 1.96991 6.95139 2.02141C6.47446 2.11813 5.99182 2.24002 5.5532 2.45463C5.61751 2.55568 5.68601 2.676 5.75338 2.79433L5.75338 2.79433L5.75339 2.79434C5.82679 2.92327 5.89884 3.04983 5.96265 3.14651C6.52479 2.90329 7.1401 2.77338 7.75313 2.74134C7.76571 2.75049 7.77772 2.74992 7.78973 2.73962C7.98816 2.73046 8.18545 2.73161 8.38103 2.74248L8.3776 2.7442L8.41506 2.74534L8.45251 2.74649C10.9063 2.93706 13.0222 4.98123 13.2584 7.4403H14.0533ZM1.80268 12.3428C1.90786 12.2791 2.01313 12.2152 2.12721 12.1542C3.31038 13.8927 5.29244 14.9932 7.36541 15.2101C7.36765 15.3553 7.36649 15.5006 7.36534 15.646C7.36443 15.7609 7.36351 15.8758 7.36427 15.9907C6.90679 15.9764 6.44758 15.886 6.00382 15.7715C4.16188 15.3108 2.47262 14.1337 1.42841 12.5576C1.56182 12.4889 1.6822 12.4159 1.80268 12.3428Z" fill="#1A6DFF"/>
    </g>
    <defs>
    <clipPath id="clip0_69_30831">
    <rect width="16" height="16" fill="white"/>
    </clipPath>
    </defs>
    </svg>
    