<?xml version="1.0" encoding="UTF-8"?>
<svg width="24px" height="24px" viewBox="0 0 24 24" version="1.1" xmlns="http://www.w3.org/2000/svg" xmlns:xlink="http://www.w3.org/1999/xlink">
    <title>connected accounts/social networks/vimeo</title>
    <g id="connected-accounts/social-networks/vimeo" stroke="none" stroke-width="1" fill="none" fill-rule="evenodd">
        <g id="Group-8">
            <path d="M24,12 C24,18.6274286 18.6274286,24 12,24 C5.37257143,24 0,18.6274286 0,12 C0,5.37257143 5.37257143,0 12,0 C18.6274286,0 24,5.37257143 24,12" id="Fill-5" fill="#41B1DB"></path>
            <path d="M4.71428571,8.81060335 C5.88782529,7.88009246 7.03572323,6.87415804 8.28466661,6.01120509 C9.19820431,5.38001788 10.2629842,5.7233027 10.6708601,6.74906273 C10.9836664,7.53583791 11.0892752,8.4045015 11.2724608,9.23987099 C11.4964992,10.2612134 11.6876163,11.2899903 11.9308859,12.3066995 C12.0103098,12.6384553 12.1792621,12.9601906 12.3603834,13.2544501 C12.5512832,13.5647641 12.8178041,13.5964419 13.0759589,13.3421569 C13.9953638,12.4365358 14.6537889,11.3676766 15.0280916,10.1363335 C15.0776365,9.97341871 15.0783971,9.78992404 15.0706828,9.6173119 C15.0440633,9.0237287 14.7462509,8.72699098 14.1446503,8.73442558 C13.8006612,8.7387355 13.4574326,8.80984911 13.1099667,8.85133206 C13.6349684,6.41622946 15.8403666,5.02024763 18.0785774,5.77782314 C18.6041224,5.95571492 18.9038905,6.375393 19.0687141,6.88331662 C19.3557701,7.76803464 19.3716331,8.67214729 19.0343804,9.53111357 C18.7074495,10.3642204 18.3420561,11.1991589 17.8662734,11.9551181 C16.7456468,13.73576 15.4821442,15.415873 13.8585722,16.7958004 C13.2352413,17.3255968 12.5593234,17.7631611 11.7413985,17.9496727 C11.1500111,18.0844653 10.6409811,17.9497804 10.2083328,17.5301024 C9.63976202,16.9787563 9.2987065,16.2978973 9.08651107,15.5520664 C8.67146421,14.0936985 8.29238083,12.6247714 7.85082312,11.1743768 C7.67296141,10.590491 7.40828755,10.0230905 7.11156163,9.48693693 C6.87644085,9.06208695 6.62067636,9.04333882 6.18694153,9.27682852 C6.16314695,9.28965052 6.13913508,9.30236478 6.11577511,9.31594101 C5.28024883,9.79865162 5.25243417,9.79035503 4.71428571,8.81060335" id="Fill-7" fill="#FDFEFE"></path>
        </g>
    </g>
</svg>