<?xml version="1.0" encoding="UTF-8"?>
<svg width="24px" height="24px" viewBox="0 0 24 24" version="1.1" xmlns="http://www.w3.org/2000/svg" xmlns:xlink="http://www.w3.org/1999/xlink">
    <title>connected accounts/social networks/YT</title>
    <g id="connected-accounts/social-networks/YT" stroke="none" stroke-width="1" fill="none" fill-rule="evenodd">
        <g id="Group-9" transform="translate(0.000000, 4.000000)">
            <path d="M15.7817106,0.0766594113 C17.3780171,0.126306815 18.975506,0.216974946 20.5652643,0.362660147 C22.3749331,0.528591629 23.3146912,1.4319279 23.6103608,3.16861873 C23.8839049,4.77535414 24.0039402,6.38615077 23.9999015,7.99965446 L9.72195614e-06,7.99943861 C0.00570375417,7.68454395 0.0161326783,7.36951041 0.0309164232,7.05440834 C0.0943066715,5.70494966 0.195258143,4.34844879 0.417624222,3.01668359 C0.700743079,1.32101349 1.66378374,0.549454102 3.43916543,0.366181239 C7.54525285,-0.0578463208 11.6628906,-0.0515083543 15.7817106,0.0766594113 Z M15.7817106,15.9233406 C17.3780171,15.8736932 18.975506,15.7830251 20.5652643,15.6373399 C22.3749331,15.4714084 23.3146912,14.5680721 23.6103608,12.8313813 C23.8839049,11.2246459 24.0039402,9.61384923 23.9999015,8.00034554 L9.72195614e-06,8.00056139 C0.00570375417,8.31545605 0.0161326783,8.63048959 0.0309164232,8.94559166 C0.0943066715,10.2950503 0.195258143,11.6515512 0.417624222,12.9833164 C0.700743079,14.6789865 1.66378374,15.4505459 3.43916543,15.6338188 C7.54525285,16.0578463 11.6628906,16.0515084 15.7817106,15.9233406 Z" id="Combined-Shape" fill="#FF0000"></path>
            <path d="M15,7.99872309 C12.9749535,9.18043377 11.0112983,10.3263911 9,11.5 L9,4.5 C11.0026516,5.6677968 12.9677768,6.81366604 15,7.99872309" id="Fill-3" fill="#FFFFFF"></path>
        </g>
    </g>
</svg>