<svg xmlns="http://www.w3.org/2000/svg" width="17.002" height="16.333" viewBox="0 0 17.002 16.333">
	<g id="icon_info-sm" data-name="icon/info-sm" transform="translate(0.501 0.167)">
		<g id="Path" transform="translate(1 1.333)" fill="none" stroke-miterlimit="10">
			<path
				d="M6.655.214.05,12.712a.438.438,0,0,0,0,.415.391.391,0,0,0,.34.206H13.605a.391.391,0,0,0,.34-.206.438.438,0,0,0,0-.415L7.345.214a.385.385,0,0,0-.689,0Z"
				stroke="none" />
			<path
				d="M 7 -2.86102294921875e-06 C 6.856929779052734 -2.86102294921875e-06 6.72504997253418 0.08182716369628906 6.655270099639893 0.2138967514038086 L 0.05020999908447266 12.71203708648682 C -0.01813030242919922 12.84128665924072 -0.01661968231201172 12.99914741516113 0.05418968200683594 13.12690734863281 C 0.1249904632568359 13.25465679168701 0.2545003890991211 13.33320713043213 0.3945398330688477 13.33333683013916 L 13.60546016693115 13.33333683013916 C 13.74549961090088 13.33320713043213 13.87500953674316 13.25465679168701 13.94581031799316 13.12690734863281 C 14.01661968231201 12.99914741516113 14.0181303024292 12.84128665924072 13.94979000091553 12.71203708648682 L 7.344729900360107 0.2138967514038086 C 7.27495002746582 0.08182716369628906 7.143070220947266 -2.86102294921875e-06 7 -2.86102294921875e-06 M 7 -1.500002861022949 C 7.700510025024414 -1.500002861022949 8.340799331665039 -1.111783027648926 8.670989990234375 -0.4868431091308594 L 15.27597999572754 12.0111665725708 C 15.58261966705322 12.59110736846924 15.57587051391602 13.28013706207275 15.25778007507324 13.85405731201172 C 14.92337036132812 14.45744705200195 14.29076957702637 14.83269691467285 13.60684967041016 14.83333683013916 L 0.3945398330688477 14.83333683013916 C -0.2907695770263672 14.83269691467285 -0.923370361328125 14.45744705200195 -1.257800102233887 13.85401725769043 C -1.575869560241699 13.28013706207275 -1.582619667053223 12.59110736846924 -1.275839805603027 12.01089668273926 L 5.329079627990723 -0.4869728088378906 C 5.659199714660645 -1.111783027648926 6.299489974975586 -1.500002861022949 7 -1.500002861022949 Z"
				stroke="none" fill="#e68619" />
		</g>
		<path id="Combined_Shape" data-name="Combined Shape"
			d="M.208,8A.209.209,0,0,1,0,7.789V6.526a.209.209,0,0,1,.208-.211h1.25a.21.21,0,0,1,.208.211V7.789A.21.21,0,0,1,1.459,8Zm0-2.526A.209.209,0,0,1,0,5.263V.211A.209.209,0,0,1,.208,0h1.25a.21.21,0,0,1,.208.211V5.263a.21.21,0,0,1-.208.211Z"
			transform="translate(7.167 5.333)" fill="#e68619" />
	</g>
</svg>