<?xml version="1.0" encoding="UTF-8"?>
<svg id="Layer_1" data-name="Layer 1" xmlns="http://www.w3.org/2000/svg" xmlns:xlink="http://www.w3.org/1999/xlink" viewBox="0 0 26.04 16.71">
  <defs>
    <style>
      .cls-1 {
        clip-path: url(#clippath);
      }

      .cls-2 {
        fill: none;
      }

      .cls-2, .cls-3, .cls-4, .cls-5 {
        stroke-width: 0px;
      }

      .cls-6 {
        mask: url(#mask);
      }

      .cls-3 {
        fill: #6d6d6d;
        fill-rule: evenodd;
      }

      .cls-4 {
        fill: #d31510;
      }

      .cls-5 {
        fill: #fff;
      }
    </style>
    <mask id="mask" x="14.67" y="5.33" width="10.67" height="10.67" maskUnits="userSpaceOnUse">
      <g id="mask1_2101_95004" data-name="mask1 2101 95004">
        <path class="cls-5" d="m25.33,10.67c0,2.95-2.39,5.33-5.33,5.33s-5.33-2.39-5.33-5.33,2.39-5.33,5.33-5.33,5.33,2.39,5.33,5.33Z"/>
      </g>
    </mask>
    <clipPath id="clippath">
      <rect class="cls-2" x="13.96" y="4.62" width="12.09" height="12.09"/>
    </clipPath>
  </defs>
  <g>
    <path class="cls-3" d="m14.67,14.65v.02h-6.67c-3.68,0-6.67-2.99-6.67-6.67S4.32,1.33,8,1.33c3.27,0,6,2.38,6.56,5.5.31-.44.67-.85,1.08-1.21,0-.02-.01-.03-.02-.05-.11-.34-.24-.66-.39-.98-.04-.09-.08-.18-.13-.26-.16-.31-.33-.6-.53-.88-.06-.08-.12-.16-.18-.24-.17-.23-.36-.45-.56-.66-.06-.06-.11-.13-.17-.19-.24-.24-.49-.46-.76-.67-.09-.07-.17-.13-.26-.2-.28-.2-.57-.39-.87-.55-.06-.03-.13-.06-.19-.09-.28-.14-.57-.27-.87-.37-.08-.03-.15-.06-.23-.08-.34-.11-.7-.2-1.06-.27-.08-.01-.16-.03-.25-.04-.38-.06-.78-.1-1.18-.1C3.59,0,0,3.59,0,8s3.59,8,8,8h8c-.51-.38-.95-.84-1.33-1.35Z"/>
    <path class="cls-3" d="m9.34,5.46v6.04h1.39v-3.66c0-.23.05-.43.16-.6.11-.18.25-.31.44-.42.19-.1.4-.15.65-.15.11,0,.22,0,.33.02.12.02.19.03.22.04l.17.05v-1.37l-.12-.02s-.07,0-.11-.01h0s-.13,0-.13,0c-.1,0-.19,0-.26,0-.36,0-.69.1-.98.29-.17.11-.3.25-.41.4v-.61h-1.35Z"/>
    <path class="cls-3" d="m4.95,7.46c.12-.28.29-.5.5-.64.21-.15.46-.22.75-.22.33,0,.58.09.77.26.2.18.32.39.37.63l.02.1h1.35l-.02-.15c-.04-.41-.18-.77-.4-1.08-.23-.31-.52-.55-.88-.72-.36-.17-.78-.26-1.23-.26-.57,0-1.06.13-1.49.4-.42.27-.75.64-.98,1.11-.23.47-.34,1.02-.34,1.61s.11,1.13.34,1.6c.23.47.55.84.98,1.11.43.27.93.4,1.51.4.47,0,.89-.09,1.25-.27.36-.18.65-.42.87-.74.22-.31.34-.67.39-1.06l.02-.15h-1.35l-.02.1c-.04.19-.12.35-.22.48-.11.13-.24.23-.39.3-.15.07-.33.11-.53.11-.29,0-.54-.08-.75-.23-.21-.15-.38-.37-.5-.65-.12-.28-.18-.64-.18-1.04,0-.36.05-.67.15-.94l.03-.08Z"/>
  </g>
  <g class="cls-6">
    <path class="cls-5" d="m25.33,10.67c0,2.95-2.39,5.33-5.33,5.33s-5.33-2.39-5.33-5.33,2.39-5.33,5.33-5.33,5.33,2.39,5.33,5.33Z"/>
  </g>
  <g class="cls-1">
    <path class="cls-4" d="m20,5.29c-1.06,0-2.1.32-2.99.91-.88.59-1.57,1.43-1.98,2.41-.41.98-.51,2.06-.31,3.1.21,1.04.72,2,1.47,2.75s1.71,1.26,2.75,1.47c1.04.21,2.12.1,3.1-.31.98-.41,1.82-1.1,2.41-1.98.59-.88.91-1.92.91-2.98,0-1.42-.57-2.79-1.57-3.8-1.01-1.01-2.37-1.57-3.8-1.57Zm-.87,1.6s0-.09.02-.13.05-.07.09-.1c.24-.1.49-.15.75-.15.25,0,.51.04.75.12.04.02.08.06.1.1.02.04.04.09.04.13v.82c0,.97-.19,3.66-.23,4.01,0,.05-.02.09-.05.12-.03.03-.08.05-.13.05h-.02s-.91,0-.91,0c-.05,0-.09-.01-.13-.04-.04-.03-.06-.07-.07-.12-.03-.46-.21-3.06-.21-3.99v-.82Zm.87,7.41c-.12.01-.24,0-.36-.04-.12-.04-.22-.1-.31-.19-.09-.08-.16-.18-.21-.3s-.07-.23-.07-.36c0-.12.02-.23.06-.34.04-.11.11-.21.19-.29.08-.08.18-.15.29-.2.11-.05.22-.07.34-.07.02,0,.04,0,.06,0,.12,0,.23,0,.34.05.11.04.21.1.3.17.09.08.16.17.21.27.05.1.08.22.09.33,0,.03,0,.05,0,.08,0,.12-.02.24-.07.36s-.12.21-.21.3c-.09.08-.19.15-.31.19-.12.04-.24.05-.36.04Z"/>
  </g>
</svg>