<?xml version="1.0" encoding="UTF-8"?>
<svg id="Layer_1" data-name="Layer 1" xmlns="http://www.w3.org/2000/svg" viewBox="0 0 25.33 16">
  <defs>
    <style>
      .cls-1 {
        fill: #6d6d6d;
        fill-rule: evenodd;
      }

      .cls-1, .cls-2 {
        stroke-width: 0px;
      }

      .cls-2 {
        fill: #e46f00;
      }
    </style>
  </defs>
  <g>
    <path class="cls-1" d="m14.67,14.65v.02h-6.67c-3.68,0-6.67-2.99-6.67-6.67S4.32,1.33,8,1.33c3.27,0,6,2.38,6.56,5.5.31-.44.67-.85,1.08-1.21,0-.02-.01-.03-.02-.05-.11-.34-.24-.66-.39-.98-.04-.09-.08-.18-.13-.26-.16-.31-.33-.6-.53-.88-.06-.08-.12-.16-.18-.24-.17-.23-.36-.45-.56-.66-.06-.06-.11-.13-.17-.19-.24-.24-.49-.46-.76-.67-.09-.07-.17-.13-.26-.2-.28-.2-.57-.39-.87-.55-.06-.03-.13-.06-.19-.09-.28-.14-.57-.27-.87-.37-.08-.03-.15-.06-.23-.08-.34-.11-.7-.2-1.06-.27-.08-.01-.16-.03-.25-.04-.38-.06-.78-.1-1.18-.1C3.59,0,0,3.59,0,8s3.59,8,8,8h8c-.51-.38-.95-.84-1.33-1.35Z"/>
    <path class="cls-1" d="m4.95,7.46c.12-.28.29-.5.5-.64.21-.15.46-.22.75-.22.33,0,.58.09.77.26.2.18.32.39.37.63l.02.1h1.35l-.02-.15c-.04-.41-.18-.77-.4-1.08-.23-.31-.52-.55-.88-.72-.36-.17-.78-.26-1.23-.26-.57,0-1.06.13-1.49.4-.42.27-.75.64-.98,1.11-.23.47-.34,1.02-.34,1.61s.11,1.13.34,1.6c.23.47.55.84.98,1.11.43.27.93.4,1.51.4.47,0,.89-.09,1.25-.27.36-.18.65-.42.87-.74.22-.31.34-.67.39-1.06l.02-.15h-1.35l-.02.1c-.04.19-.12.35-.22.48-.11.13-.24.23-.39.3-.15.07-.33.11-.53.11-.29,0-.54-.08-.75-.23-.21-.15-.38-.37-.5-.65-.12-.28-.18-.64-.18-1.04,0-.36.05-.67.15-.94l.03-.08Z"/>
    <path class="cls-1" d="m9.34,5.46v6.04h1.39v-3.66c0-.23.05-.43.16-.6.11-.18.25-.31.44-.42.19-.1.4-.15.65-.15.11,0,.22,0,.33.02.12.02.19.03.22.04l.17.05v-1.37l-.12-.02s-.07,0-.11-.01h0s-.13,0-.13,0c-.1,0-.19,0-.26,0-.36,0-.69.1-.98.29-.17.11-.3.25-.41.4v-.61h-1.35Z"/>
  </g>
  <path class="cls-2" d="m20,5.33c-2.95,0-5.33,2.39-5.33,5.33s2.39,5.33,5.33,5.33,5.33-2.39,5.33-5.33-2.39-5.33-5.33-5.33Zm.9,8.6c.02.22-.05.44-.21.6-.16.16-.37.24-.6.23-.22.01-.44-.07-.59-.23s-.23-.38-.21-.6c0-.45.35-.81.79-.82.45,0,.81.35.82.79,0,0,0,.02,0,.02Zm.58-3.67l-.09.09c-.44.43-.84.82-.84,1.17,0,.25.07.49.2.7.01.02.02.04,0,.06-.01.02-.03.03-.06.03h-1.07c-.06,0-.12-.01-.16-.05-.19-.25-.3-.56-.29-.87,0-.59.36-.97.94-1.58.4-.42.64-.68.64-1.07,0-.45-.29-.77-1.04-.77-.54,0-1.08.14-1.54.42-.02.01-.04.02-.06,0-.02-.01-.03-.03-.03-.06v-1.23c0-.05,0-.1.05-.13.57-.3,1.21-.46,1.86-.44,1.47,0,2.28.87,2.28,1.98,0,.67-.28,1.31-.78,1.74Z"/>
</svg>