<svg width="18" height="18" viewBox="0 0 18 18" fill="none" xmlns="http://www.w3.org/2000/svg">
<path d="M1 8C1 4.13401 4.13401 1 8 1C11.866 1 15 4.13401 15 8V15H8C4.13401 15 1 11.866 1 8Z" fill="white"/>
<path fill-rule="evenodd" clip-rule="evenodd" d="M14.6133 8V14.6133H8C4.34756 14.6133 1.38667 11.6524 1.38667 8C1.38667 4.34756 4.34756 1.38667 8 1.38667C11.6524 1.38667 14.6133 4.34756 14.6133 8ZM0 8C0 3.58172 3.58172 0 8 0C12.4183 0 16 3.58172 16 8V16H8C3.58172 16 0 12.4183 0 8ZM3.18037 8.31682C3.18037 9.96759 4.28843 11.3583 6.06357 11.3583C7.52213 11.3583 8.50581 10.3972 8.74325 9.1422H7.30731C7.1264 9.71884 6.66283 10.0693 6.06357 10.0693C5.17035 10.0693 4.5824 9.36834 4.5824 8.31682C4.5824 7.2653 5.17035 6.56428 6.06357 6.56428C6.64021 6.56428 7.09248 6.89218 7.28469 7.4349H8.73195C8.47189 6.21378 7.49952 5.27532 6.06357 5.27532C4.28843 5.27532 3.18037 6.66604 3.18037 8.31682ZM10.6718 5.43362H9.31503V11.2H10.7284V8.19244C10.7284 7.62711 10.8867 7.25399 11.158 7.02786C11.3955 6.81303 11.712 6.69996 12.2208 6.69996H12.5827V5.36578H12.2322C11.4859 5.36578 10.9884 5.63714 10.6718 6.05548V5.43362Z" fill="#222222"/>
<path d="M11 11.875C11 11.3918 11.3918 11 11.875 11H17.125C17.6082 11 18 11.3918 18 11.875V17.125C18 17.6082 17.6082 18 17.125 18H11.875C11.3918 18 11 17.6082 11 17.125V11.875Z" fill="#C22F22"/>
<path d="M16.0991 12.3678L14.5 13.9671L12.9009 12.3678C12.8273 12.2942 12.708 12.2942 12.6344 12.3678L12.3677 12.6343C12.2941 12.7079 12.2941 12.8272 12.3677 12.9007L13.967 14.5L12.3677 16.0992C12.2941 16.1728 12.2941 16.2921 12.3677 16.3656L12.6342 16.6323C12.7078 16.7059 12.8271 16.7059 12.9007 16.6323L14.5 15.033L16.0991 16.6323C16.1727 16.7059 16.292 16.7059 16.3656 16.6323L16.6323 16.3658C16.7059 16.2922 16.7059 16.1729 16.6323 16.0993L15.033 14.5L16.6323 12.9009C16.7059 12.8273 16.7059 12.708 16.6323 12.6344L16.3658 12.3678C16.3305 12.3324 16.2826 12.3125 16.2326 12.3125C16.1826 12.3125 16.1347 12.3323 16.0993 12.3676L16.0991 12.3678Z" fill="white"/>
</svg>
