<?xml version="1.0" encoding="utf-8"?>
<!-- Generator: Adobe Illustrator 27.8.1, SVG Export Plug-In . SVG Version: 6.00 Build 0)  -->
<svg version="1.1" id="Layer_1" xmlns="http://www.w3.org/2000/svg" xmlns:xlink="http://www.w3.org/1999/xlink" x="0px" y="0px"
	 viewBox="0 0 18 18" style="enable-background:new 0 0 18 18;" xml:space="preserve">
<path fill-rule="evenodd" clip-rule="evenodd" fill="currentColor" d="M14.6,8v6.6H8c-3.7,0-6.6-3-6.6-6.6s3-6.6,6.6-6.6S14.6,4.3,14.6,8z M0,8c0-4.4,3.6-8,8-8s8,3.6,8,8v8H8
	C3.6,16,0,12.4,0,8z M3.2,8.3c0,1.6,1.1,3,2.9,3c1.5,0,2.4-1,2.7-2.2H7.3c-0.2,0.6-0.6,0.9-1.2,0.9c-0.9,0-1.5-0.7-1.5-1.8
	s0.6-1.8,1.5-1.8c0.6,0,1,0.3,1.2,0.9h1.4C8.5,6.2,7.5,5.3,6.1,5.3C4.3,5.3,3.2,6.7,3.2,8.3z M10.7,5.4H9.3v5.8h1.4v-3
	c0-0.6,0.2-0.9,0.4-1.2c0.2-0.2,0.6-0.3,1.1-0.3h0.4V5.4h-0.4c-0.8,0-1.2,0.3-1.6,0.7L10.7,5.4L10.7,5.4z"/>
<g>
	<path fill="#e46f00" d="M12,11h5c0.6,0,1,0.4,1,1v5c0,0.6-0.4,1-1,1h-5c-0.6,0-1-0.4-1-1v-5C11,11.4,11.4,11,12,11z"/>
	<path fill-rule="evenodd" clip-rule="evenodd" fill="white" d="M13.3,12.3c0.4-0.2,0.7-0.3,1.1-0.3c0.9,0,1.4,0.5,1.4,1.2c0,0.4-0.2,0.8-0.5,1.1c0,0,0,0-0.1,0.1
		c-0.3,0.3-0.5,0.5-0.5,0.7c0,0.1,0,0.3,0.1,0.4c0,0,0,0,0,0c0,0,0,0,0,0h-0.6c0,0-0.1,0-0.1,0c-0.1-0.1-0.2-0.3-0.2-0.5
		c0-0.4,0.2-0.6,0.6-1c0.2-0.2,0.4-0.4,0.4-0.6c0-0.3-0.2-0.5-0.6-0.5c-0.3,0-0.6,0.1-0.9,0.2c0,0,0,0,0,0s0,0,0,0L13.3,12.3
		C13.2,12.4,13.2,12.3,13.3,12.3z M14.8,16.9c0.1-0.1,0.1-0.2,0.1-0.4l0,0c0-0.3-0.2-0.5-0.5-0.5S14,16.2,14,16.5
		c0,0.1,0,0.3,0.1,0.4c0.1,0.1,0.2,0.1,0.4,0.1C14.6,17,14.8,16.9,14.8,16.9L14.8,16.9z"/>
</g>
</svg>
