<svg width="18" height="18" viewBox="0 0 18 18" fill="none" xmlns="http://www.w3.org/2000/svg">
<path d="M1 8C1 4.13401 4.13401 1 8 1V1C11.866 1 15 4.13401 15 8V15H8C4.13401 15 1 11.866 1 8V8Z" fill="white"/>
<path fill-rule="evenodd" clip-rule="evenodd" d="M14.6133 8V14.6133H8C4.34756 14.6133 1.38667 11.6524 1.38667 8C1.38667 4.34756 4.34756 1.38667 8 1.38667C11.6524 1.38667 14.6133 4.34756 14.6133 8ZM0 8C0 3.58172 3.58172 0 8 0C12.4183 0 16 3.58172 16 8V16H8C3.58172 16 0 12.4183 0 8ZM3.18037 8.31682C3.18037 9.96759 4.28843 11.3583 6.06357 11.3583C7.52213 11.3583 8.50581 10.3972 8.74325 9.1422H7.30731C7.1264 9.71884 6.66283 10.0693 6.06357 10.0693C5.17035 10.0693 4.5824 9.36834 4.5824 8.31682C4.5824 7.2653 5.17035 6.56428 6.06357 6.56428C6.64021 6.56428 7.09248 6.89218 7.28469 7.4349H8.73195C8.47189 6.21378 7.49952 5.27532 6.06357 5.27532C4.28843 5.27532 3.18037 6.66604 3.18037 8.31682ZM10.6718 5.43362H9.31503V11.2H10.7284V8.19244C10.7284 7.62711 10.8867 7.25399 11.158 7.02786C11.3955 6.81303 11.712 6.69996 12.2208 6.69996H12.5827V5.36578H12.2322C11.4859 5.36578 10.9884 5.63714 10.6718 6.05548V5.43362Z" fill="#222222"/>
<path fill-rule="evenodd" clip-rule="evenodd" d="M12.0013 18C11.2581 18 10.7746 17.2182 11.1067 16.5535L13.6054 11.553C13.9738 10.8157 15.0262 10.8157 15.3946 11.553L17.8933 16.5535C18.2254 17.2182 17.7419 18 16.9987 18H12.0013Z" fill="#E46F00"/>
<path fill-rule="evenodd" clip-rule="evenodd" d="M14.8377 15.6983C14.8997 15.6983 14.9499 15.6475 14.9499 15.5849V12.8634C14.9499 12.8008 14.8997 12.75 14.8377 12.75H14.1645C14.1026 12.75 14.0523 12.8008 14.0523 12.8634V15.5849C14.0523 15.6475 14.1026 15.6983 14.1645 15.6983H14.8377ZM14.8377 17.0591C14.8997 17.0591 14.9499 17.0083 14.9499 16.9457V16.2653C14.9499 16.2027 14.8997 16.1519 14.8377 16.1519H14.1645C14.1026 16.1519 14.0523 16.2027 14.0523 16.2653V16.9457C14.0523 17.0083 14.1026 17.0591 14.1645 17.0591H14.8377Z" fill="white"/>
</svg>
