<svg width="18" height="18" viewBox="0 0 18 18" fill="none" xmlns="http://www.w3.org/2000/svg">
<path d="M1 8C1 4.13401 4.13401 1 8 1V1C11.866 1 15 4.13401 15 8V15H8C4.13401 15 1 11.866 1 8V8Z" fill="white"/>
<path fill-rule="evenodd" clip-rule="evenodd" d="M14.6133 8V14.6133H8C4.34756 14.6133 1.38667 11.6524 1.38667 8C1.38667 4.34756 4.34756 1.38667 8 1.38667C11.6524 1.38667 14.6133 4.34756 14.6133 8ZM0 8C0 3.58172 3.58172 0 8 0C12.4183 0 16 3.58172 16 8V16H8C3.58172 16 0 12.4183 0 8ZM3.18037 8.31682C3.18037 9.96759 4.28843 11.3583 6.06357 11.3583C7.52213 11.3583 8.50581 10.3972 8.74325 9.1422H7.30731C7.1264 9.71884 6.66283 10.0693 6.06357 10.0693C5.17035 10.0693 4.5824 9.36834 4.5824 8.31682C4.5824 7.2653 5.17035 6.56428 6.06357 6.56428C6.64021 6.56428 7.09248 6.89218 7.28469 7.4349H8.73195C8.47189 6.21378 7.49952 5.27532 6.06357 5.27532C4.28843 5.27532 3.18037 6.66604 3.18037 8.31682ZM10.6718 5.43362H9.31503V11.2H10.7284V8.19244C10.7284 7.62711 10.8867 7.25399 11.158 7.02786C11.3955 6.81303 11.712 6.69996 12.2208 6.69996H12.5827V5.36578H12.2322C11.4859 5.36578 10.9884 5.63714 10.6718 6.05548V5.43362Z" fill="#222222"/>
<path d="M12 11H17C17.6 11 18 11.4 18 12V17C18 17.6 17.6 18 17 18H12C11.4 18 11 17.6 11 17V12C11 11.4 11.4 11 12 11Z" fill="#E46F00"/>
<path fill-rule="evenodd" clip-rule="evenodd" d="M13.3 12.3C13.7 12.1 14 12 14.4 12C15.3 12 15.8 12.5 15.8 13.2C15.8 13.6 15.6 14 15.3 14.3C15.3 14.3 15.3 14.3 15.2 14.4C14.9 14.7 14.7 14.9 14.7 15.1C14.7 15.2 14.7 15.4 14.8 15.5H14.2H14.1C14 15.4 13.9 15.2 13.9 15C13.9 14.6 14.1 14.4 14.5 14C14.7 13.8 14.9 13.6 14.9 13.4C14.9 13.1 14.7 12.9 14.3 12.9C14 12.9 13.7 13 13.4 13.1L13.3 12.3C13.2 12.4 13.2 12.3 13.3 12.3ZM14.8 16.9C14.9 16.8 14.9 16.7 14.9 16.5C14.9 16.2 14.7 16 14.4 16C14.1 16 14 16.2 14 16.5C14 16.6 14 16.8 14.1 16.9C14.2 17 14.3 17 14.5 17C14.6 17 14.8 16.9 14.8 16.9Z" fill="white"/>
</svg>
