<svg width="210" height="100" viewBox="0 0 210 100" fill="none" xmlns="http://www.w3.org/2000/svg">
<g clip-path="url(#clip0_1549_5244)">
<path d="M23.4029 22H0.266663V78L23.4029 22Z" fill="black"/>
<path d="M39.6812 22H62.7874V78L39.6812 22Z" fill="black"/>
<path d="M31.5421 42.6387L46.2679 77.9991H36.6065L32.2053 66.7411H21.4284L31.5421 42.6387Z" fill="black"/>
<path d="M100.532 57.6142L103.261 65.5314C103.351 65.7297 103.487 65.8212 103.728 65.8212H108.973C109.259 65.8212 109.305 65.6839 109.259 65.3941L98.4223 34.9305C98.3771 34.6864 98.3319 34.6406 98.0907 34.6406H91.5794C91.3986 34.6406 91.293 34.7779 91.293 34.9762C91.2026 36.578 91.067 37.0661 90.871 37.539L81.2095 65.3483C81.1643 65.6839 81.2698 65.8212 81.5411 65.8212H86.2287C86.5151 65.8212 86.6507 65.7297 86.7562 65.4398L89.3336 57.6142H100.532ZM90.8258 52.4429C92.2426 48.1105 94.1116 42.5578 94.8652 39.3848H94.9104C95.8449 42.7104 98.0455 49.3004 99.0403 52.4429H90.8258Z" fill="black"/>
<path d="M123.191 66.2933C126.01 66.2933 129.009 65.7747 132.054 64.4475C132.295 64.356 132.34 64.2492 132.34 64.0204C132.25 63.1661 132.144 61.9305 132.144 60.9847V32.3058C132.144 32.1228 132.144 32.0312 131.918 32.0312H126.809C126.613 32.0312 126.522 32.1228 126.522 32.3669V42.0841C125.724 41.9926 125.166 41.9468 124.503 41.9468C116.258 41.9468 111.194 47.4538 111.194 54.3336C111.194 62.3118 116.394 66.2933 123.191 66.2933ZM126.522 60.9847C125.678 61.2593 124.744 61.366 123.794 61.366C120.056 61.366 116.997 59.2304 116.997 54.0438C116.997 49.4521 120.147 46.7368 124.322 46.7368C125.166 46.7368 125.904 46.8283 126.522 47.0724V60.9847Z" fill="black"/>
<path d="M148.641 41.9473C141.602 41.9473 137.246 47.4084 137.246 54.151C137.246 60.1766 140.713 66.2938 148.535 66.2938C155.152 66.2938 159.795 61.3665 159.795 53.9985C159.795 47.5 155.861 41.9473 148.641 41.9473ZM148.355 46.7372C152.334 46.7372 154.022 50.2001 154.022 54.151C154.022 59.0325 151.535 61.458 148.641 61.458C145.069 61.458 142.959 58.4223 142.959 54.0442C142.959 49.5441 145.204 46.7372 148.355 46.7372Z" fill="black"/>
<path d="M165.077 32.0312C164.881 32.0312 164.746 32.1228 164.746 32.3669V64.8289C164.746 64.9662 164.881 65.2102 165.077 65.256C167.323 65.9577 169.674 66.2933 172.101 66.2933C179.049 66.2933 185.802 61.9305 185.802 53.1438C185.802 46.7825 181.491 41.9468 174.739 41.9468C173.186 41.9468 171.739 42.1909 170.473 42.618L170.413 32.4126C170.413 32.077 170.322 32.0312 169.991 32.0312H165.077ZM180.029 53.7234C180.029 58.9863 176.472 61.4576 172.628 61.4576C171.83 61.4576 171.121 61.4118 170.473 61.2135V47.3622C171.212 47.0724 172.101 46.8283 173.744 46.8283C177.452 46.8283 180.029 49.208 180.029 53.7234Z" fill="black"/>
<path d="M204.871 55.4324C207.162 55.4324 209.046 55.3867 209.694 55.2341C209.935 55.1883 210.026 55.0968 210.071 54.8985C210.206 54.3798 210.267 53.2968 210.267 51.9696C210.267 47.4542 207.584 41.9473 200.65 41.9473C193.566 41.9473 189.632 47.7898 189.632 54.3798C189.632 60.2224 192.677 66.2938 201.208 66.2938C204.403 66.2938 206.468 65.7751 208.247 64.9208C208.428 64.8293 208.518 64.6768 208.518 64.4022V60.4512C208.518 60.2224 208.383 60.1766 208.247 60.2682C206.468 61.0309 204.539 61.4123 202.429 61.4123C197.651 61.4123 195.481 58.7427 195.345 55.4324H204.871ZM195.345 51.3442C195.722 49.0254 197.169 46.5084 200.409 46.5084C203.981 46.5084 204.916 49.5441 204.916 50.917C204.916 50.9628 204.916 51.1611 204.916 51.2984C204.72 51.3442 204.117 51.3442 202.339 51.3442H195.345Z" fill="black"/>
</g>
<defs>
<clipPath id="clip0_1549_5244">
<rect width="210" height="100" fill="white"/>
</clipPath>
</defs>
</svg>
