<svg width="211" height="56" viewBox="0 0 211 56" fill="none" xmlns="http://www.w3.org/2000/svg">
<g clip-path="url(#clip0_1460_7082)">
<path d="M23.6363 0H0.5V56L23.6363 0Z" fill="black"/>
<path d="M39.9146 0H63.0207V56L39.9146 0Z" fill="black"/>
<path d="M31.7753 20.6396L46.5011 56H36.8396L32.4385 44.7421H21.6616L31.7753 20.6396Z" fill="black"/>
<path d="M100.766 35.6122L103.494 43.5294C103.584 43.7277 103.72 43.8193 103.961 43.8193H109.206C109.493 43.8193 109.538 43.682 109.493 43.3921L98.6555 12.9285C98.6103 12.6844 98.5651 12.6387 98.3239 12.6387H91.8126C91.6318 12.6387 91.5262 12.776 91.5262 12.9743C91.4358 14.576 91.3002 15.0642 91.1042 15.5371L81.4427 43.3464C81.3975 43.682 81.503 43.8193 81.7743 43.8193H86.4619C86.7483 43.8193 86.8839 43.7277 86.9894 43.4379L89.5668 35.6122H100.766ZM91.059 30.4409C92.4758 26.1086 94.3448 20.5559 95.0984 17.3829H95.1437C96.0782 20.7084 98.2787 27.2984 99.2735 30.4409H91.059Z" fill="black"/>
<path d="M123.424 44.2923C126.243 44.2923 129.242 43.7737 132.287 42.4465C132.528 42.355 132.573 42.2482 132.573 42.0194C132.483 41.1651 132.378 39.9295 132.378 38.9837V10.3049C132.378 10.1218 132.378 10.0303 132.151 10.0303H127.042C126.846 10.0303 126.756 10.1218 126.756 10.3659V20.0831C125.957 19.9916 125.399 19.9458 124.736 19.9458C116.491 19.9458 111.427 25.4528 111.427 32.3327C111.427 40.3109 116.627 44.2923 123.424 44.2923ZM126.755 38.9837C125.911 39.2583 124.977 39.3651 124.027 39.3651C120.289 39.3651 117.23 37.2294 117.23 32.0428C117.23 27.4511 120.38 24.7358 124.555 24.7358C125.399 24.7358 126.138 24.8273 126.755 25.0714V38.9837Z" fill="black"/>
<path d="M148.874 19.9463C141.835 19.9463 137.479 25.4075 137.479 32.15C137.479 38.1756 140.946 44.2928 148.769 44.2928C155.386 44.2928 160.028 39.3655 160.028 31.9975C160.028 25.499 156.094 19.9463 148.874 19.9463ZM148.588 24.7363C152.567 24.7363 154.255 28.1991 154.255 32.15C154.255 37.0315 151.768 39.457 148.874 39.457C145.302 39.457 143.192 36.4214 143.192 32.0433C143.192 27.5431 145.438 24.7363 148.588 24.7363Z" fill="black"/>
<path d="M165.311 10.0303C165.115 10.0303 164.979 10.1218 164.979 10.3659V42.8279C164.979 42.9652 165.115 43.2093 165.311 43.255C167.556 43.9567 169.908 44.2923 172.334 44.2923C179.283 44.2923 186.035 39.9295 186.035 31.1428C186.035 24.7816 181.725 19.9458 174.972 19.9458C173.42 19.9458 171.973 20.1899 170.707 20.617L170.646 10.4116C170.646 10.076 170.556 10.0303 170.224 10.0303H165.311ZM180.263 31.7225C180.263 36.9853 176.705 39.4566 172.862 39.4566C172.063 39.4566 171.355 39.4108 170.707 39.2125V25.3612C171.445 25.0714 172.334 24.8273 173.977 24.8273C177.685 24.8273 180.263 27.2071 180.263 31.7225Z" fill="black"/>
<path d="M205.104 33.4314C207.395 33.4314 209.279 33.3857 209.927 33.2331C210.168 33.1874 210.259 33.0958 210.304 32.8975C210.44 32.3789 210.5 31.2958 210.5 29.9686C210.5 25.4532 207.817 19.9463 200.884 19.9463C193.8 19.9463 189.866 25.7888 189.866 32.3789C189.866 38.2214 192.91 44.2928 201.441 44.2928C204.637 44.2928 206.702 43.7741 208.48 42.9199C208.661 42.8283 208.752 42.6758 208.752 42.4012V38.4502C208.752 38.2214 208.616 38.1756 208.48 38.2672C206.702 39.0299 204.772 39.4113 202.662 39.4113C197.884 39.4113 195.714 36.7417 195.578 33.4314H205.104ZM195.578 29.3432C195.955 27.0245 197.402 24.5074 200.643 24.5074C204.215 24.5074 205.149 27.5431 205.149 28.9161C205.149 28.9618 205.149 29.1601 205.149 29.2974C204.953 29.3432 204.35 29.3432 202.572 29.3432H195.578Z" fill="black"/>
</g>
<defs>
<clipPath id="clip0_1460_7082">
<rect width="210" height="56" fill="white" transform="translate(0.5)"/>
</clipPath>
</defs>
</svg>
