<svg width="169" height="46" viewBox="0 0 169 46" fill="none" xmlns="http://www.w3.org/2000/svg">
<path d="M52.4279 20.3629C48.3582 20.3629 45.8179 17.1745 45.8179 13.39C45.8179 9.60546 48.3582 6.41711 52.4279 6.41711C55.72 6.41711 57.9492 8.5686 58.5454 11.3681H55.2274C54.7868 10.1239 53.7499 9.37217 52.4279 9.37217C50.3801 9.37217 49.0322 10.9793 49.0322 13.39C49.0322 15.8007 50.3801 17.4078 52.4279 17.4078C53.8018 17.4078 54.8645 16.6043 55.2793 15.2823H58.5713C58.027 18.1596 55.7718 20.3629 52.4279 20.3629Z" fill="black"/>
<path d="M66.233 20.3629C62.1114 20.3629 59.5452 17.1745 59.5452 13.39C59.5452 9.60546 62.1114 6.41711 66.233 6.41711C70.3545 6.41711 72.9207 9.60546 72.9207 13.39C72.9207 17.1745 70.3545 20.3629 66.233 20.3629ZM62.7854 13.39C62.7854 15.8007 64.1852 17.4078 66.233 17.4078C68.2548 17.4078 69.6546 15.8007 69.6546 13.39C69.6546 10.9793 68.2548 9.37217 66.233 9.37217C64.1852 9.37217 62.7854 10.9793 62.7854 13.39Z" fill="black"/>
<path d="M82.8199 12.1198C82.8199 11.1089 82.5607 10.5127 82.12 10.0461C81.7053 9.63138 81.0832 9.37217 80.3574 9.37217C79.5797 9.37217 78.9576 9.63138 78.5428 10.0461C78.1022 10.5127 77.843 11.1089 77.843 12.1198V20H74.6028V6.78001H77.7134V7.73911C78.5169 6.93554 79.6316 6.41711 81.0572 6.41711C82.6125 6.41711 83.8568 6.98738 84.7381 7.9724C85.5676 8.85374 86.0601 10.072 86.0601 11.9384V20H82.8199V12.1198Z" fill="black"/>
<path d="M93.0883 20.1814C91.533 20.1814 90.7035 19.7926 90.1591 19.1446C89.6925 18.6002 89.4593 17.8485 89.4593 16.5265V9.57954H86.6338V6.78001H89.537V2.63257H92.6735V6.78001H95.7841V9.57954H92.6735V16.034C92.6735 16.8376 92.8291 17.2264 93.6845 17.2264H95.7841V20.1814H93.0883Z" fill="black"/>
<path d="M102.627 20.3629C98.6089 20.3629 96.0946 17.1745 96.0946 13.39C96.0946 9.60546 98.5312 6.41711 102.445 6.41711C106.359 6.41711 108.796 9.60546 108.796 13.39C108.796 13.7788 108.77 14.1417 108.718 14.4528H99.2829C99.4903 16.3191 100.76 17.5374 102.627 17.5374C103.949 17.5374 104.96 16.8635 105.4 15.7489H108.563C107.889 18.3929 105.737 20.3629 102.627 20.3629ZM99.2829 12.0162H105.608C105.4 10.3053 104.182 9.13887 102.471 9.13887C100.735 9.13887 99.4903 10.3053 99.2829 12.0162Z" fill="black"/>
<path d="M118.686 12.1198C118.686 11.1089 118.427 10.5127 117.986 10.0461C117.571 9.63138 116.949 9.37217 116.223 9.37217C115.446 9.37217 114.823 9.63138 114.409 10.0461C113.968 10.5127 113.709 11.1089 113.709 12.1198V20H110.469V6.78001H113.579V7.73911C114.383 6.93554 115.497 6.41711 116.923 6.41711C118.478 6.41711 119.723 6.98738 120.604 7.9724C121.433 8.85374 121.926 10.072 121.926 11.9384V20H118.686V12.1198Z" fill="black"/>
<path d="M128.954 20.1814C127.399 20.1814 126.569 19.7926 126.025 19.1446C125.558 18.6002 125.325 17.8485 125.325 16.5265V9.57954H122.5V6.78001H125.403V2.63257H128.539V6.78001H131.65V9.57954H128.539V16.034C128.539 16.8376 128.695 17.2264 129.55 17.2264H131.65V20.1814H128.954Z" fill="black"/>
<path d="M52.4279 43.3629C48.3582 43.3629 45.8179 40.1745 45.8179 36.39C45.8179 32.6055 48.3582 29.4171 52.4279 29.4171C55.72 29.4171 57.9492 31.5686 58.5454 34.3681H55.2274C54.7868 33.1239 53.7499 32.3722 52.4279 32.3722C50.3801 32.3722 49.0322 33.9793 49.0322 36.39C49.0322 38.8007 50.3801 40.4078 52.4279 40.4078C53.8018 40.4078 54.8645 39.6043 55.2793 38.2823H58.5713C58.027 41.1596 55.7718 43.3629 52.4279 43.3629Z" fill="black"/>
<path d="M60.1414 43V29.78H63.252V31.2057C63.9778 30.2466 65.1183 29.6245 66.8292 29.6245H67.6327V32.6832H66.8032C65.6368 32.6832 64.911 32.9424 64.3666 33.4349C63.7445 33.9534 63.3816 34.8088 63.3816 36.1049V43H60.1414Z" fill="black"/>
<path d="M74.3875 43.3629C70.3697 43.3629 67.8553 40.1745 67.8553 36.39C67.8553 32.6055 70.2919 29.4171 74.2061 29.4171C78.1202 29.4171 80.5568 32.6055 80.5568 36.39C80.5568 36.7788 80.5309 37.1417 80.4791 37.4528H71.0436C71.251 39.3191 72.5212 40.5374 74.3875 40.5374C75.7095 40.5374 76.7204 39.8635 77.1611 38.7489H80.3235C79.6496 41.3929 77.4981 43.3629 74.3875 43.3629ZM71.0436 35.0162H77.3685C77.1611 33.3053 75.9428 32.1389 74.232 32.1389C72.4952 32.1389 71.251 33.3053 71.0436 35.0162Z" fill="black"/>
<path d="M91.587 43V41.8076C90.628 42.7667 89.3319 43.3629 87.7766 43.3629C83.992 43.3629 81.6332 40.1227 81.6332 36.39C81.6332 32.6055 83.992 29.4171 87.7766 29.4171C89.28 29.4171 90.5243 29.9615 91.4834 30.8428V24.3365H94.7235V43H91.587ZM84.8734 36.39C84.8734 38.7748 86.2472 40.4078 88.295 40.4078C90.3428 40.4078 91.7167 38.7748 91.7167 36.39C91.7167 34.0052 90.3428 32.3722 88.295 32.3722C86.2472 32.3722 84.8734 34.0052 84.8734 36.39Z" fill="black"/>
<path d="M102.697 43.3629C98.6788 43.3629 96.1644 40.1745 96.1644 36.39C96.1644 32.6055 98.601 29.4171 102.515 29.4171C106.429 29.4171 108.866 32.6055 108.866 36.39C108.866 36.7788 108.84 37.1417 108.788 37.4528H99.3528C99.5601 39.3191 100.83 40.5374 102.697 40.5374C104.019 40.5374 105.03 39.8635 105.47 38.7489H108.633C107.959 41.3929 105.807 43.3629 102.697 43.3629ZM99.3528 35.0162H105.678C105.47 33.3053 104.252 32.1389 102.541 32.1389C100.804 32.1389 99.5601 33.3053 99.3528 35.0162Z" fill="black"/>
<path d="M118.496 35.1198C118.496 34.1089 118.237 33.5127 117.797 33.0461C117.382 32.6314 116.76 32.3722 116.034 32.3722C115.256 32.3722 114.634 32.6314 114.219 33.0461C113.779 33.5127 113.519 34.1089 113.519 35.1198V43H110.279V29.78H113.39V30.7391C114.193 29.9355 115.308 29.4171 116.734 29.4171C118.289 29.4171 119.533 29.9874 120.415 30.9724C121.244 31.8537 121.737 33.072 121.737 34.9384V43H118.496V35.1198Z" fill="black"/>
<path d="M128.987 43.1814C127.431 43.1814 126.602 42.7926 126.057 42.1446C125.591 41.6002 125.358 40.8485 125.358 39.5265V32.5795H122.532V29.78H125.435V25.6326H128.572V29.78H131.682V32.5795H128.572V39.034C128.572 39.8376 128.727 40.2264 129.583 40.2264H131.682V43.1814H128.987Z" fill="black"/>
<path d="M132.867 43V29.78H136.108V43H132.867ZM132.816 28.1988V24.7253H136.16V28.1988H132.816Z" fill="black"/>
<path d="M142.618 43.3629C139.688 43.3629 137.822 41.5484 137.822 39.3191C137.822 36.2085 140.103 35.405 143.032 35.0939L144.277 34.9384C144.976 34.8606 145.547 34.7829 146.065 34.6792V34.394C146.065 33.5905 145.832 33.072 145.469 32.7091C145.08 32.3462 144.484 32.1389 143.784 32.1389C142.41 32.1389 141.503 32.8388 141.425 33.9534H138.263C138.366 31.4649 140.44 29.4171 143.81 29.4171C145.443 29.4171 146.791 29.9096 147.698 30.6613C148.865 31.6204 149.228 32.6832 149.228 34.3163V40.2264C149.228 41.3929 149.254 42.326 149.279 43.1555V43.1814H146.35L146.298 41.9372C145.599 42.8185 144.303 43.3629 142.618 43.3629ZM141.036 39.2932C141.036 40.2523 141.866 40.8485 143.162 40.8485C144.095 40.8485 144.873 40.5634 145.339 40.0968C145.806 39.6561 146.065 39.0599 146.065 38.049V37.0899C145.443 37.2454 145.08 37.2973 144.406 37.4009L143.473 37.5565C142.255 37.7638 141.036 37.9971 141.036 39.2932Z" fill="black"/>
<path d="M151.361 43V24.3365H154.601V43H151.361Z" fill="black"/>
<path d="M161.915 43.3629C158.363 43.3629 156.341 41.341 156.134 38.9562H159.374C159.633 40.0968 160.567 40.6671 161.915 40.6671C163.263 40.6671 164.273 40.1486 164.273 39.2155C164.273 38.4896 163.729 38.2304 162.822 38.049L160.307 37.5565C157.586 37.038 156.471 35.5605 156.471 33.5905C156.471 31.4649 158.389 29.4171 161.707 29.4171C165.051 29.4171 166.969 31.439 167.099 33.6682H163.885C163.703 32.6573 162.9 32.1129 161.681 32.1129C160.515 32.1129 159.659 32.6055 159.659 33.409C159.659 34.0311 160.1 34.3681 161.033 34.5237L163.548 35.0162C166.218 35.5346 167.488 36.9344 167.488 39.034C167.488 41.2892 165.44 43.3629 161.915 43.3629Z" fill="black"/>
<path d="M13.6652 31.4829C9.59556 31.4829 7.05525 28.2945 7.05525 24.51C7.05525 20.7255 9.59556 17.5371 13.6652 17.5371C16.9573 17.5371 19.1865 19.6886 19.7827 22.4881H16.4648C16.0241 21.2439 14.9872 20.4922 13.6652 20.4922C11.6174 20.4922 10.2695 22.0993 10.2695 24.51C10.2695 26.9207 11.6174 28.5278 13.6652 28.5278C15.0391 28.5278 16.1019 27.7243 16.5166 26.4023H19.8086C19.2643 29.2796 17.0091 31.4829 13.6652 31.4829ZM21.1195 31.12V17.9H24.2301V19.3257C24.9559 18.3666 26.0964 17.7445 27.8073 17.7445H28.6108V20.8032H27.7813C26.6149 20.8032 25.8891 21.0624 25.3447 21.555C24.7226 22.0734 24.3597 22.9288 24.3597 24.2249V31.12H21.1195Z" fill="black"/>
<path d="M1.56009 23C1.56009 13.9206 8.92143 6.56009 18.0011 6.56009C27.0819 6.56009 34.4441 13.9216 34.4441 23.0021V39.4399H18C8.9205 39.4399 1.56009 32.0795 1.56009 23Z" stroke="black" stroke-width="3.12018"/>
</svg>
