<svg width="101" height="100" viewBox="0 0 101 100" fill="none" xmlns="http://www.w3.org/2000/svg">
<g clip-path="url(#clip0_1460_7099)">
<mask id="mask0_1460_7099" style="mask-type:luminance" maskUnits="userSpaceOnUse" x="0" y="0" width="101" height="100">
<path d="M100.167 0H0.166504V100H100.167V0Z" fill="white"/>
</mask>
<g mask="url(#mask0_1460_7099)">
<path d="M50.1643 100C77.778 100 100.167 77.616 100.167 50.011C100.167 22.3927 77.778 0 50.1643 0C22.546 0 0.166504 22.3927 0.166504 50.011C0.166504 77.616 22.546 100 50.1643 100Z" fill="black"/>
<path d="M34.0112 27.6714C24.5788 27.3054 22.0255 40.7067 21.4434 42.9953C21.4126 43.1585 21.3332 43.2158 21.3332 43.2158C18.4227 42.8189 16.8132 42.2236 16.8132 42.2236L16.1517 44.0978C18.1141 45.0282 21.0024 45.3104 21.0024 45.3104C20.438 48.9132 17.5849 55.6731 17.5849 55.6731C17.5849 55.6731 15.0537 54.9016 11.8522 54.9016C7.68938 54.9016 6.22538 56.8596 6.11953 58.0986C5.84613 61.3091 9.91633 62.8391 12.7342 62.8391C18.2331 62.8391 21.1127 59.8626 21.1127 59.8626C21.1127 59.8626 36.5071 65.7056 52.6424 65.7056C73.7609 65.7056 91.5584 60.0831 91.5584 60.0831L91.0074 58.0986C91.0074 58.0986 78.1089 62.5921 53.4144 62.2881C36.3793 62.0806 23.3176 57.1066 23.3176 57.1066C23.3176 57.1066 23.8115 56.2246 24.0893 55.6731C25.7958 52.1941 27.8376 45.2002 27.8376 45.2002C27.8376 45.2002 39.5234 41.9282 39.5234 32.6324C39.5234 29.6911 36.7144 27.7905 34.0112 27.6714ZM34.4522 30.3173C36.2646 30.3173 36.9173 31.7504 36.7673 33.0734C35.8854 40.8389 28.1683 42.6646 28.1683 42.6646C28.1683 42.6646 30.0336 30.3173 34.4522 30.3173ZM53.1939 36.7114C51.2314 36.7114 49.8863 37.5184 49.8863 39.3573C49.8863 41.2182 51.4564 41.6724 53.1939 41.6724C54.9354 41.6724 56.6114 40.9227 56.6114 39.0265C56.6114 37.1259 54.6134 36.7114 53.1939 36.7114ZM79.3214 43.4363C73.6859 43.4363 70.6344 48.2958 70.5019 51.1531C70.4754 51.7751 70.3919 51.8146 70.3919 51.8146C70.2594 51.9646 68.3189 54.2401 65.8719 54.2401C63.9139 54.2401 63.5564 52.6436 63.5564 51.5941C63.5564 50.4566 64.5269 45.9719 67.1949 45.9719C68.6454 45.9719 69.5099 47.1846 69.5099 47.1846L70.2814 44.649C70.2814 44.649 69.0644 43.6656 66.5334 43.6568C61.0829 43.6524 57.4049 47.6873 57.2729 51.3736C57.2464 51.9251 57.1534 52.1101 57.1624 52.1456C56.9819 52.3661 55.7074 53.9096 53.9654 53.9096C52.7749 53.9096 52.7529 52.9966 52.7529 52.5866C52.7529 52.0266 55.0679 43.9875 55.0679 43.9875L48.8941 44.0978L46.7995 51.9251C46.7995 51.9251 43.3599 54.3461 38.6415 54.6811C36.2073 54.8486 35.3341 53.3451 35.3341 52.4761C35.3342 52.1146 35.3341 52.1456 35.3341 52.1456C35.3386 52.1456 36.3572 52.2556 37.0981 52.2556C37.6801 52.2556 44.9254 51.6956 44.9254 47.2948C44.9254 44.7769 42.3721 43.8773 39.1927 43.8773C33.3145 43.8773 29.1605 47.4889 29.1605 51.8146C29.1605 55.7616 32.5295 57.4371 36.8776 57.4371C41.8121 57.4371 46.6893 54.4606 46.6893 54.4606C46.6893 54.4606 46.9847 57.4371 50.8784 57.4371C54.8959 57.4371 58.0444 54.4606 58.0444 54.4606C58.0444 54.4606 59.7819 57.3271 63.7769 57.3271C67.8604 57.3271 70.9429 54.0196 70.9429 54.0196C70.9429 54.0196 72.0809 57.1066 76.1244 57.1066C79.2864 57.1066 80.9749 55.1221 80.9749 55.1221C80.9749 55.1221 81.8569 57.1066 84.6134 57.1066C87.9779 57.1066 90.4559 54.7916 90.4559 54.7916L89.9049 52.8071C89.9049 52.8071 88.6259 53.7991 87.6999 53.7991C86.9989 53.7991 86.5974 53.2301 86.5974 52.5866C86.5974 51.1401 88.9129 43.9875 88.9129 43.9875L83.2904 44.0978L83.0699 44.9797C83.0699 44.9797 82.2319 43.4363 79.3214 43.4363ZM39.4132 45.6412C40.2422 45.6897 40.8728 46.2497 40.8463 46.8539C40.7096 50.7696 35.8854 50.1611 35.8854 50.1611C35.8854 50.1611 36.5953 45.4692 39.4132 45.6412ZM80.4239 45.7514C81.5839 45.7514 82.1879 46.6731 82.1879 47.4051C82.1879 47.555 81.5309 54.2401 78.2189 54.2401C76.7019 54.2401 76.6754 52.5161 76.6754 52.0351C76.6754 50.7611 77.6764 45.7514 80.4239 45.7514ZM10.7498 57.3271C11.0377 57.2981 11.2712 57.3096 11.5215 57.3271C13.9336 57.4591 16.0415 58.3191 16.0415 58.3191C16.0415 58.3191 13.5588 60.2416 11.5215 60.3036C9.96483 60.3521 8.98588 59.3376 8.98588 58.7601C8.98588 57.8011 9.88593 57.4141 10.7498 57.3271Z" fill="white"/>
</g>
</g>
<defs>
<clipPath id="clip0_1460_7099">
<rect width="100" height="100" fill="white" transform="translate(0.166504)"/>
</clipPath>
</defs>
</svg>
