<svg width="112" height="112" viewBox="0 0 112 112" fill="none" xmlns="http://www.w3.org/2000/svg">
<g clip-path="url(#clip0_1204_6199)">
<mask id="mask0_1204_6199" style="mask-type:luminance" maskUnits="userSpaceOnUse" x="0" y="0" width="112" height="112">
<path d="M112 0H0V112H112V0Z" fill="white"/>
</mask>
<g mask="url(#mask0_1204_6199)">
<path d="M55.9975 112C86.9249 112 112 86.9299 112 56.0123C112 25.0799 86.9249 0 55.9975 0C25.065 0 0 25.0799 0 56.0123C0 86.9299 25.065 112 55.9975 112Z" fill="black"/>
<path d="M37.9062 30.9916C27.3418 30.5817 24.4822 45.5911 23.8303 48.1544C23.7957 48.3371 23.7068 48.4014 23.7068 48.4014C20.4471 47.9568 18.6444 47.2901 18.6444 47.2901L17.9036 49.3891C20.1014 50.4313 23.3363 50.7473 23.3363 50.7473C22.7042 54.7825 19.5087 62.3535 19.5087 62.3535C19.5087 62.3535 16.6737 61.4895 13.0881 61.4895C8.42572 61.4895 6.78604 63.6824 6.66749 65.0701C6.36128 68.6659 10.9199 70.3795 14.0759 70.3795C20.2347 70.3795 23.4598 67.0458 23.4598 67.0458C23.4598 67.0458 40.7016 73.5899 58.7731 73.5899C82.4258 73.5899 102.359 67.2927 102.359 67.2927L101.742 65.0701C101.742 65.0701 87.2956 70.1028 59.6377 69.7623C40.5584 69.5299 25.9293 63.9591 25.9293 63.9591C25.9293 63.9591 26.4825 62.9712 26.7936 62.3535C28.7049 58.4571 30.9917 50.6238 30.9917 50.6238C30.9917 50.6238 44.0799 46.9592 44.0799 36.5479C44.0799 33.2536 40.9338 31.125 37.9062 30.9916ZM38.4001 33.955C40.43 33.955 41.161 35.5601 40.993 37.0418C40.0052 45.7392 31.3621 47.784 31.3621 47.784C31.3621 47.784 33.4513 33.955 38.4001 33.955ZM59.3908 41.1164C57.1928 41.1164 55.6863 42.0203 55.6863 44.0798C55.6863 46.164 57.4448 46.6727 59.3908 46.6727C61.3412 46.6727 63.2184 45.8331 63.2184 43.7094C63.2184 41.5807 60.9806 41.1164 59.3908 41.1164ZM88.6536 48.6483C82.3418 48.6483 78.9241 54.091 78.7757 57.2911C78.746 57.9878 78.6525 58.032 78.6525 58.032C78.5041 58.2 76.3308 60.7486 73.5901 60.7486C71.3972 60.7486 70.9968 58.9605 70.9968 57.7851C70.9968 56.5111 72.0837 51.4882 75.0719 51.4882C76.6964 51.4882 77.6647 52.8464 77.6647 52.8464L78.5288 50.0065C78.5288 50.0065 77.1657 48.9051 74.331 48.8952C68.2264 48.8903 64.1071 53.4094 63.9592 57.5381C63.9296 58.1558 63.8254 58.363 63.8355 58.4027C63.6333 58.6497 62.2059 60.3784 60.2548 60.3784C58.9215 60.3784 58.8968 59.3559 58.8968 58.8967C58.8968 58.2695 61.4896 49.2657 61.4896 49.2657L54.575 49.3891L52.2291 58.1558C52.2291 58.1558 48.3767 60.8673 43.0921 61.2425C40.3658 61.4301 39.3878 59.7462 39.3878 58.7729C39.3879 58.368 39.3878 58.4027 39.3878 58.4027C39.3928 58.4027 40.5337 58.5259 41.3635 58.5259C42.0154 58.5259 50.13 57.8987 50.13 52.9698C50.13 50.1497 47.2704 49.1422 43.7094 49.1422C37.1258 49.1422 32.4734 53.1872 32.4734 58.032C32.4734 62.4527 36.2467 64.3292 41.1165 64.3292C46.6431 64.3292 52.1056 60.9955 52.1056 60.9955C52.1056 60.9955 52.4365 64.3292 56.7974 64.3292C61.297 64.3292 64.8233 60.9955 64.8233 60.9955C64.8233 60.9955 66.7693 64.206 71.2437 64.206C75.8172 64.206 79.2696 60.5016 79.2696 60.5016C79.2696 60.5016 80.5442 63.9591 85.0729 63.9591C88.6144 63.9591 90.5055 61.7364 90.5055 61.7364C90.5055 61.7364 91.4933 63.9591 94.5806 63.9591C98.3488 63.9591 101.124 61.3663 101.124 61.3663L100.507 59.1436C100.507 59.1436 99.0746 60.2547 98.0375 60.2547C97.2524 60.2547 96.8027 59.6174 96.8027 58.8967C96.8027 57.2766 99.396 49.2657 99.396 49.2657L93.0988 49.3891L92.8519 50.3769C92.8519 50.3769 91.9133 48.6483 88.6536 48.6483ZM43.9564 51.1178C44.8849 51.1721 45.5912 51.7993 45.5615 52.476C45.4084 56.8616 40.0052 56.1801 40.0052 56.1801C40.0052 56.1801 40.8004 50.9251 43.9564 51.1178ZM89.8884 51.2412C91.1876 51.2412 91.864 52.2735 91.864 53.0933C91.864 53.2613 91.1282 60.7486 87.4188 60.7486C85.7197 60.7486 85.69 58.8177 85.69 58.279C85.69 56.8521 86.8112 51.2412 89.8884 51.2412ZM11.8534 64.206C12.1759 64.1735 12.4374 64.1864 12.7177 64.206C15.4193 64.3539 17.7801 65.3171 17.7801 65.3171C17.7801 65.3171 14.9994 67.4703 12.7177 67.5397C10.9742 67.594 9.8778 66.4578 9.8778 65.811C9.8778 64.7369 10.8859 64.3035 11.8534 64.206Z" fill="white"/>
</g>
</g>
<defs>
<clipPath id="clip0_1204_6199">
<rect width="112" height="112" fill="white"/>
</clipPath>
</defs>
</svg>
