<svg width="101" height="100" viewBox="0 0 101 100" fill="none" xmlns="http://www.w3.org/2000/svg">
<g clip-path="url(#clip0_1549_5256)">
<mask id="mask0_1549_5256" style="mask-type:luminance" maskUnits="userSpaceOnUse" x="0" y="0" width="101" height="100">
<path d="M100.933 0H0.93335V100H100.933V0Z" fill="white"/>
</mask>
<g mask="url(#mask0_1549_5256)">
<path d="M50.9311 100C78.5448 100 100.933 77.616 100.933 50.011C100.933 22.3927 78.5448 0 50.9311 0C23.3128 0 0.93335 22.3927 0.93335 50.011C0.93335 77.616 23.3128 100 50.9311 100Z" fill="black"/>
<path d="M34.7782 27.6714C25.3457 27.3054 22.7925 40.7067 22.2104 42.9953C22.1795 43.1585 22.1001 43.2158 22.1001 43.2158C19.1897 42.8189 17.5801 42.2236 17.5801 42.2236L16.9187 44.0978C18.881 45.0282 21.7694 45.3104 21.7694 45.3104C21.2049 48.9132 18.3519 55.6731 18.3519 55.6731C18.3519 55.6731 15.8206 54.9016 12.6192 54.9016C8.45635 54.9016 6.99235 56.8596 6.8865 58.0986C6.6131 61.3091 10.6833 62.8391 13.5011 62.8391C19.0001 62.8391 21.8797 59.8626 21.8797 59.8626C21.8797 59.8626 37.2741 65.7056 53.4094 65.7056C74.5279 65.7056 92.3253 60.0831 92.3253 60.0831L91.7744 58.0986C91.7744 58.0986 78.8759 62.5921 54.1814 62.2881C37.1462 62.0806 24.0845 57.1066 24.0845 57.1066C24.0845 57.1066 24.5784 56.2246 24.8562 55.6731C26.5628 52.1941 28.6045 45.2002 28.6045 45.2002C28.6045 45.2002 40.2904 41.9282 40.2904 32.6324C40.2904 29.6911 37.4814 27.7905 34.7782 27.6714ZM35.2192 30.3173C37.0316 30.3173 37.6842 31.7504 37.5343 33.0734C36.6523 40.8389 28.9352 42.6646 28.9352 42.6646C28.9352 42.6646 30.8006 30.3173 35.2192 30.3173ZM53.9608 36.7114C51.9983 36.7114 50.6533 37.5184 50.6533 39.3573C50.6533 41.2182 52.2233 41.6724 53.9608 41.6724C55.7023 41.6724 57.3783 40.9227 57.3783 39.0265C57.3783 37.1259 55.3803 36.7114 53.9608 36.7114ZM80.0883 43.4363C74.4528 43.4363 71.4014 48.2958 71.2689 51.1531C71.2424 51.7751 71.1589 51.8146 71.1589 51.8146C71.0264 51.9646 69.0858 54.2401 66.6388 54.2401C64.6808 54.2401 64.3233 52.6436 64.3233 51.5941C64.3233 50.4566 65.2939 45.9719 67.9619 45.9719C69.4124 45.9719 70.2768 47.1846 70.2768 47.1846L71.0483 44.649C71.0483 44.649 69.8313 43.6656 67.3003 43.6568C61.8498 43.6524 58.1718 47.6873 58.0398 51.3736C58.0133 51.9251 57.9203 52.1101 57.9293 52.1456C57.7488 52.3661 56.4743 53.9096 54.7323 53.9096C53.5418 53.9096 53.5198 52.9966 53.5198 52.5866C53.5198 52.0266 55.8349 43.9875 55.8349 43.9875L49.6611 44.0978L47.5665 51.9251C47.5665 51.9251 44.1269 54.3461 39.4085 54.6811C36.9743 54.8486 36.1011 53.3451 36.1011 52.4761C36.1012 52.1146 36.1011 52.1456 36.1011 52.1456C36.1056 52.1456 37.1242 52.2556 37.8651 52.2556C38.4471 52.2556 45.6923 51.6956 45.6923 47.2948C45.6923 44.7769 43.1391 43.8773 39.9596 43.8773C34.0814 43.8773 29.9275 47.4889 29.9275 51.8146C29.9275 55.7616 33.2965 57.4371 37.6446 57.4371C42.5791 57.4371 47.4562 54.4606 47.4562 54.4606C47.4562 54.4606 47.7517 57.4371 51.6454 57.4371C55.6629 57.4371 58.8113 54.4606 58.8113 54.4606C58.8113 54.4606 60.5489 57.3271 64.5438 57.3271C68.6273 57.3271 71.7098 54.0196 71.7098 54.0196C71.7098 54.0196 72.8478 57.1066 76.8913 57.1066C80.0533 57.1066 81.7419 55.1221 81.7419 55.1221C81.7419 55.1221 82.6238 57.1066 85.3803 57.1066C88.7448 57.1066 91.2228 54.7916 91.2228 54.7916L90.6719 52.8071C90.6719 52.8071 89.3929 53.7991 88.4669 53.7991C87.7659 53.7991 87.3643 53.2301 87.3643 52.5866C87.3643 51.1401 89.6798 43.9875 89.6798 43.9875L84.0574 44.0978L83.8369 44.9797C83.8369 44.9797 82.9988 43.4363 80.0883 43.4363ZM40.1801 45.6412C41.0092 45.6897 41.6398 46.2497 41.6133 46.8539C41.4766 50.7696 36.6524 50.1611 36.6524 50.1611C36.6524 50.1611 37.3623 45.4692 40.1801 45.6412ZM81.1908 45.7514C82.3508 45.7514 82.9548 46.6731 82.9548 47.4051C82.9548 47.555 82.2978 54.2401 78.9858 54.2401C77.4688 54.2401 77.4424 52.5161 77.4424 52.0351C77.4424 50.7611 78.4433 45.7514 81.1908 45.7514ZM11.5167 57.3271C11.8047 57.2981 12.0382 57.3096 12.2884 57.3271C14.7006 57.4591 16.8084 58.3191 16.8084 58.3191C16.8084 58.3191 14.3257 60.2416 12.2884 60.3036C10.7318 60.3521 9.75285 59.3376 9.75285 58.7601C9.75285 57.8011 10.6529 57.4141 11.5167 57.3271Z" fill="white"/>
</g>
</g>
<defs>
<clipPath id="clip0_1549_5256">
<rect width="100" height="100" fill="white" transform="translate(0.93335)"/>
</clipPath>
</defs>
</svg>
