<svg width="255" height="100" viewBox="0 0 255 100" fill="none" xmlns="http://www.w3.org/2000/svg">
<g clip-path="url(#clip0_1549_5263)">
<path d="M105.899 33.1998V66.7998H100.238V40.4332H100.163L90.0492 66.7998H86.2755L75.9356 40.4332H75.8601V66.7998H70.6524V33.1998H78.8036L88.1624 58.0887H88.3133L98.2004 33.1998H105.899ZM110.578 35.7665C110.578 34.8332 110.88 34.0554 111.559 33.4332C112.239 32.8109 112.993 32.4998 113.899 32.4998C114.88 32.4998 115.71 32.8109 116.314 33.4332C116.918 34.0554 117.295 34.8332 117.295 35.7665C117.295 36.6998 116.993 37.4776 116.314 38.0998C115.635 38.722 114.88 39.0332 113.899 39.0332C112.918 39.0332 112.163 38.722 111.559 38.0998C110.955 37.3998 110.578 36.622 110.578 35.7665ZM116.692 42.6887V66.7998H111.182V42.6887H116.692ZM133.371 62.6776C134.201 62.6776 135.107 62.522 136.088 62.0554C137.069 61.6665 137.975 61.122 138.805 60.4998V65.7887C137.9 66.3332 136.919 66.722 135.786 66.9554C134.654 67.1887 133.447 67.3443 132.088 67.3443C128.616 67.3443 125.824 66.2554 123.711 63.9998C121.522 61.7443 120.465 58.8665 120.465 55.4443C120.465 51.5554 121.597 48.3665 123.786 45.8776C125.975 43.3887 129.069 42.1443 133.145 42.1443C134.201 42.1443 135.258 42.2998 136.239 42.5332C137.296 42.7665 138.126 43.1554 138.73 43.4665V48.9109C137.9 48.2887 136.994 47.7443 136.164 47.4332C135.258 47.122 134.352 46.8887 133.447 46.8887C131.258 46.8887 129.522 47.5887 128.164 49.0665C126.805 50.5443 126.201 52.4887 126.201 54.9776C126.201 57.3887 126.88 59.3332 128.164 60.6554C129.447 61.9776 131.183 62.6776 133.371 62.6776ZM154.428 42.2998C154.881 42.2998 155.259 42.2998 155.636 42.3776C156.013 42.4554 156.315 42.5332 156.542 42.6109V48.3665C156.24 48.1332 155.862 47.8998 155.259 47.7443C154.655 47.5887 154.051 47.4332 153.221 47.4332C151.862 47.4332 150.73 48.0554 149.825 49.222C148.919 50.3887 148.391 52.1776 148.391 54.6665V66.7998H142.881V42.6887H148.391V46.4998H148.466C148.994 45.1776 149.749 44.1665 150.73 43.3887C151.787 42.6887 152.994 42.2998 154.428 42.2998ZM156.844 55.1332C156.844 51.1665 157.976 47.9776 160.089 45.6443C162.278 43.3109 165.297 42.1443 169.146 42.1443C172.769 42.1443 175.637 43.2332 177.674 45.4887C179.712 47.7443 180.769 50.7776 180.769 54.5887C180.769 58.4776 179.637 61.5887 177.524 63.922C175.335 66.2554 172.391 67.422 168.618 67.422C164.995 67.422 162.127 66.3332 160.014 64.1554C157.9 61.8998 156.844 58.8665 156.844 55.1332ZM162.58 54.8998C162.58 57.3887 163.108 59.3332 164.24 60.6554C165.372 61.9776 166.957 62.6776 168.995 62.6776C170.957 62.6776 172.542 62.0554 173.599 60.6554C174.655 59.3332 175.184 57.3887 175.184 54.7443C175.184 52.1776 174.655 50.2332 173.599 48.8332C172.542 47.5109 170.957 46.8109 169.07 46.8109C167.033 46.8109 165.523 47.5109 164.391 48.9109C163.108 50.3887 162.58 52.3332 162.58 54.8998ZM188.996 49.0665C188.996 49.8443 189.222 50.5443 189.75 51.0109C190.279 51.4776 191.335 52.022 193.071 52.722C195.26 53.6554 196.845 54.6665 197.675 55.7554C198.581 56.922 199.034 58.2443 199.034 59.8776C199.034 62.1332 198.203 63.922 196.467 65.322C194.807 66.722 192.467 67.3443 189.599 67.3443C188.618 67.3443 187.562 67.1887 186.354 66.9554C185.146 66.722 184.165 66.4109 183.335 66.022V60.422C184.316 61.122 185.448 61.7443 186.58 62.1332C187.712 62.522 188.769 62.7554 189.75 62.7554C190.958 62.7554 191.939 62.5998 192.467 62.2109C193.071 61.822 193.373 61.2776 193.373 60.422C193.373 59.6443 193.071 59.022 192.467 58.3998C191.864 57.8554 190.656 57.2332 188.996 56.5332C186.958 55.6776 185.524 54.6665 184.694 53.5776C183.863 52.4887 183.41 51.0887 183.41 49.3776C183.41 47.1998 184.241 45.4109 185.901 44.0109C187.562 42.6109 189.75 41.9109 192.392 41.9109C193.222 41.9109 194.128 41.9887 195.109 42.222C196.09 42.4554 196.996 42.6887 197.675 42.922V48.4443C196.92 47.9776 196.09 47.5109 195.109 47.122C194.128 46.7332 193.147 46.5776 192.241 46.5776C191.184 46.5776 190.354 46.8109 189.826 47.1998C189.297 47.7443 188.996 48.2887 188.996 49.0665ZM201.373 55.1332C201.373 51.1665 202.505 47.9776 204.619 45.6443C206.807 43.3109 209.826 42.1443 213.676 42.1443C217.298 42.1443 220.166 43.2332 222.204 45.4887C224.242 47.7443 225.299 50.7776 225.299 54.5887C225.299 58.4776 224.166 61.5887 222.053 63.922C219.864 66.2554 216.921 67.422 213.147 67.422C209.524 67.422 206.656 66.3332 204.543 64.1554C202.505 61.8998 201.373 58.8665 201.373 55.1332ZM207.109 54.8998C207.109 57.3887 207.638 59.3332 208.77 60.6554C209.902 61.9776 211.487 62.6776 213.525 62.6776C215.487 62.6776 217.072 62.0554 218.128 60.6554C219.185 59.3332 219.713 57.3887 219.713 54.7443C219.713 52.1776 219.185 50.2332 218.128 48.8332C217.072 47.5109 215.487 46.8109 213.6 46.8109C211.562 46.8109 210.053 47.5109 208.921 48.9109C207.713 50.3887 207.109 52.3332 207.109 54.8998ZM243.639 47.3554H235.412V66.7998H229.827V47.3554H225.902V42.6887H229.827V39.3443C229.827 36.8554 230.657 34.7554 232.242 33.122C233.827 31.4887 235.865 30.7109 238.355 30.7109C239.035 30.7109 239.639 30.7887 240.167 30.7887C240.695 30.7887 241.148 30.9443 241.525 31.0998V35.9998C241.374 35.922 240.997 35.7665 240.544 35.6109C240.091 35.4554 239.563 35.3776 238.959 35.3776C237.827 35.3776 236.921 35.7665 236.318 36.4665C235.714 37.1665 235.412 38.3332 235.412 39.7332V42.6109H243.639V37.1665L249.148 35.4554V42.6109H254.733V47.2776H249.148V58.5554C249.148 60.0332 249.45 61.0443 249.903 61.6665C250.431 62.2887 251.262 62.5998 252.394 62.5998C252.696 62.5998 253.073 62.522 253.526 62.3665C253.979 62.2109 254.356 62.0554 254.658 61.822V66.4887C254.28 66.722 253.752 66.8776 252.922 67.0332C252.092 67.1887 251.337 67.2665 250.507 67.2665C248.167 67.2665 246.431 66.6443 245.299 65.3998C244.167 64.1554 243.563 62.2109 243.563 59.6443L243.639 47.3554Z" fill="black"/>
<path d="M25.7454 22H-0.0666504V48.6H25.7454V22Z" fill="black"/>
<path d="M54.2746 22H28.4625V48.6H54.2746V22Z" fill="black"/>
<path d="M25.7454 51.4004H-0.0666504V78.0004H25.7454V51.4004Z" fill="black"/>
<path d="M54.2746 51.4004H28.4625V78.0004H54.2746V51.4004Z" fill="black"/>
</g>
<defs>
<clipPath id="clip0_1549_5263">
<rect width="255" height="100" fill="white"/>
</clipPath>
</defs>
</svg>
