<svg width="255" height="56" viewBox="0 0 255 56" fill="none" xmlns="http://www.w3.org/2000/svg">
<g clip-path="url(#clip0_1460_7093)">
<path d="M106.132 11.1998V44.7998H100.472V18.4332H100.396L90.2825 44.7998H86.5089L76.1689 18.4332H76.0934V44.7998H70.8857V11.1998H79.0369L88.3957 36.0887H88.5466L98.4337 11.1998H106.132ZM110.811 13.7665C110.811 12.8332 111.113 12.0554 111.793 11.4332C112.472 10.8109 113.227 10.4998 114.132 10.4998C115.113 10.4998 115.944 10.8109 116.547 11.4332C117.151 12.0554 117.529 12.8332 117.529 13.7665C117.529 14.6998 117.227 15.4776 116.547 16.0998C115.868 16.722 115.113 17.0332 114.132 17.0332C113.151 17.0332 112.396 16.722 111.793 16.0998C111.189 15.3998 110.811 14.622 110.811 13.7665ZM116.925 20.6887V44.7998H111.415V20.6887H116.925ZM133.605 40.6776C134.435 40.6776 135.34 40.522 136.322 40.0554C137.303 39.6665 138.208 39.122 139.039 38.4998V43.7887C138.133 44.3332 137.152 44.722 136.02 44.9554C134.888 45.1887 133.68 45.3443 132.322 45.3443C128.85 45.3443 126.057 44.2554 123.944 41.9998C121.755 39.7443 120.699 36.8665 120.699 33.4443C120.699 29.5554 121.831 26.3665 124.019 23.8776C126.208 21.3887 129.303 20.1443 133.378 20.1443C134.435 20.1443 135.491 20.2998 136.473 20.5332C137.529 20.7665 138.359 21.1554 138.963 21.4665V26.9109C138.133 26.2887 137.227 25.7443 136.397 25.4332C135.491 25.122 134.586 24.8887 133.68 24.8887C131.491 24.8887 129.755 25.5887 128.397 27.0665C127.038 28.5443 126.435 30.4887 126.435 32.9776C126.435 35.3887 127.114 37.3332 128.397 38.6554C129.68 39.9776 131.416 40.6776 133.605 40.6776ZM154.662 20.2998C155.115 20.2998 155.492 20.2998 155.869 20.3776C156.247 20.4554 156.549 20.5332 156.775 20.6109V26.3665C156.473 26.1332 156.096 25.8998 155.492 25.7443C154.888 25.5887 154.284 25.4332 153.454 25.4332C152.096 25.4332 150.964 26.0554 150.058 27.222C149.152 28.3887 148.624 30.1776 148.624 32.6665V44.7998H143.114V20.6887H148.624V24.4998H148.699C149.228 23.1776 149.982 22.1665 150.964 21.3887C152.02 20.6887 153.228 20.2998 154.662 20.2998ZM157.077 33.1332C157.077 29.1665 158.209 25.9776 160.322 23.6443C162.511 21.3109 165.53 20.1443 169.379 20.1443C173.002 20.1443 175.87 21.2332 177.908 23.4887C179.946 25.7443 181.002 28.7776 181.002 32.5887C181.002 36.4776 179.87 39.5887 177.757 41.9221C175.568 44.2554 172.625 45.4221 168.851 45.4221C165.228 45.4221 162.36 44.3332 160.247 42.1554C158.134 39.8998 157.077 36.8665 157.077 33.1332ZM162.813 32.8998C162.813 35.3887 163.341 37.3332 164.473 38.6554C165.606 39.9776 167.19 40.6776 169.228 40.6776C171.191 40.6776 172.776 40.0554 173.832 38.6554C174.889 37.3332 175.417 35.3887 175.417 32.7443C175.417 30.1776 174.889 28.2332 173.832 26.8332C172.776 25.5109 171.191 24.8109 169.304 24.8109C167.266 24.8109 165.756 25.5109 164.624 26.9109C163.341 28.3887 162.813 30.3332 162.813 32.8998ZM189.229 27.0665C189.229 27.8443 189.455 28.5443 189.984 29.0109C190.512 29.4776 191.569 30.022 193.304 30.722C195.493 31.6554 197.078 32.6665 197.908 33.7554C198.814 34.9221 199.267 36.2443 199.267 37.8776C199.267 40.1332 198.437 41.9221 196.701 43.322C195.04 44.722 192.701 45.3443 189.833 45.3443C188.852 45.3443 187.795 45.1887 186.587 44.9554C185.38 44.722 184.399 44.4109 183.568 44.022V38.4221C184.549 39.122 185.682 39.7443 186.814 40.1332C187.946 40.522 189.002 40.7554 189.984 40.7554C191.191 40.7554 192.172 40.5998 192.701 40.2109C193.304 39.822 193.606 39.2776 193.606 38.4221C193.606 37.6443 193.304 37.022 192.701 36.3998C192.097 35.8554 190.889 35.2332 189.229 34.5332C187.191 33.6776 185.757 32.6665 184.927 31.5776C184.097 30.4887 183.644 29.0887 183.644 27.3776C183.644 25.1998 184.474 23.4109 186.134 22.0109C187.795 20.6109 189.984 19.9109 192.625 19.9109C193.455 19.9109 194.361 19.9887 195.342 20.222C196.323 20.4554 197.229 20.6887 197.908 20.922V26.4443C197.154 25.9776 196.323 25.5109 195.342 25.122C194.361 24.7332 193.38 24.5776 192.474 24.5776C191.418 24.5776 190.587 24.8109 190.059 25.1998C189.531 25.7443 189.229 26.2887 189.229 27.0665ZM201.607 33.1332C201.607 29.1665 202.739 25.9776 204.852 23.6443C207.041 21.3109 210.06 20.1443 213.909 20.1443C217.532 20.1443 220.4 21.2332 222.437 23.4887C224.475 25.7443 225.532 28.7776 225.532 32.5887C225.532 36.4776 224.4 39.5887 222.286 41.9221C220.098 44.2554 217.154 45.4221 213.381 45.4221C209.758 45.4221 206.89 44.3332 204.777 42.1554C202.739 39.8998 201.607 36.8665 201.607 33.1332ZM207.343 32.8998C207.343 35.3887 207.871 37.3332 209.003 38.6554C210.135 39.9776 211.72 40.6776 213.758 40.6776C215.72 40.6776 217.305 40.0554 218.362 38.6554C219.418 37.3332 219.947 35.3887 219.947 32.7443C219.947 30.1776 219.418 28.2332 218.362 26.8332C217.305 25.5109 215.72 24.8109 213.833 24.8109C211.796 24.8109 210.286 25.5109 209.154 26.9109C207.946 28.3887 207.343 30.3332 207.343 32.8998ZM243.872 25.3554H235.645V44.7998H230.06V25.3554H226.136V20.6887H230.06V17.3443C230.06 14.8554 230.89 12.7554 232.475 11.122C234.06 9.48872 236.098 8.71094 238.589 8.71094C239.268 8.71094 239.872 8.78872 240.4 8.78872C240.929 8.78872 241.381 8.94427 241.759 9.09983V13.9998C241.608 13.922 241.23 13.7665 240.778 13.6109C240.325 13.4554 239.796 13.3776 239.193 13.3776C238.061 13.3776 237.155 13.7665 236.551 14.4665C235.947 15.1665 235.645 16.3332 235.645 17.7332V20.6109H243.872V15.1665L249.382 13.4554V20.6109H254.967V25.2776H249.382V36.5554C249.382 38.0332 249.684 39.0443 250.136 39.6665C250.665 40.2887 251.495 40.5998 252.627 40.5998C252.929 40.5998 253.306 40.522 253.759 40.3665C254.212 40.2109 254.589 40.0554 254.891 39.822V44.4887C254.514 44.722 253.986 44.8776 253.155 45.0332C252.325 45.1887 251.57 45.2665 250.74 45.2665C248.4 45.2665 246.665 44.6443 245.532 43.3998C244.4 42.1554 243.797 40.2109 243.797 37.6443L243.872 25.3554Z" fill="black"/>
<path d="M25.9786 0H0.166504V26.6H25.9786V0Z" fill="black"/>
<path d="M54.5079 0H28.6958V26.6H54.5079V0Z" fill="black"/>
<path d="M25.9786 29.4004H0.166504V56.0004H25.9786V29.4004Z" fill="black"/>
<path d="M54.5079 29.4004H28.6958V56.0004H54.5079V29.4004Z" fill="black"/>
</g>
<defs>
<clipPath id="clip0_1460_7093">
<rect width="254.8" height="56" fill="white" transform="translate(0.166504)"/>
</clipPath>
</defs>
</svg>
