<svg width="101" height="100" viewBox="0 0 101 100" fill="none" xmlns="http://www.w3.org/2000/svg">
<g clip-path="url(#clip0_1536_4086)">
<path d="M100.733 0.00195312H0.733398V100.002H100.733V0.00195312Z" fill="#D3D3D3"/>
<path d="M76.4971 70.8125C54.2631 74.7365 32.0001 79.9543 9.8039 86.5153C6.7679 87.413 3.7439 88.333 0.733398 89.2743V97.1123C4.48565 96.0805 8.2379 95.0103 11.9879 93.9023C34.1826 87.339 55.7041 79.6115 76.4971 70.8125Z" fill="url(#paint0_linear_1536_4086)"/>
<path d="M82.8096 56.1055C61.4691 60.645 40.1139 66.3525 18.8319 73.272C12.7446 75.2507 6.7109 77.3135 0.733398 79.4582V86.0577C7.4839 84.109 14.2301 82.0397 20.9694 79.8487C42.2506 72.9292 62.8806 64.9845 82.8096 56.1055Z" fill="url(#paint1_linear_1536_4086)"/>
<path d="M88.8596 42.0625C68.3307 47.133 47.8034 53.2935 27.3614 60.5812C18.3586 63.7907 9.48115 67.1795 0.733398 70.7415V76.1268C10.3391 73.2033 19.9356 70.0367 29.5134 66.623C49.9554 59.3345 69.7516 51.121 88.8596 42.0625Z" fill="url(#paint2_linear_1536_4086)"/>
<path d="M94.6334 28.5957C74.8741 34.2005 55.1284 40.8185 35.4786 48.479C23.6634 53.0855 12.0791 57.9935 0.733398 63.185V67.1375C13.0559 63.1602 25.3622 58.7837 37.6334 54.0005C57.2809 46.3392 76.2976 37.8445 94.6334 28.5957Z" fill="url(#paint3_linear_1536_4086)"/>
<path d="M100.199 15.6035C81.1649 21.7463 62.1559 28.828 43.2501 36.8725C28.7026 43.063 14.5246 49.691 0.733398 56.726V59.0595C15.6546 53.9223 30.5517 48.2048 45.3867 41.8933C64.2909 33.8485 82.5759 25.0595 100.199 15.6035Z" fill="url(#paint4_linear_1536_4086)"/>
<path d="M100.733 5.76858V4.79883C84.0274 11.0313 67.3534 17.9863 50.7669 25.6741C33.5349 33.6628 16.8459 42.2353 0.733398 51.3343V51.8888C18.1641 45.4518 35.5641 38.2308 52.8696 30.2098C69.3291 22.5793 85.2914 14.4151 100.733 5.76858Z" fill="url(#paint5_linear_1536_4086)"/>
<path d="M7.11267 43.0555C24.8227 35.8082 42.4979 27.7607 60.0704 18.9012C72.0504 12.8597 83.7587 6.55145 95.1822 0.00195312H89.2119C78.7882 4.66545 68.3852 9.60895 58.0192 14.8355C40.4494 23.6952 23.4682 33.1247 7.11267 43.0555Z" fill="url(#paint6_linear_1536_4086)"/>
<path d="M15.9531 33.5425C33.0384 25.7272 50.0929 17.179 67.0476 7.89045C71.7781 5.2982 76.4636 2.6682 81.1059 0.00195312H72.9924C70.3504 1.4107 67.7096 2.83845 65.0719 4.28445C48.1176 13.5735 31.7336 23.3475 15.9531 33.5425Z" fill="url(#paint7_linear_1536_4086)"/>
<path d="M68.7711 0.00195312H61.8004C49.0954 7.79995 36.7321 15.8402 24.7301 24.0927C39.4461 16.5975 54.1436 8.56795 68.7711 0.00195312Z" fill="url(#paint8_linear_1536_4086)"/>
<path d="M58.4936 0.00195312H54.0989C47.1289 4.8202 40.2721 9.7002 33.5309 14.6367C41.8594 9.92545 50.1841 5.04745 58.4936 0.00195312Z" fill="url(#paint9_linear_1536_4086)"/>
<path d="M36.9786 96.3512L42.3781 72.0224L49.0324 72.0232L46.1316 84.9629L51.5064 78.4747H58.9466L52.2701 86.5862L55.0226 96.3514H48.3834L45.6394 87.0992L43.4661 96.3514H36.9786V96.3512ZM12.9514 84.1224L17.6399 96.3509H24.0171L29.5129 72.0222L22.9446 72.0229L20.1644 84.3982L15.5634 72.0152H8.90411L3.47461 96.3512H10.1716C10.9319 92.4519 11.9494 88.3337 12.9514 84.1224ZM33.7921 96.3512L37.7759 78.4844H31.2399L27.2569 96.3512H33.7921ZM31.5749 74.5702C31.5749 75.1309 31.7066 77.1132 35.2836 77.1132C38.2549 77.1132 39.4006 75.2092 39.4006 73.7877C39.4006 72.8307 38.6184 71.1699 35.6904 71.1699C32.9934 71.1702 31.5749 72.9734 31.5749 74.5702ZM94.4381 78.2434C91.6436 77.4112 88.1806 78.7919 86.4714 81.1577C86.6374 80.4244 86.8149 79.5717 87.0156 78.5897H80.3834L76.5021 96.3512H83.1024L85.3041 86.2772C85.7089 84.4232 87.1996 83.6309 88.5199 83.9722C89.0891 84.1262 89.8721 84.5564 89.6129 86.1012L87.3726 96.3509H93.8951L96.8849 82.6717C97.5184 79.6569 95.0424 78.4244 94.4381 78.2434ZM72.2449 94.7399C75.1101 92.3969 76.5271 88.4354 76.4816 84.7082C76.4331 81.1257 73.3991 77.7274 68.1209 77.7274C58.0591 77.7274 56.5956 85.5702 56.3049 87.0017C55.5681 90.6227 56.3876 95.3227 61.1139 96.5682C64.2324 97.3914 69.1089 97.3022 72.2449 94.7399ZM64.8636 84.3847C65.3366 83.0814 66.6244 82.7929 67.2064 82.7872C68.6486 82.7749 69.0434 83.6302 68.9179 84.4359C68.5709 86.6697 67.7971 89.5042 67.5114 90.4077C67.5079 90.4197 67.5056 90.4312 67.5021 90.4412C67.1879 91.4279 66.2581 92.0024 65.1636 92.0024C64.0556 92.0024 63.3859 91.3057 63.4814 90.4177C63.6439 88.9187 64.5929 85.1294 64.8636 84.3847Z" fill="#150301"/>
</g>
<defs>
<linearGradient id="paint0_linear_1536_4086" x1="-57.3593" y1="110.388" x2="79.2729" y2="69.9941" gradientUnits="userSpaceOnUse">
<stop stop-color="#EEEEEE"/>
<stop offset="0.34" stop-color="white"/>
<stop offset="0.66" stop-color="white"/>
<stop offset="1" stop-color="#EEEEEE"/>
</linearGradient>
<linearGradient id="paint1_linear_1536_4086" x1="-45.6281" y1="97.8644" x2="85.5543" y2="55.2154" gradientUnits="userSpaceOnUse">
<stop stop-color="#EEEEEE"/>
<stop offset="0.355" stop-color="white"/>
<stop offset="0.645" stop-color="white"/>
<stop offset="1" stop-color="#EEEEEE"/>
</linearGradient>
<linearGradient id="paint2_linear_1536_4086" x1="-34.5969" y1="86.0723" x2="91.5649" y2="41.0987" gradientUnits="userSpaceOnUse">
<stop stop-color="#EEEEEE"/>
<stop offset="0.37" stop-color="white"/>
<stop offset="0.63" stop-color="white"/>
<stop offset="1" stop-color="#EEEEEE"/>
</linearGradient>
<linearGradient id="paint3_linear_1536_4086" x1="-24.146" y1="74.9065" x2="97.2893" y2="27.56" gradientUnits="userSpaceOnUse">
<stop stop-color="#EEEEEE"/>
<stop offset="0.385" stop-color="white"/>
<stop offset="0.615" stop-color="white"/>
<stop offset="1" stop-color="#EEEEEE"/>
</linearGradient>
<linearGradient id="paint4_linear_1536_4086" x1="-14.1224" y1="64.2486" x2="102.859" y2="14.4731" gradientUnits="userSpaceOnUse">
<stop stop-color="#EEEEEE"/>
<stop offset="0.4" stop-color="white"/>
<stop offset="0.6" stop-color="white"/>
<stop offset="1" stop-color="#EEEEEE"/>
</linearGradient>
<linearGradient id="paint5_linear_1536_4086" x1="-4.534" y1="54.0634" x2="108.272" y2="1.77183" gradientUnits="userSpaceOnUse">
<stop stop-color="#EEEEEE"/>
<stop offset="0.415" stop-color="white"/>
<stop offset="0.585" stop-color="white"/>
<stop offset="1" stop-color="#EEEEEE"/>
</linearGradient>
<linearGradient id="paint6_linear_1536_4086" x1="4.62318" y1="44.3092" x2="113.532" y2="-10.6086" gradientUnits="userSpaceOnUse">
<stop stop-color="#EEEEEE"/>
<stop offset="0.43" stop-color="white"/>
<stop offset="0.57" stop-color="white"/>
<stop offset="1" stop-color="#EEEEEE"/>
</linearGradient>
<linearGradient id="paint7_linear_1536_4086" x1="13.5482" y1="34.8601" x2="118.71" y2="-22.7614" gradientUnits="userSpaceOnUse">
<stop stop-color="#EEEEEE"/>
<stop offset="0.445" stop-color="white"/>
<stop offset="0.555" stop-color="white"/>
<stop offset="1" stop-color="#EEEEEE"/>
</linearGradient>
<linearGradient id="paint8_linear_1536_4086" x1="22.3592" y1="25.5405" x2="123.686" y2="-34.744" gradientUnits="userSpaceOnUse">
<stop stop-color="#EEEEEE"/>
<stop offset="0.46" stop-color="white"/>
<stop offset="0.54" stop-color="white"/>
<stop offset="1" stop-color="#EEEEEE"/>
</linearGradient>
<linearGradient id="paint9_linear_1536_4086" x1="31.2611" y1="16.1667" x2="128.841" y2="-46.8388" gradientUnits="userSpaceOnUse">
<stop stop-color="#EEEEEE"/>
<stop offset="0.475" stop-color="white"/>
<stop offset="0.525" stop-color="white"/>
<stop offset="1" stop-color="#EEEEEE"/>
</linearGradient>
<clipPath id="clip0_1536_4086">
<rect width="100" height="100" fill="white" transform="translate(0.733398 0.00195312)"/>
</clipPath>
</defs>
</svg>
