<svg width="114" height="100" viewBox="0 0 114 100" fill="none" xmlns="http://www.w3.org/2000/svg">
<path d="M8.28607 75.6665H12.9638C14.4775 75.6665 15.7177 75.3833 16.5966 74.7486C17.4755 74.1138 17.915 73.0689 17.915 71.8677C17.915 70.6665 17.4755 69.6314 16.5966 68.9868C15.7177 68.3521 14.5165 68.0689 12.9638 68.0689H5.76654V80.5396H8.28607V75.6665ZM15.4736 71.8775C15.4736 72.4732 15.3173 72.7173 14.956 72.9517C14.5556 73.1958 13.7939 73.3521 12.6415 73.3521H8.28607V70.4321H12.6415C13.8037 70.4321 14.5556 70.5884 14.956 70.8325C15.3173 70.9986 15.4345 71.2329 15.4736 71.8775ZM27.0263 80.7837C25.6298 80.7837 24.0673 80.5884 22.788 79.7486C21.5087 78.9478 20.5908 77.4732 20.6298 75.2759V68.0396H23.1494V75.2759C23.1884 77.4341 24.3115 78.4302 27.0263 78.4693C29.7412 78.3911 30.8642 77.4341 30.9033 75.2759V68.0396H33.4228V75.2759C33.4228 77.4732 32.5439 78.9478 31.2646 79.7486C29.9853 80.5884 28.4228 80.7837 27.0263 80.7837ZM47.163 80.0708C48.4423 79.6704 49.6044 78.5962 49.5654 76.7505C49.5654 75.2759 48.8037 74.397 48.0908 73.9087C48.6865 73.4693 49.2138 72.7466 49.2138 71.5552C49.2529 69.8364 48.2568 68.8404 47.1728 68.44C46.0986 68.0005 44.9365 68.0396 44.2529 68.0396H37.1044V80.5103H43.4619C44.4482 80.5103 45.8837 80.5103 47.163 80.0708ZM46.3232 77.8735C45.8447 78.0689 45.122 78.1568 44.3212 78.1568H39.6044V75.1587H44.5165C45.4736 75.1587 46.1572 75.315 46.5185 75.5982C46.8798 75.8423 47.0361 76.1548 47.0361 76.7212C47.0068 77.3853 46.8017 77.6294 46.3232 77.8735ZM46.1279 72.4732C45.6884 72.7173 44.9267 72.8736 43.8525 72.8736H39.6142V70.354H43.374C44.331 70.354 45.288 70.354 45.8544 70.5493C46.4501 70.7447 46.6552 70.9107 46.6552 71.5845C46.6845 72.0337 46.5283 72.2388 46.1279 72.4732ZM64.3896 80.5103H53.2763V68.0396H55.7958V78.147H64.3896V80.5103ZM66.8212 68.0396H69.3408V80.5103H66.8212V68.0396ZM86.2451 76.6724L86.0009 77.1118C84.8388 79.5142 82.6025 80.7837 79.4482 80.7837H79.3701C77.2509 80.7837 75.4931 80.188 74.2529 79.0259C73.0126 77.9029 72.3388 76.2329 72.3388 74.27C72.3388 72.2681 72.9736 70.5982 74.2138 69.4751C75.454 68.313 77.2119 67.7173 79.3701 67.7173C83.0908 67.7173 85.1611 69.6314 85.8447 71.3892L86.04 71.8286L83.8037 72.8638L83.6083 72.3853C83.0126 70.9888 81.8115 70.0708 79.3701 70.0318C76.3329 70.1099 74.9365 71.4673 74.8974 74.4654C74.9365 76.9458 76.538 78.3814 79.5361 78.4204C81.6943 78.4204 82.9736 77.5415 83.8134 75.979L84.0576 75.5396L86.2451 76.6724ZM89.1161 80.5103V68.0396H91.6357V80.5103H89.1161ZM107.739 76.7505C107.739 77.7466 107.261 78.8306 106.265 79.5923C105.229 80.354 103.706 80.8325 101.509 80.8325H101.392C97.2314 80.8325 95.7177 78.7525 94.9951 77.9908L94.6337 77.5904L96.5869 75.9107L96.9091 76.272C97.3876 76.7896 97.9833 78.3911 101.665 78.4302C101.987 78.4302 102.983 78.3911 103.823 78.147C104.702 77.8638 105.259 77.4634 105.259 76.7505C105.259 76.272 105.015 76.0279 104.263 75.7544C103.54 75.5103 102.466 75.3931 101.343 75.2759C100.063 75.1587 98.6279 75.0318 97.4658 74.5532C96.3036 74.1138 95.3466 73.1958 95.3466 71.6724C95.3466 70.3931 95.9033 69.3579 96.9872 68.6743C98.0224 67.9907 99.4677 67.7173 101.265 67.7173C105.376 67.6782 107.056 69.8755 107.378 70.315L107.7 70.7154L105.825 72.229L105.503 71.8677C105.024 71.3501 104.224 70.0708 101.226 70.0318C100.542 70.0318 99.624 70.1099 98.9501 70.354C98.2665 70.6372 97.915 70.9107 97.915 71.5161C97.954 71.9947 98.1103 72.1997 98.8329 72.4341C99.5165 72.6782 100.513 72.7564 101.626 72.8736C102.983 72.9907 104.419 73.1177 105.62 73.6353C106.782 74.0747 107.739 75.1099 107.739 76.7505ZM17.0361 90.6177H24.0283V97.2876H21.6747V96.4478C20.7958 97.0435 19.4384 97.5708 17.5634 97.5708H17.5244C15.4052 97.5708 13.6474 96.9751 12.4072 95.813C11.1669 94.6509 10.4931 93.02 10.4931 91.0571C10.4931 89.0552 11.1279 87.3853 12.3681 86.2622C13.6083 85.1001 15.3662 84.5435 17.4853 84.5435C20.6005 84.5435 22.9638 86.0181 23.7939 88.0591L23.9501 88.4986L21.7919 89.6607L21.5966 89.1431C20.7958 87.1411 18.4814 86.8677 17.4365 86.8677C14.4384 86.9458 13.081 88.3032 13.0029 91.2622C13.0419 93.7427 14.6435 95.1782 17.5537 95.2173C19.2724 95.2173 20.9912 94.4556 21.4697 93.02H17.0361V90.6177ZM40.415 88.5376C40.415 87.3365 39.9755 86.3404 39.0576 85.6958C38.1787 85.0611 36.9384 84.7779 35.3857 84.7779H28.2763V97.2486H30.7958V92.2095H34.3896L38.0224 97.2486H41.1376L37.2997 92.0533C38.8134 91.731 40.3662 90.6568 40.415 88.5376ZM37.9345 88.5376C37.8954 89.1724 37.7392 89.3775 37.2997 89.6118C36.8212 89.8072 36.0595 89.9341 35.0634 89.9341H30.7861V87.1411H35.0634C36.0595 87.1411 36.8603 87.2193 37.2997 87.4634C37.7392 87.7076 37.9345 87.9029 37.9345 88.5376ZM50.122 84.5044C48.0029 84.5044 46.1669 85.1392 44.8876 86.3013C43.6083 87.4634 42.8857 89.1431 42.8857 91.0962C42.8857 93.2935 43.8427 94.9341 45.2001 96.0083C46.5966 97.0435 48.3544 97.5708 50.0732 97.5708C51.7919 97.5708 53.5497 97.0923 54.9462 96.0083C56.3427 94.9732 57.2997 93.2935 57.2997 91.0962C57.2997 89.1431 56.5771 87.4634 55.2978 86.3013C54.0771 85.1392 52.2802 84.5044 50.122 84.5044ZM54.7997 90.8521C54.7607 94.1333 52.4853 95.1294 50.122 95.2075C47.7685 95.1685 45.4833 94.1333 45.4443 90.8521C45.4443 88.4497 47.2412 86.8579 50.122 86.8189C52.9931 86.8579 54.7997 88.4595 54.7997 90.8521ZM70.415 84.7779H72.9345V92.0142C72.9345 94.2114 72.0556 95.6861 70.7763 96.4868C69.497 97.2876 67.9345 97.522 66.538 97.522C65.1415 97.522 63.579 97.3267 62.2997 96.4868C61.0204 95.6861 60.1025 94.2114 60.1415 92.0142V84.7779H62.6611V92.0142C62.7001 94.2114 63.8232 95.1685 66.538 95.2075C69.2529 95.1294 70.3759 94.1724 70.415 92.0142V84.7779ZM87.163 85.7447C86.2841 85.1099 85.083 84.8267 83.5302 84.8267H76.2939V97.2974H78.8134V92.4634H83.5302C85.0439 92.4634 86.2841 92.1802 87.163 91.5454C88.0419 90.9107 88.4814 89.8657 88.4814 88.6646C88.4814 87.4146 88.0419 86.3794 87.163 85.7447ZM86.0009 88.6157C86.0009 89.2114 85.8447 89.4556 85.4833 89.69C85.083 89.9341 84.3212 90.0904 83.1689 90.0904H78.8134V87.1314H83.1689C84.331 87.1314 85.122 87.2876 85.4833 87.5318C85.8837 87.7759 86.0009 88.02 86.0009 88.6157ZM93.4716 94.895H102.466V97.2486H90.9619V84.7779H102.27V87.1314H93.4814V89.5728H100.835V91.9263H93.4814L93.4716 94.895Z" fill="black"/>
<path d="M90.0341 61.6822L82.5634 57.2486C84.038 57.4439 85.3564 56.7701 86.5966 55.8912L88.872 58.6841L87.4755 55.2466C88.9892 54.0455 90.2294 52.7662 91.7919 52.7271C96.0302 52.6099 93.0712 57.6783 94.5849 57.7173C96.3036 57.7173 98.1786 52.0826 94.0283 49.6021C89.7509 47.0044 86.0009 50.7642 82.9638 50.1197L94.3115 45.0415H77.7294L77.1337 43.9185C80.1318 45.2759 82.29 43.9966 83.6865 42.6001L88.4033 43.2837L84.4872 41.7701C85.4052 40.813 86.206 40.0513 87.2021 40.4126C88.5986 40.9302 89.4384 42.1705 91.8408 42.2095C95.9521 42.2486 98.9501 34.9732 93.5204 31.7798C93.9208 36.9751 91.5185 37.2583 87.29 34.4947L88.7255 32.1412L86.5673 34.0162C82.5341 32.2193 80.5712 35.774 78.8525 36.9361C77.1337 38.0982 75.5712 35.774 73.54 38.5376C76.6161 37.5415 78.1786 40.4517 80.2099 38.5376C79.3701 43.772 76.372 36.9361 73.374 39.5337C75.9716 39.7291 77.329 42.0533 79.3701 42.0533C83.1689 42.0533 79.7704 34.7388 85.122 34.7388L84.2431 34.1822C87.2802 33.899 87.4365 36.9361 91.997 36.9751C92.4755 37.6587 90.7958 37.7369 89.6435 37.3365C89.4482 38.2935 95.8349 40.4908 94.3212 33.2251C96.3232 34.2994 95.8837 38.899 93.999 40.6177C93.6376 40.94 93.2763 41.1353 93.081 40.774C92.5634 40.0123 93.8818 40.0123 94.2822 38.8208C92.8466 40.0611 90.4052 39.983 88.7255 38.4205C87.0458 36.858 84.5654 34.983 83.4911 38.2642C82.4169 41.5455 81.538 43.0591 79.5751 43.0591C76.8603 43.0982 73.9794 38.5865 70.9814 41.0572C76.7333 41.5748 78.0908 50.7251 83.1298 50.8423C87.0458 50.8423 87.9247 49.1236 90.4833 49.1236C93.0419 49.1236 95.7177 50.481 95.7177 53.8404C95.7177 55.8814 94.6435 57.0337 94.6435 57.0337C94.6435 57.0337 95.4443 55.3931 95.0439 53.274C94.6826 51.272 92.9638 50.0416 90.6884 50.0416C87.5341 50.0416 85.0146 55.1978 81.499 55.1978C74.4677 55.1978 72.6708 41.6529 65.3564 43.733C70.747 47.3658 71.3525 53.2447 74.2626 55.481C77.2216 57.7564 80.7372 56.8384 82.6513 58.5181C83.4521 59.2017 83.7744 60.3931 84.0478 61.6724H83.3642C83.1201 61.0376 82.7685 60.3931 82.2021 59.9146C80.5224 58.1568 75.454 58.9185 73.1298 56.438C70.8154 53.9185 69.0966 46.4087 64.5361 45.2466C68.5302 47.8052 69.4091 54.397 72.2509 57.6294C75.0927 60.8619 78.8818 59.1431 80.6005 60.8228C80.9228 61.1451 81.1572 61.4185 81.4013 61.7017H78.1201C77.8369 61.6626 77.5244 61.6236 77.163 61.6236C76.6454 61.6236 76.0888 61.6626 75.5615 61.7017H71.206C70.6103 61.5064 70.0439 61.2232 69.5654 60.7056C67.29 58.3033 67.5244 55.7935 67.6904 52.8345C68.1298 55.6275 68.6474 62.024 73.4423 61.3013C67.4072 59.2212 70.9228 48.9185 63.5693 46.2818C62.7685 45.9986 63.0517 43.4009 65.0439 43.0005C61.0497 43.7623 61.0888 42.3169 63.8818 39.4068C62.163 40.5298 60.249 40.2076 59.8486 41.4478C59.8486 41.4478 63.1298 46.565 63.1298 47.5611C63.1298 48.5572 60.9716 52.6001 60.7275 52.7173C59.9267 53.1568 57.29 53.1568 56.6552 52.9615C55.9716 52.7662 55.1415 50.5591 55.454 49.8853C55.9716 48.8111 59.9658 47.9322 60.0536 46.3697C60.0927 45.1294 58.413 45.0123 58.4911 45.647C59.4482 45.9693 59.8876 47.4048 57.0165 48.0884L57.6513 47.0533C57.6513 47.0533 55.5322 48.733 55.415 48.8111C55.2978 48.8892 54.8193 48.9283 54.497 48.8111C54.1747 48.733 51.1376 47.2486 51.6552 45.813C51.6552 45.813 52.5732 46.2134 54.8876 46.2134C57.2021 46.2134 57.4072 45.2173 57.4072 45.2173C57.4072 45.2173 56.1669 45.5396 54.9267 45.5396C53.6474 45.5396 52.4072 45.2173 52.4072 45.2173C51.4111 44.9732 52.4853 43.7427 52.8076 43.7037H55.2099C55.3661 43.7037 55.5712 43.3814 55.2099 43.3423C54.9658 43.3423 53.4521 43.3033 53.3349 42.9029C53.1396 42.2681 52.7392 38.2251 52.7392 38.2251C52.7392 38.2251 53.2568 36.9849 52.8173 36.5455C52.3779 36.1451 52.1826 36.3501 52.1826 36.3501C53.1786 41.9458 48.9013 45.4224 46.4697 44.7388L46.1865 44.6997C46.7431 45.1001 47.4267 45.5005 48.3447 45.774C43.7939 46.731 41.9091 43.9771 41.1962 42.2583C40.7958 42.4537 40.7958 43.5376 40.8349 44.2603C39.8779 43.2251 39.3212 41.6236 40.2001 40.4615C39.038 41.0181 38.999 41.2232 38.999 41.2232C39.038 40.2662 40.7177 39.6216 41.5576 38.5084C42.3974 37.3853 42.2411 35.6666 40.3954 34.9537C40.5126 36.6724 39.6728 37.8736 37.915 38.4302C36.2353 38.9869 36.5185 37.4732 34.956 37.7955C37.5146 38.3912 37.3974 41.9068 39.9462 43.3521C36.5478 42.5513 35.9521 37.9224 31.7919 38.3619C34.1943 34.9634 37.9443 37.8833 39.5068 35.5201C35.4736 36.438 32.7099 33.0396 32.2314 29.2896C31.5966 23.6158 26.7529 26.4087 26.8408 23.6158C29.2822 24.69 34.6728 20.5396 36.2744 25.2955C37.954 30.2466 41.3134 32.2876 44.3505 29.9732L31.1669 16.5845L32.8466 22.1802C29.4091 22.8638 25.2587 20.8228 27.4951 15.9888C24.2138 14.4751 19.9072 19.9048 23.9013 24.1431C25.7372 26.0962 30.2587 25.3834 31.4111 29.3775L27.1337 29.0162L31.5283 30.1783L32.8466 34.0552L22.5732 29.065L28.8818 36.4185C25.2099 38.3716 24.2822 32.7857 19.5361 32.9029C16.2158 32.981 12.4658 36.4185 14.0185 40.4126C19.0087 37.3755 20.6103 39.5337 22.7294 41.6529L19.6533 43.2935L23.2861 42.1705C24.5654 43.3716 26.1669 44.3677 28.7646 44.2115C33.081 43.8892 36.8798 42.4927 37.8369 43.6939C38.5986 44.5728 37.7197 45.0904 36.1572 45.0904H15.6201L23.8525 49.524C23.0517 50.1197 20.7763 52.9615 19.1747 52.9615C17.5732 52.9615 14.0185 50.5201 13.0615 54.7974C16.7333 54.1626 18.579 62.19 26.2841 55.7935L22.6904 61.7505H5.74701V63.7915H107.602V61.7212H90.0341V61.6822ZM86.04 37.4732C87.915 38.274 82.0849 43.9869 80.288 43.7818C84.0087 42.6685 84.1259 36.6724 86.04 37.4732ZM86.8017 54.2896C88.1201 50.774 92.2802 49.2505 93.999 52.3365C94.0771 52.4927 93.9599 52.6197 93.6376 52.2974C91.4794 50.1392 88.7255 52.1802 87.0068 54.4165C86.7626 54.7779 86.6845 54.5728 86.8017 54.2896ZM26.665 16.4966C25.5908 18.3716 25.7861 21.8091 30.1415 22.8541C22.8661 24.4849 23.0712 16.2134 26.665 16.4966ZM20.7958 38.9478C17.4365 37.1119 14.4872 39.3091 14.4872 39.3091C15.4736 35.9888 21.6747 35.7154 20.7958 38.9478ZM22.2704 37.6294C21.7529 36.9459 21.3525 36.3892 20.7958 36.1939C20.0732 35.9986 19.3212 35.9986 18.5986 36.0376C17.7587 36.0767 16.997 36.1158 16.8017 35.5982C16.6454 35.2369 16.8017 34.8755 17.2411 34.563C17.6806 34.2408 18.3642 34.0064 19.038 33.9673C19.7997 33.9283 20.4345 34.0845 20.874 34.4849C21.3134 34.8462 21.4697 34.8853 21.5576 34.8462C21.6747 34.8072 21.6357 34.524 21.6357 34.3677C21.6357 34.2505 21.5966 34.1236 21.6747 34.1724C22.8759 34.3677 23.4326 35.0904 24.0771 35.8521C25.1122 37.0923 26.6747 38.9673 30.5126 38.2935C29.497 41.7115 23.9892 40.6666 22.2704 37.6294ZM25.3466 42.3072C25.1513 40.8326 32.622 39.7095 32.7001 41.8677C32.7392 43.7037 25.5908 43.9478 25.3466 42.3072ZM51.4404 45.6177C50.4443 45.94 50.2783 47.5318 53.1591 48.2154C52.2411 48.3326 49.9267 47.9322 49.8388 46.3404C49.7997 45.1001 51.4794 44.983 51.4404 45.6177ZM48.6376 48.3423C51.3134 48.4986 54.1552 49.856 54.1552 49.856C54.4775 50.5396 53.6767 52.7369 52.954 52.9322C52.3193 53.1275 49.0771 52.7759 48.5986 51.4185C50.5126 51.9361 50.6786 51.2232 50.6786 51.2232C50.6786 51.2232 48.9208 51.2232 48.1982 50.022C49.5947 50.5005 50.2392 50.022 50.2392 50.022C50.2392 50.022 47.5634 48.9869 47.4853 48.3814H48.6474V48.3423H48.6376ZM39.8876 44.7876C40.6494 45.6665 35.7763 47.8638 33.3349 47.024C37.4169 47.1021 39.0966 43.9087 39.8876 44.7876ZM34.3017 48.0201C37.0947 48.0201 38.7353 47.1021 39.4189 46.4185C39.1357 48.4205 37.0165 49.0943 34.3017 49.0943C31.5868 49.0943 29.1064 46.1353 27.0654 48.0982C30.6591 47.6587 31.2255 51.4966 35.2978 50.2173C31.7822 54.0162 29.1845 47.3365 25.1513 49.2603C27.2216 44.3482 31.538 48.0201 34.3017 48.0201ZM14.2333 54.1334C16.3525 51.0181 17.9931 55.2955 21.4697 52.9322C22.6318 54.7681 19.79 55.9302 18.1103 54.8853C16.4404 53.8501 15.1122 53.8111 14.2333 54.1334ZM24.4677 56.3306C22.9052 57.5318 18.9892 58.733 19.038 56.1744C23.1494 56.9751 24.0771 51.1353 27.7099 52.854C26.7822 53.0591 25.9814 55.1685 24.4677 56.3306ZM23.9111 61.6822L35.9423 55.0513C35.9423 57.2486 35.6201 58.8501 35.1025 60.0416L29.1845 61.6822H23.9111ZM35.6591 61.6822H34.7802C35.3759 60.8033 35.8544 59.7681 36.3818 58.5669C36.4111 59.2896 36.2548 60.5298 35.6591 61.6822ZM38.413 61.6822C38.9306 57.4439 36.6161 51.1353 43.2079 46.2622C42.329 47.063 38.2177 50.6568 39.4872 60.4517C40.7665 58.3326 39.6826 50.3052 43.4814 47.4244C40.8056 50.7056 42.2411 56.4576 40.288 61.6919H38.413V61.6822ZM42.6122 61.6822H41.1376C43.3349 57.5708 42.0947 50.9302 44.0185 48.899C42.6904 51.2525 44.7704 57.0142 42.6122 61.6822ZM44.0087 61.6822L45.2099 59.7681C45.8056 60.5298 46.1279 61.1646 46.2451 61.6822H44.0087ZM50.8349 61.6822H50.0341C50.0732 61.0865 49.956 60.5201 49.5165 59.9634C46.4794 55.9302 46.3622 55.0513 46.3622 55.0513C46.6454 58.1275 48.5595 58.5279 49.038 61.6822H47.7587C47.2802 59.2798 44.8779 58.3619 45.9228 51.3306L46.0009 50.813C46.1572 57.2095 50.8349 58.2447 50.8349 61.399C50.8837 61.4869 50.8349 61.604 50.8349 61.6822ZM54.2333 61.6822H52.8759C53.3935 59.4849 52.4755 58.8013 50.6005 56.8091C53.3935 58.733 54.3994 60.0904 54.2333 61.6822ZM51.3622 54.9341C51.1181 54.856 50.9619 54.2505 50.9619 54.1334C50.9619 54.0943 51.04 53.9771 51.3622 53.9771C51.3622 53.9771 53.7646 54.0552 54.956 54.0552C56.1962 54.0552 58.5107 53.9771 58.5497 53.9771C58.872 53.9771 58.9501 54.0943 58.9501 54.1334C58.9501 54.2505 58.7939 54.8951 58.5497 54.9341C58.5497 54.9341 56.2744 55.4908 54.9169 55.4126C53.6767 55.4908 51.4013 54.9341 51.3622 54.9341ZM56.1181 61.6822C56.1572 60.647 55.9619 59.4458 55.1611 57.8052C56.5576 59.4458 56.9579 60.5982 56.997 61.6822H56.1181ZM59.2333 61.6822H58.3935C58.7548 60.4419 58.872 59.0845 57.7978 57.1705C59.3505 58.5279 59.4677 60.0904 59.2333 61.6822ZM60.913 61.6822H59.956C60.3564 60.0806 60.5908 58.3619 59.5947 56.3306C61.1865 57.649 61.1474 59.69 60.913 61.6822ZM62.5439 61.6822L61.5478 58.7622C62.3486 59.1626 62.9052 60.2369 63.4228 61.6822H62.5439ZM67.1435 61.6822C66.5478 60.4029 65.9033 59.4458 65.1904 59.1236C65.7079 59.8853 66.0693 60.7642 66.3915 61.6822H65.3857C63.9501 58.8404 61.5869 56.731 64.0283 51.4966C61.5478 56.8482 67.6611 60.1685 68.8232 61.2427C68.9404 61.3599 69.1064 61.5259 69.2236 61.7212H67.1435V61.6822ZM58.2763 33.2349C57.7978 33.9576 58.999 34.5533 60.2294 33.9185C61.3036 33.3619 62.0263 32.6783 63.7451 32.6783C64.8193 32.6783 66.3427 34.5533 67.1826 33.1958C67.7783 33.9966 66.9872 34.9537 65.7079 34.9537C64.3896 34.9537 63.8329 33.8794 62.1923 33.8794C60.5517 33.8794 60.2392 34.8755 58.1201 34.8755C55.9619 34.8755 55.5224 30.9986 58.3642 30.6763C56.7138 32.0728 57.3095 33.2349 58.2763 33.2349ZM75.8544 13.3716C74.9365 17.2876 72.0947 16.0083 69.5849 19.4068C67.0751 22.8052 70.6591 28.6353 63.7548 28.5962C69.5458 27.1607 65.874 22.9224 68.6669 18.8501C70.2587 16.4576 74.4189 16.5357 75.8544 13.3716ZM59.9072 22.2876C59.9072 22.2876 59.1845 25.0416 60.7861 26.6041C57.3974 25.3638 59.9072 22.2876 59.9072 22.2876ZM75.7763 15.5298C74.8974 18.4107 73.2177 17.9322 71.3818 20.608C69.2626 22.9615 72.0654 29.7193 66.2255 29.563C70.8642 28.2056 68.3056 23.4498 70.5419 20.1294C71.7822 18.2935 74.5361 17.815 75.7763 15.5298ZM74.8095 31.0767C74.0868 31.5552 72.1728 33.6353 71.0107 34.1919C71.0107 32.8345 73.8915 28.274 78.7255 30.2369C78.1689 30.7154 76.1376 30.1978 74.8095 31.0767ZM71.3427 37.1119C69.1845 36.4283 67.749 38.1861 67.3876 37.3951C67.1826 36.3892 70.2587 36.3892 71.3427 37.1119ZM73.4911 35.7935C73.413 29.0455 82.2802 32.5611 83.3251 27.8443C84.0868 32.7564 75.3759 32.4732 73.4911 35.7935ZM71.0986 39.9927C67.7001 38.5181 65.9033 40.6275 65.747 39.6314C65.5029 38.147 69.9365 38.313 71.0986 39.9927ZM61.1474 14.9732C63.4228 19.6509 55.3564 20.9302 58.7939 26.565C53.6767 22.3658 61.4306 18.6158 61.1474 14.9732ZM56.7919 50.5005C56.9872 50.3833 57.1533 49.8169 57.2314 49.6998C58.1103 49.1041 59.1845 48.7818 59.6728 48.4595C59.5947 49.4165 57.6708 50.6958 56.7919 50.5005ZM48.5986 35.3931C47.2411 35.1099 45.6786 36.4673 44.1259 37.19C45.6005 39.3091 48.9599 39.4654 50.3173 40.2271C50.6396 39.7486 51.6357 35.9888 48.5986 35.3931ZM47.0458 38.8306C45.6493 38.313 46.2451 35.6373 48.081 36.0376C47.9638 36.233 47.124 37.8345 47.0458 38.8306ZM48.081 39.1529C48.6767 38.5181 49.1161 36.9165 49.2431 36.6724C50.5615 37.7076 49.2431 39.5923 48.081 39.1529ZM47.8076 33.9966C46.3329 33.9966 43.1298 37.2291 42.3779 34.0748C42.3779 34.0748 42.8564 34.231 43.4521 34.1919C44.0087 32.356 47.0068 30.6373 48.8427 31.1548C46.6845 31.3111 45.0439 32.8345 45.288 33.7134C45.6103 34.8755 47.4853 33.0787 49.0869 33.1177C50.9619 33.1177 52.0068 35.0318 53.4814 33.274C53.3935 37.0337 49.165 33.9966 47.8076 33.9966ZM53.0419 14.0552L54.6435 18.2154C54.6435 18.2154 53.1689 19.9341 53.1689 22.9712C53.1689 28.9283 58.0419 29.4849 57.7197 27.0826C54.2822 28.6451 54.1259 23.6841 55.0829 22.649C55.0829 22.649 54.4482 25.2466 56.7626 26.2037C53.6865 21.1255 59.7216 19.2115 59.7216 15.1783C59.7216 11.8189 57.6415 10.7056 57.6806 7.62944C57.7197 3.90874 63.1982 2.95171 63.2763 4.34819C63.3154 5.38335 59.2822 5.47124 59.2431 9.33842C59.165 12.9322 63.1982 13.8111 63.1201 17.2876C63.0419 19.563 58.9599 21.6822 61.5185 25.9986L67.3486 9.5728L62.8369 14.563C61.4013 12.7662 60.2783 12.6099 60.2783 9.40679C60.2783 6.20366 63.8329 5.73491 63.8329 4.25053C63.8329 3.04936 62.0361 2.89312 60.7568 2.81499C58.7548 2.73687 55.1611 4.49467 55.1611 8.20561C55.1611 11.9263 57.6806 13.8013 55.1611 17.3169L53.0419 14.0552ZM58.3154 13.2544C59.9169 18.2935 54.6826 19.6509 54.2431 22.9615C53.9208 18.9283 58.9111 17.0142 58.3154 13.2544ZM44.9658 42.5904L44.8095 42.3072C44.4482 41.7115 44.6142 40.4322 44.6142 40.4322C43.7744 40.3931 42.456 42.0337 42.456 42.0337C42.456 42.0337 41.8994 40.1197 43.8915 39.2798C43.7353 38.9966 43.8525 38.6451 43.8525 38.6451C45.4931 40.3247 48.4521 40.2466 49.2431 40.8033C49.2431 40.7837 44.2431 39.9048 44.9658 42.5904ZM34.2529 17.3755L37.9247 19.1333C38.0419 20.4126 38.5595 21.731 39.8388 23.2056C41.2744 24.8853 45.1513 25.3638 45.3173 29.2798C46.5185 28.0787 45.5615 25.3248 42.9638 23.7623C33.0908 18.0103 49.6337 8.93804 39.0087 5.70561C48.1982 5.10991 44.2822 13.4205 45.0048 16.731C46.0009 21.3306 50.2783 20.2076 52.5536 23.0884L50.0341 9.10405L47.6806 18.8501C44.5654 18.3716 45.6396 13.938 45.7275 9.9439C45.8837 2.30718 32.8173 4.51421 34.5751 8.78179C35.2587 10.4224 39.6923 6.74076 39.7314 10.6177C39.7704 13.2544 38.0908 15.5298 37.9345 18.0884L34.2529 17.3755ZM35.4931 8.18609C34.6142 7.11187 39.0087 5.87163 39.8095 8.62554C37.6513 7.18023 35.9326 8.6646 35.4931 8.18609ZM52.0361 27.6001C53.9892 20.608 38.9697 24.3677 43.3251 16.1353C41.6845 24.2896 55.1904 20.0513 52.0361 27.6001ZM67.4658 42.5025C75.2587 39.8658 77.6513 52.7759 82.2119 52.688C85.0048 52.6099 86.0497 50.813 88.081 50.3736C86.6845 51.2916 84.6826 53.733 82.2119 53.772C75.3369 53.938 75.4931 43.147 67.4658 42.5025ZM49.8388 25.647C49.8388 25.3248 49.7216 25.0513 49.4775 24.8072C48.0419 23.3716 43.8036 23.6841 41.8408 21.6529C37.3681 17.2193 45.9521 13.4205 43.0419 7.0728C48.3935 11.4673 36.7724 19.3775 44.5165 22.0142C47.7978 23.1373 48.9111 23.5279 49.7119 24.1333C50.2294 24.5337 50.5908 25.1685 50.5908 25.8912C50.5908 27.1314 49.5947 28.1275 48.3544 28.1275C47.6708 28.1275 47.0751 27.8443 46.6747 27.3658C45.7958 26.4478 46.079 24.7681 45.4736 24.2896C46.5087 24.0943 47.0751 25.8912 48.1103 26.5259C48.3056 26.6431 48.5107 26.7212 48.706 26.7212C49.3212 26.7603 49.8388 26.2818 49.8388 25.647ZM37.5732 28.8794C38.374 30.7544 40.6103 31.438 42.0068 31.4771C39.0966 35.2369 36.8505 30.5982 37.5732 28.8794ZM57.4365 51.6919C57.8369 51.4478 58.1982 50.9693 58.3935 50.6958C59.6728 50.2173 60.3076 49.9732 60.3954 49.7388C60.6298 50.5787 58.9501 52.0923 57.4365 51.6919ZM68.5009 35.1099C67.622 35.5884 67.1826 36.5845 66.8603 36.0669C66.665 35.7935 67.3388 34.9537 68.5009 35.1099ZM65.9033 36.7896C64.3408 36.0669 62.749 34.7095 61.4306 34.9927C58.3544 35.5884 59.3896 39.3482 59.7119 39.8267C61.0693 39.065 64.4286 38.8697 65.9033 36.7896ZM62.9443 38.3521C62.9443 38.3521 62.0263 35.7544 61.9091 35.5591C63.7841 35.149 64.3408 37.8345 62.9443 38.3521ZM60.747 36.1939C60.8642 36.438 61.2646 37.9908 61.9091 38.6744C60.747 39.1138 59.4286 37.229 60.747 36.1939ZM72.6122 27.7173C71.2548 29.231 71.3329 30.4322 69.2919 31.7505C71.9677 32.9126 72.0458 29.3482 74.6826 28.5962C76.5185 28.0787 77.8759 30.2759 80.4736 29.0747C83.0712 27.8736 82.1533 23.0396 83.4326 20.9205C84.7119 18.8013 88.1884 16.8091 90.6689 21.0767C90.6689 21.0767 86.4697 16.9654 84.5165 21.8775C85.874 20.7544 87.915 20.4029 87.915 21.4771C86.8408 21.8384 85.122 22.4341 85.0732 26.272C84.9951 30.7447 83.1982 31.7017 81.7919 32.6294C79.7509 33.9869 75.0439 33.9087 73.999 36.9459L90.3466 29.6705H85.3564C85.9911 25.9986 84.5947 20.5591 91.4306 21.8384C92.2704 20.0415 86.5966 14.2017 81.6454 20.8423L81.1669 19.1626C80.1318 28.0005 75.454 24.563 72.6122 27.7173ZM81.2451 23.2837C82.0849 24.7193 79.5654 27.3169 79.5654 27.3169C80.2001 27.5611 80.2001 28.5181 79.3701 28.7525C77.8954 29.1919 76.6943 27.5122 74.8193 27.9908C75.2099 27.3169 79.165 27.483 81.2451 23.2837ZM35.0927 31.438C35.0927 28.5572 36.5283 26.9263 33.8915 25.1685C39.0478 26.2915 33.9697 33.8404 40.8447 33.7232C39.331 35.9888 35.1318 34.9146 35.0927 31.438ZM68.0615 16.2134V12.7369L68.9794 15.813C71.0595 15.2173 73.6962 14.1333 73.6181 12.2583C73.54 10.3833 71.5771 9.58256 71.538 8.42045C71.499 6.7017 77.4072 7.6978 77.4072 13.2154C77.4072 17.1314 76.0497 18.2935 76.0497 18.2935L81.04 15.7349L72.3681 26.9654C72.3681 26.9654 69.6923 31.0376 67.9345 30.3248C69.6142 30.0025 71.8115 27.2486 71.8115 24.8072C71.8115 21.5259 74.3701 19.5337 75.1708 18.4986C76.0107 17.4244 79.9267 9.98295 72.9345 8.22514C77.4853 12.8638 73.4521 14.9732 69.6142 16.4576C65.9423 17.8541 67.0556 23.4888 65.9423 25.4517C64.7411 27.4537 61.5478 28.1666 60.9521 28.1666C62.0263 26.2916 64.2333 25.6861 65.0244 23.5279C65.8251 21.2525 64.663 17.9322 68.0615 16.2134Z" fill="black"/>
</svg>
