<svg width="114" height="100" viewBox="0 0 114 100" fill="none" xmlns="http://www.w3.org/2000/svg">
<path d="M8.28607 75.6646H12.9638C14.4775 75.6646 15.7177 75.3814 16.5966 74.7466C17.4755 74.1118 17.915 73.0669 17.915 71.8657C17.915 70.6646 17.4755 69.6294 16.5966 68.9849C15.7177 68.3501 14.5165 68.0669 12.9638 68.0669H5.76654V80.5376H8.28607V75.6646ZM15.4736 71.8755C15.4736 72.4712 15.3173 72.7154 14.956 72.9497C14.5556 73.1939 13.7939 73.3501 12.6415 73.3501H8.28607V70.4302H12.6415C13.8037 70.4302 14.5556 70.5865 14.956 70.8306C15.3173 70.9966 15.4345 71.231 15.4736 71.8755ZM27.0263 80.7818C25.6298 80.7818 24.0673 80.5865 22.788 79.7466C21.5087 78.9458 20.5908 77.4712 20.6298 75.274V68.0376H23.1494V75.274C23.1884 77.4322 24.3115 78.4282 27.0263 78.4673C29.7412 78.3892 30.8642 77.4322 30.9033 75.274V68.0376H33.4228V75.274C33.4228 77.4712 32.5439 78.9458 31.2646 79.7466C29.9853 80.5865 28.4228 80.7818 27.0263 80.7818ZM47.163 80.0689C48.4423 79.6685 49.6044 78.5943 49.5654 76.7485C49.5654 75.2739 48.8037 74.395 48.0908 73.9068C48.6865 73.4673 49.2138 72.7446 49.2138 71.5532C49.2529 69.8345 48.2568 68.8384 47.1728 68.438C46.0986 67.9986 44.9365 68.0376 44.2529 68.0376H37.1044V80.5083H43.4619C44.4482 80.5083 45.8837 80.5083 47.163 80.0689ZM46.3232 77.8716C45.8447 78.0669 45.122 78.1548 44.3212 78.1548H39.6044V75.1568H44.5165C45.4736 75.1568 46.1572 75.313 46.5185 75.5962C46.8798 75.8404 47.0361 76.1529 47.0361 76.7193C47.0068 77.3833 46.8017 77.6275 46.3232 77.8716ZM46.1279 72.4712C45.6884 72.7154 44.9267 72.8716 43.8525 72.8716H39.6142V70.3521H43.374C44.331 70.3521 45.288 70.3521 45.8544 70.5474C46.4501 70.7427 46.6552 70.9087 46.6552 71.5825C46.6845 72.0318 46.5283 72.2368 46.1279 72.4712ZM64.3896 80.5083H53.2763V68.0376H55.7958V78.145H64.3896V80.5083ZM66.8212 68.0376H69.3408V80.5083H66.8212V68.0376ZM86.2451 76.6704L86.0009 77.1099C84.8388 79.5122 82.6025 80.7818 79.4482 80.7818H79.3701C77.2509 80.7818 75.4931 80.1861 74.2529 79.0239C73.0126 77.9009 72.3388 76.231 72.3388 74.2681C72.3388 72.2661 72.9736 70.5962 74.2138 69.4732C75.454 68.3111 77.2119 67.7154 79.3701 67.7154C83.0908 67.7154 85.1611 69.6294 85.8447 71.3872L86.04 71.8267L83.8037 72.8618L83.6083 72.3833C83.0126 70.9868 81.8115 70.0689 79.3701 70.0298C76.3329 70.1079 74.9365 71.4654 74.8974 74.4634C74.9365 76.9439 76.538 78.3794 79.5361 78.4185C81.6943 78.4185 82.9736 77.5396 83.8134 75.9771L84.0576 75.5376L86.2451 76.6704ZM89.1161 80.5083V68.0376H91.6357V80.5083H89.1161ZM107.739 76.7485C107.739 77.7446 107.261 78.8286 106.265 79.5904C105.229 80.3521 103.706 80.8306 101.509 80.8306H101.392C97.2314 80.8306 95.7177 78.7505 94.9951 77.9888L94.6337 77.5884L96.5869 75.9087L96.9091 76.27C97.3876 76.7876 97.9833 78.3892 101.665 78.4283C101.987 78.4283 102.983 78.3892 103.823 78.145C104.702 77.8618 105.259 77.4614 105.259 76.7485C105.259 76.27 105.015 76.0259 104.263 75.7525C103.54 75.5083 102.466 75.3911 101.343 75.274C100.063 75.1568 98.6279 75.0298 97.4658 74.5513C96.3036 74.1118 95.3466 73.1939 95.3466 71.6704C95.3466 70.3911 95.9033 69.356 96.9872 68.6724C98.0224 67.9888 99.4677 67.7154 101.265 67.7154C105.376 67.6763 107.056 69.8736 107.378 70.313L107.7 70.7134L105.825 72.2271L105.503 71.8657C105.024 71.3482 104.224 70.0689 101.226 70.0298C100.542 70.0298 99.624 70.1079 98.9501 70.3521C98.2665 70.6353 97.915 70.9087 97.915 71.5142C97.954 71.9927 98.1103 72.1978 98.8329 72.4321C99.5165 72.6763 100.513 72.7544 101.626 72.8716C102.983 72.9888 104.419 73.1157 105.62 73.6333C106.782 74.0728 107.739 75.1079 107.739 76.7485ZM17.0361 90.6157H24.0283V97.2857H21.6747V96.4458C20.7958 97.0415 19.4384 97.5689 17.5634 97.5689H17.5244C15.4052 97.5689 13.6474 96.9732 12.4072 95.8111C11.1669 94.649 10.4931 93.0181 10.4931 91.0552C10.4931 89.0532 11.1279 87.3833 12.3681 86.2603C13.6083 85.0982 15.3662 84.5415 17.4853 84.5415C20.6005 84.5415 22.9638 86.0161 23.7939 88.0571L23.9501 88.4966L21.7919 89.6587L21.5966 89.1411C20.7958 87.1392 18.4814 86.8657 17.4365 86.8657C14.4384 86.9439 13.081 88.3013 13.0029 91.2603C13.0419 93.7407 14.6435 95.1763 17.5537 95.2154C19.2724 95.2154 20.9912 94.4536 21.4697 93.0181H17.0361V90.6157ZM40.415 88.5357C40.415 87.3345 39.9755 86.3384 39.0576 85.6939C38.1787 85.0591 36.9384 84.7759 35.3857 84.7759H28.2763V97.2466H30.7958V92.2075H34.3896L38.0224 97.2466H41.1376L37.2997 92.0513C38.8134 91.729 40.3662 90.6548 40.415 88.5357ZM37.9345 88.5357C37.8954 89.1704 37.7392 89.3755 37.2997 89.6099C36.8212 89.8052 36.0595 89.9321 35.0634 89.9321H30.7861V87.1392H35.0634C36.0595 87.1392 36.8603 87.2173 37.2997 87.4615C37.7392 87.7056 37.9345 87.9009 37.9345 88.5357ZM50.122 84.5025C48.0029 84.5025 46.1669 85.1372 44.8876 86.2993C43.6083 87.4614 42.8857 89.1411 42.8857 91.0943C42.8857 93.2915 43.8427 94.9322 45.2001 96.0064C46.5966 97.0415 48.3544 97.5689 50.0732 97.5689C51.7919 97.5689 53.5497 97.0904 54.9462 96.0064C56.3427 94.9712 57.2997 93.2915 57.2997 91.0943C57.2997 89.1411 56.5771 87.4614 55.2978 86.2993C54.0771 85.1372 52.2802 84.5025 50.122 84.5025ZM54.7997 90.8501C54.7607 94.1314 52.4853 95.1275 50.122 95.2056C47.7685 95.1665 45.4833 94.1314 45.4443 90.8501C45.4443 88.4478 47.2412 86.856 50.122 86.8169C52.9931 86.856 54.7997 88.4575 54.7997 90.8501ZM70.415 84.7759H72.9345V92.0122C72.9345 94.2095 72.0556 95.6841 70.7763 96.4849C69.497 97.2857 67.9345 97.5201 66.538 97.5201C65.1415 97.5201 63.579 97.3247 62.2997 96.4849C61.0204 95.6841 60.1025 94.2095 60.1415 92.0122V84.7759H62.6611V92.0122C62.7001 94.2095 63.8232 95.1665 66.538 95.2056C69.2529 95.1275 70.3759 94.1704 70.415 92.0122V84.7759ZM87.163 85.7427C86.2841 85.1079 85.083 84.8247 83.5302 84.8247H76.2939V97.2954H78.8134V92.4615H83.5302C85.0439 92.4615 86.2841 92.1782 87.163 91.5435C88.0419 90.9087 88.4814 89.8638 88.4814 88.6626C88.4814 87.4126 88.0419 86.3775 87.163 85.7427ZM86.0009 88.6138C86.0009 89.2095 85.8447 89.4536 85.4833 89.688C85.083 89.9321 84.3212 90.0884 83.1689 90.0884H78.8134V87.1294H83.1689C84.331 87.1294 85.122 87.2857 85.4833 87.5298C85.8837 87.774 86.0009 88.0181 86.0009 88.6138ZM93.4716 94.8931H102.466V97.2466H90.9619V84.7759H102.27V87.1294H93.4814V89.5708H100.835V91.9243H93.4814L93.4716 94.8931Z" fill="black"/>
<path d="M90.0341 61.6802L82.5634 57.2466C84.038 57.4419 85.3564 56.7681 86.5966 55.8892L88.872 58.6822L87.4755 55.2447C88.9892 54.0435 90.2294 52.7642 91.7919 52.7251C96.0302 52.608 93.0712 57.6763 94.5849 57.7154C96.3036 57.7154 98.1786 52.0806 94.0283 49.6001C89.7509 47.0025 86.0009 50.7622 82.9638 50.1177L94.3115 45.0396H77.7294L77.1337 43.9165C80.1318 45.274 82.29 43.9947 83.6865 42.5982L88.4033 43.2818L84.4872 41.7681C85.4052 40.8111 86.206 40.0494 87.2021 40.4107C88.5986 40.9283 89.4384 42.1685 91.8408 42.2076C95.9521 42.2466 98.9501 34.9712 93.5204 31.7779C93.9208 36.9732 91.5185 37.2564 87.29 34.4927L88.7255 32.1392L86.5673 34.0142C82.5341 32.2173 80.5712 35.772 78.8525 36.9341C77.1337 38.0962 75.5712 35.772 73.54 38.5357C76.6161 37.5396 78.1786 40.4497 80.2099 38.5357C79.3701 43.7701 76.372 36.9341 73.374 39.5318C75.9716 39.7271 77.329 42.0513 79.3701 42.0513C83.1689 42.0513 79.7704 34.7369 85.122 34.7369L84.2431 34.1802C87.2802 33.897 87.4365 36.9341 91.997 36.9732C92.4755 37.6568 90.7958 37.7349 89.6435 37.3345C89.4482 38.2916 95.8349 40.4888 94.3212 33.2232C96.3232 34.2974 95.8837 38.897 93.999 40.6158C93.6376 40.938 93.2763 41.1333 93.081 40.772C92.5634 40.0103 93.8818 40.0103 94.2822 38.8189C92.8466 40.0591 90.4052 39.981 88.7255 38.4185C87.0458 36.856 84.5654 34.981 83.4911 38.2623C82.4169 41.5435 81.538 43.0572 79.5751 43.0572C76.8603 43.0962 73.9794 38.5845 70.9814 41.0552C76.7333 41.5728 78.0908 50.7232 83.1298 50.8404C87.0458 50.8404 87.9247 49.1216 90.4833 49.1216C93.0419 49.1216 95.7177 50.4791 95.7177 53.8384C95.7177 55.8794 94.6435 57.0318 94.6435 57.0318C94.6435 57.0318 95.4443 55.3912 95.0439 53.272C94.6826 51.2701 92.9638 50.0396 90.6884 50.0396C87.5341 50.0396 85.0146 55.1958 81.499 55.1958C74.4677 55.1958 72.6708 41.6509 65.3564 43.731C70.747 47.3638 71.3525 53.2427 74.2626 55.479C77.2216 57.7544 80.7372 56.8365 82.6513 58.5162C83.4521 59.1997 83.7744 60.3912 84.0478 61.6705H83.3642C83.1201 61.0357 82.7685 60.3912 82.2021 59.9126C80.5224 58.1548 75.454 58.9166 73.1298 56.4361C70.8154 53.9166 69.0966 46.4068 64.5361 45.2447C68.5302 47.8033 69.4091 54.3951 72.2509 57.6275C75.0927 60.8599 78.8818 59.1412 80.6005 60.8209C80.9228 61.1431 81.1572 61.4166 81.4013 61.6998H78.1201C77.8369 61.6607 77.5244 61.6216 77.163 61.6216C76.6454 61.6216 76.0888 61.6607 75.5615 61.6998H71.206C70.6103 61.5044 70.0439 61.2212 69.5654 60.7037C67.29 58.3013 67.5244 55.7915 67.6904 52.8326C68.1298 55.6255 68.6474 62.022 73.4423 61.2994C67.4072 59.2193 70.9228 48.9166 63.5693 46.2798C62.7685 45.9966 63.0517 43.399 65.0439 42.9986C61.0497 43.7603 61.0888 42.315 63.8818 39.4048C62.163 40.5279 60.249 40.2056 59.8486 41.4458C59.8486 41.4458 63.1298 46.563 63.1298 47.5591C63.1298 48.5552 60.9716 52.5982 60.7275 52.7154C59.9267 53.1548 57.29 53.1548 56.6552 52.9595C55.9716 52.7642 55.1415 50.5572 55.454 49.8834C55.9716 48.8091 59.9658 47.9302 60.0536 46.3677C60.0927 45.1275 58.413 45.0103 58.4911 45.6451C59.4482 45.9673 59.8876 47.4029 57.0165 48.0865L57.6513 47.0513C57.6513 47.0513 55.5322 48.731 55.415 48.8091C55.2978 48.8873 54.8193 48.9263 54.497 48.8091C54.1747 48.731 51.1376 47.2466 51.6552 45.8111C51.6552 45.8111 52.5732 46.2115 54.8876 46.2115C57.2021 46.2115 57.4072 45.2154 57.4072 45.2154C57.4072 45.2154 56.1669 45.5376 54.9267 45.5376C53.6474 45.5376 52.4072 45.2154 52.4072 45.2154C51.4111 44.9712 52.4853 43.7408 52.8076 43.7017H55.2099C55.3661 43.7017 55.5712 43.3794 55.2099 43.3404C54.9658 43.3404 53.4521 43.3013 53.3349 42.9009C53.1396 42.2662 52.7392 38.2232 52.7392 38.2232C52.7392 38.2232 53.2568 36.983 52.8173 36.5435C52.3779 36.1431 52.1826 36.3482 52.1826 36.3482C53.1786 41.9439 48.9013 45.4205 46.4697 44.7369L46.1865 44.6978C46.7431 45.0982 47.4267 45.4986 48.3447 45.772C43.7939 46.729 41.9091 43.9751 41.1962 42.2564C40.7958 42.4517 40.7958 43.5357 40.8349 44.2583C39.8779 43.2232 39.3212 41.6216 40.2001 40.4595C39.038 41.0162 38.999 41.2212 38.999 41.2212C39.038 40.2642 40.7177 39.6197 41.5576 38.5064C42.3974 37.3834 42.2411 35.6646 40.3954 34.9517C40.5126 36.6705 39.6728 37.8716 37.915 38.4283C36.2353 38.9849 36.5185 37.4712 34.956 37.7935C37.5146 38.3892 37.3974 41.9048 39.9462 43.3501C36.5478 42.5494 35.9521 37.9205 31.7919 38.3599C34.1943 34.9615 37.9443 37.8814 39.5068 35.5181C35.4736 36.4361 32.7099 33.0376 32.2314 29.2876C31.5966 23.6138 26.7529 26.4068 26.8408 23.6138C29.2822 24.688 34.6728 20.5376 36.2744 25.2935C37.954 30.2447 41.3134 32.2857 44.3505 29.9712L31.1669 16.5826L32.8466 22.1783C29.4091 22.8619 25.2587 20.8208 27.4951 15.9869C24.2138 14.4732 19.9072 19.9029 23.9013 24.1412C25.7372 26.0943 30.2587 25.3814 31.4111 29.3755L27.1337 29.0142L31.5283 30.1763L32.8466 34.0533L22.5732 29.063L28.8818 36.4166C25.2099 38.3697 24.2822 32.7837 19.5361 32.9009C16.2158 32.9791 12.4658 36.4166 14.0185 40.4107C19.0087 37.3736 20.6103 39.5318 22.7294 41.6509L19.6533 43.2916L23.2861 42.1685C24.5654 43.3697 26.1669 44.3658 28.7646 44.2095C33.081 43.8872 36.8798 42.4908 37.8369 43.6919C38.5986 44.5708 37.7197 45.0884 36.1572 45.0884H15.6201L23.8525 49.522C23.0517 50.1177 20.7763 52.9595 19.1747 52.9595C17.5732 52.9595 14.0185 50.5181 13.0615 54.7955C16.7333 54.1607 18.579 62.188 26.2841 55.7916L22.6904 61.7486H5.74701V63.7896H107.602V61.7193H90.0341V61.6802ZM86.04 37.4712C87.915 38.272 82.0849 43.9849 80.288 43.7798C84.0087 42.6666 84.1259 36.6705 86.04 37.4712ZM86.8017 54.2876C88.1201 50.772 92.2802 49.2486 93.999 52.3345C94.0771 52.4908 93.9599 52.6177 93.6376 52.2955C91.4794 50.1373 88.7255 52.1783 87.0068 54.4146C86.7626 54.7759 86.6845 54.5708 86.8017 54.2876ZM26.665 16.4947C25.5908 18.3697 25.7861 21.8072 30.1415 22.8521C22.8661 24.483 23.0712 16.2115 26.665 16.4947ZM20.7958 38.9459C17.4365 37.1099 14.4872 39.3072 14.4872 39.3072C15.4736 35.9869 21.6747 35.7134 20.7958 38.9459ZM22.2704 37.6275C21.7529 36.9439 21.3525 36.3872 20.7958 36.1919C20.0732 35.9966 19.3212 35.9966 18.5986 36.0357C17.7587 36.0748 16.997 36.1138 16.8017 35.5962C16.6454 35.2349 16.8017 34.8736 17.2411 34.5611C17.6806 34.2388 18.3642 34.0044 19.038 33.9654C19.7997 33.9263 20.4345 34.0826 20.874 34.483C21.3134 34.8443 21.4697 34.8834 21.5576 34.8443C21.6747 34.8052 21.6357 34.522 21.6357 34.3658C21.6357 34.2486 21.5966 34.1216 21.6747 34.1705C22.8759 34.3658 23.4326 35.0884 24.0771 35.8501C25.1122 37.0904 26.6747 38.9654 30.5126 38.2915C29.497 41.7095 23.9892 40.6646 22.2704 37.6275ZM25.3466 42.3052C25.1513 40.8306 32.622 39.7076 32.7001 41.8658C32.7392 43.7017 25.5908 43.9458 25.3466 42.3052ZM51.4404 45.6158C50.4443 45.938 50.2783 47.5298 53.1591 48.2134C52.2411 48.3306 49.9267 47.9302 49.8388 46.3384C49.7997 45.0982 51.4794 44.981 51.4404 45.6158ZM48.6376 48.3404C51.3134 48.4966 54.1552 49.854 54.1552 49.854C54.4775 50.5376 53.6767 52.7349 52.954 52.9302C52.3193 53.1255 49.0771 52.774 48.5986 51.4165C50.5126 51.9341 50.6786 51.2212 50.6786 51.2212C50.6786 51.2212 48.9208 51.2212 48.1982 50.0201C49.5947 50.4986 50.2392 50.0201 50.2392 50.0201C50.2392 50.0201 47.5634 48.9849 47.4853 48.3794H48.6474V48.3404H48.6376ZM39.8876 44.7857C40.6494 45.6646 35.7763 47.8619 33.3349 47.022C37.4169 47.1001 39.0966 43.9068 39.8876 44.7857ZM34.3017 48.0181C37.0947 48.0181 38.7353 47.1001 39.4189 46.4166C39.1357 48.4185 37.0165 49.0923 34.3017 49.0923C31.5868 49.0923 29.1064 46.1333 27.0654 48.0962C30.6591 47.6568 31.2255 51.4947 35.2978 50.2154C31.7822 54.0142 29.1845 47.3345 25.1513 49.2583C27.2216 44.3462 31.538 48.0181 34.3017 48.0181ZM14.2333 54.1314C16.3525 51.0162 17.9931 55.2935 21.4697 52.9302C22.6318 54.7662 19.79 55.9283 18.1103 54.8833C16.4404 53.8482 15.1122 53.8091 14.2333 54.1314ZM24.4677 56.3287C22.9052 57.5298 18.9892 58.731 19.038 56.1724C23.1494 56.9732 24.0771 51.1333 27.7099 52.8521C26.7822 53.0572 25.9814 55.1666 24.4677 56.3287ZM23.9111 61.6802L35.9423 55.0494C35.9423 57.2466 35.6201 58.8482 35.1025 60.0396L29.1845 61.6802H23.9111ZM35.6591 61.6802H34.7802C35.3759 60.8013 35.8544 59.7662 36.3818 58.565C36.4111 59.2876 36.2548 60.5279 35.6591 61.6802ZM38.413 61.6802C38.9306 57.4419 36.6161 51.1333 43.2079 46.2603C42.329 47.0611 38.2177 50.6548 39.4872 60.4498C40.7665 58.3306 39.6826 50.3033 43.4814 47.4224C40.8056 50.7037 42.2411 56.4556 40.288 61.69H38.413V61.6802ZM42.6122 61.6802H41.1376C43.3349 57.5689 42.0947 50.9283 44.0185 48.897C42.6904 51.2505 44.7704 57.0123 42.6122 61.6802ZM44.0087 61.6802L45.2099 59.7662C45.8056 60.5279 46.1279 61.1626 46.2451 61.6802H44.0087ZM50.8349 61.6802H50.0341C50.0732 61.0845 49.956 60.5181 49.5165 59.9615C46.4794 55.9283 46.3622 55.0494 46.3622 55.0494C46.6454 58.1255 48.5595 58.5259 49.038 61.6802H47.7587C47.2802 59.2779 44.8779 58.3599 45.9228 51.3287L46.0009 50.8111C46.1572 57.2076 50.8349 58.2427 50.8349 61.397C50.8837 61.4849 50.8349 61.6021 50.8349 61.6802ZM54.2333 61.6802H52.8759C53.3935 59.483 52.4755 58.7994 50.6005 56.8072C53.3935 58.731 54.3994 60.0884 54.2333 61.6802ZM51.3622 54.9322C51.1181 54.854 50.9619 54.2486 50.9619 54.1314C50.9619 54.0923 51.04 53.9751 51.3622 53.9751C51.3622 53.9751 53.7646 54.0533 54.956 54.0533C56.1962 54.0533 58.5107 53.9751 58.5497 53.9751C58.872 53.9751 58.9501 54.0923 58.9501 54.1314C58.9501 54.2486 58.7939 54.8931 58.5497 54.9322C58.5497 54.9322 56.2744 55.4888 54.9169 55.4107C53.6767 55.4888 51.4013 54.9322 51.3622 54.9322ZM56.1181 61.6802C56.1572 60.6451 55.9619 59.4439 55.1611 57.8033C56.5576 59.4439 56.9579 60.5962 56.997 61.6802H56.1181ZM59.2333 61.6802H58.3935C58.7548 60.44 58.872 59.0826 57.7978 57.1685C59.3505 58.5259 59.4677 60.0884 59.2333 61.6802ZM60.913 61.6802H59.956C60.3564 60.0787 60.5908 58.3599 59.5947 56.3287C61.1865 57.647 61.1474 59.688 60.913 61.6802ZM62.5439 61.6802L61.5478 58.7603C62.3486 59.1607 62.9052 60.2349 63.4228 61.6802H62.5439ZM67.1435 61.6802C66.5478 60.4009 65.9033 59.4439 65.1904 59.1216C65.7079 59.8833 66.0693 60.7622 66.3915 61.6802H65.3857C63.9501 58.8384 61.5869 56.7291 64.0283 51.4947C61.5478 56.8462 67.6611 60.1665 68.8232 61.2408C68.9404 61.358 69.1064 61.524 69.2236 61.7193H67.1435V61.6802ZM58.2763 33.233C57.7978 33.9556 58.999 34.5513 60.2294 33.9166C61.3036 33.3599 62.0263 32.6763 63.7451 32.6763C64.8193 32.6763 66.3427 34.5513 67.1826 33.1939C67.7783 33.9947 66.9872 34.9517 65.7079 34.9517C64.3896 34.9517 63.8329 33.8775 62.1923 33.8775C60.5517 33.8775 60.2392 34.8736 58.1201 34.8736C55.9619 34.8736 55.5224 30.9966 58.3642 30.6744C56.7138 32.0708 57.3095 33.233 58.2763 33.233ZM75.8544 13.3697C74.9365 17.2857 72.0947 16.0064 69.5849 19.4048C67.0751 22.8033 70.6591 28.6334 63.7548 28.5943C69.5458 27.1587 65.874 22.9205 68.6669 18.8482C70.2587 16.4556 74.4189 16.5337 75.8544 13.3697ZM59.9072 22.2857C59.9072 22.2857 59.1845 25.0396 60.7861 26.6021C57.3974 25.3619 59.9072 22.2857 59.9072 22.2857ZM75.7763 15.5279C74.8974 18.4087 73.2177 17.9302 71.3818 20.606C69.2626 22.9595 72.0654 29.7173 66.2255 29.5611C70.8642 28.2037 68.3056 23.4478 70.5419 20.1275C71.7822 18.2915 74.5361 17.813 75.7763 15.5279ZM74.8095 31.0747C74.0868 31.5533 72.1728 33.6333 71.0107 34.19C71.0107 32.8326 73.8915 28.272 78.7255 30.2349C78.1689 30.7134 76.1376 30.1958 74.8095 31.0747ZM71.3427 37.1099C69.1845 36.4263 67.749 38.1841 67.3876 37.3931C67.1826 36.3873 70.2587 36.3873 71.3427 37.1099ZM73.4911 35.7915C73.413 29.0435 82.2802 32.5591 83.3251 27.8423C84.0868 32.7544 75.3759 32.4712 73.4911 35.7915ZM71.0986 39.9908C67.7001 38.5162 65.9033 40.6255 65.747 39.6294C65.5029 38.1451 69.9365 38.3111 71.0986 39.9908ZM61.1474 14.9712C63.4228 19.649 55.3564 20.9283 58.7939 26.563C53.6767 22.3638 61.4306 18.6138 61.1474 14.9712ZM56.7919 50.4986C56.9872 50.3814 57.1533 49.815 57.2314 49.6978C58.1103 49.1021 59.1845 48.7798 59.6728 48.4576C59.5947 49.4146 57.6708 50.6939 56.7919 50.4986ZM48.5986 35.3912C47.2411 35.108 45.6786 36.4654 44.1259 37.188C45.6005 39.3072 48.9599 39.4634 50.3173 40.2251C50.6396 39.7466 51.6357 35.9869 48.5986 35.3912ZM47.0458 38.8287C45.6493 38.3111 46.2451 35.6353 48.081 36.0357C47.9638 36.231 47.124 37.8326 47.0458 38.8287ZM48.081 39.1509C48.6767 38.5162 49.1161 36.9146 49.2431 36.6705C50.5615 37.7056 49.2431 39.5904 48.081 39.1509ZM47.8076 33.9947C46.3329 33.9947 43.1298 37.2271 42.3779 34.0728C42.3779 34.0728 42.8564 34.229 43.4521 34.19C44.0087 32.354 47.0068 30.6353 48.8427 31.1529C46.6845 31.3091 45.0439 32.8326 45.288 33.7115C45.6103 34.8736 47.4853 33.0767 49.0869 33.1158C50.9619 33.1158 52.0068 35.0298 53.4814 33.272C53.3935 37.0318 49.165 33.9947 47.8076 33.9947ZM53.0419 14.0533L54.6435 18.2134C54.6435 18.2134 53.1689 19.9322 53.1689 22.9693C53.1689 28.9263 58.0419 29.483 57.7197 27.0806C54.2822 28.6431 54.1259 23.6822 55.0829 22.647C55.0829 22.647 54.4482 25.2447 56.7626 26.2017C53.6865 21.1236 59.7216 19.2095 59.7216 15.1763C59.7216 11.8169 57.6415 10.7037 57.6806 7.62749C57.7197 3.90678 63.1982 2.94975 63.2763 4.34624C63.3154 5.38139 59.2822 5.46928 59.2431 9.33647C59.165 12.9302 63.1982 13.8091 63.1201 17.2857C63.0419 19.5611 58.9599 21.6802 61.5185 25.9966L67.3486 9.57085L62.8369 14.5611C61.4013 12.7642 60.2783 12.608 60.2783 9.40484C60.2783 6.20171 63.8329 5.73296 63.8329 4.24858C63.8329 3.04741 62.0361 2.89116 60.7568 2.81304C58.7548 2.73491 55.1611 4.49272 55.1611 8.20366C55.1611 11.9244 57.6806 13.7994 55.1611 17.315L53.0419 14.0533ZM58.3154 13.2525C59.9169 18.2915 54.6826 19.649 54.2431 22.9595C53.9208 18.9263 58.9111 17.0122 58.3154 13.2525ZM44.9658 42.5884L44.8095 42.3052C44.4482 41.7095 44.6142 40.4302 44.6142 40.4302C43.7744 40.3912 42.456 42.0318 42.456 42.0318C42.456 42.0318 41.8994 40.1177 43.8915 39.2779C43.7353 38.9947 43.8525 38.6431 43.8525 38.6431C45.4931 40.3228 48.4521 40.2447 49.2431 40.8013C49.2431 40.7818 44.2431 39.9029 44.9658 42.5884ZM34.2529 17.3736L37.9247 19.1314C38.0419 20.4107 38.5595 21.729 39.8388 23.2037C41.2744 24.8833 45.1513 25.3619 45.3173 29.2779C46.5185 28.0767 45.5615 25.3228 42.9638 23.7603C33.0908 18.0084 49.6337 8.93608 39.0087 5.70366C48.1982 5.10796 44.2822 13.4185 45.0048 16.7291C46.0009 21.3287 50.2783 20.2056 52.5536 23.0865L50.0341 9.10209L47.6806 18.8482C44.5654 18.3697 45.6396 13.9361 45.7275 9.94195C45.8837 2.30523 32.8173 4.51226 34.5751 8.77983C35.2587 10.4205 39.6923 6.73881 39.7314 10.6158C39.7704 13.2525 38.0908 15.5279 37.9345 18.0865L34.2529 17.3736ZM35.4931 8.18413C34.6142 7.10991 39.0087 5.86968 39.8095 8.62359C37.6513 7.17827 35.9326 8.66265 35.4931 8.18413ZM52.0361 27.5982C53.9892 20.606 38.9697 24.3658 43.3251 16.1333C41.6845 24.2876 55.1904 20.0494 52.0361 27.5982ZM67.4658 42.5005C75.2587 39.8638 77.6513 52.774 82.2119 52.6861C85.0048 52.608 86.0497 50.8111 88.081 50.3716C86.6845 51.2896 84.6826 53.731 82.2119 53.7701C75.3369 53.9361 75.4931 43.1451 67.4658 42.5005ZM49.8388 25.6451C49.8388 25.3228 49.7216 25.0494 49.4775 24.8052C48.0419 23.3697 43.8036 23.6822 41.8408 21.6509C37.3681 17.2173 45.9521 13.4185 43.0419 7.07085C48.3935 11.4654 36.7724 19.3755 44.5165 22.0123C47.7978 23.1353 48.9111 23.5259 49.7119 24.1314C50.2294 24.5318 50.5908 25.1665 50.5908 25.8892C50.5908 27.1294 49.5947 28.1255 48.3544 28.1255C47.6708 28.1255 47.0751 27.8423 46.6747 27.3638C45.7958 26.4458 46.079 24.7662 45.4736 24.2876C46.5087 24.0923 47.0751 25.8892 48.1103 26.524C48.3056 26.6412 48.5107 26.7193 48.706 26.7193C49.3212 26.7583 49.8388 26.2798 49.8388 25.6451ZM37.5732 28.8775C38.374 30.7525 40.6103 31.4361 42.0068 31.4751C39.0966 35.2349 36.8505 30.5962 37.5732 28.8775ZM57.4365 51.69C57.8369 51.4459 58.1982 50.9673 58.3935 50.6939C59.6728 50.2154 60.3076 49.9712 60.3954 49.7369C60.6298 50.5767 58.9501 52.0904 57.4365 51.69ZM68.5009 35.108C67.622 35.5865 67.1826 36.5826 66.8603 36.065C66.665 35.7916 67.3388 34.9517 68.5009 35.108ZM65.9033 36.7876C64.3408 36.065 62.749 34.7076 61.4306 34.9908C58.3544 35.5865 59.3896 39.3462 59.7119 39.8248C61.0693 39.063 64.4286 38.8677 65.9033 36.7876ZM62.9443 38.3501C62.9443 38.3501 62.0263 35.7525 61.9091 35.5572C63.7841 35.147 64.3408 37.8326 62.9443 38.3501ZM60.747 36.1919C60.8642 36.4361 61.2646 37.9888 61.9091 38.6724C60.747 39.1119 59.4286 37.2271 60.747 36.1919ZM72.6122 27.7154C71.2548 29.2291 71.3329 30.4302 69.2919 31.7486C71.9677 32.9107 72.0458 29.3462 74.6826 28.5943C76.5185 28.0767 77.8759 30.274 80.4736 29.0728C83.0712 27.8716 82.1533 23.0376 83.4326 20.9185C84.7119 18.7994 88.1884 16.8072 90.6689 21.0748C90.6689 21.0748 86.4697 16.9634 84.5165 21.8755C85.874 20.7525 87.915 20.4009 87.915 21.4751C86.8408 21.8365 85.122 22.4322 85.0732 26.2701C84.9951 30.7427 83.1982 31.6997 81.7919 32.6275C79.7509 33.9849 75.0439 33.9068 73.999 36.9439L90.3466 29.6685H85.3564C85.9911 25.9966 84.5947 20.5572 91.4306 21.8365C92.2704 20.0396 86.5966 14.1998 81.6454 20.8404L81.1669 19.1607C80.1318 27.9986 75.454 24.5611 72.6122 27.7154ZM81.2451 23.2818C82.0849 24.7173 79.5654 27.315 79.5654 27.315C80.2001 27.5591 80.2001 28.5162 79.3701 28.7505C77.8954 29.19 76.6943 27.5103 74.8193 27.9888C75.2099 27.315 79.165 27.481 81.2451 23.2818ZM35.0927 31.4361C35.0927 28.5552 36.5283 26.9244 33.8915 25.1665C39.0478 26.2896 33.9697 33.8384 40.8447 33.7212C39.331 35.9869 35.1318 34.9126 35.0927 31.4361ZM68.0615 16.2115V12.7349L68.9794 15.8111C71.0595 15.2154 73.6962 14.1314 73.6181 12.2564C73.54 10.3814 71.5771 9.58061 71.538 8.4185C71.499 6.69975 77.4072 7.69585 77.4072 13.2134C77.4072 17.1294 76.0497 18.2916 76.0497 18.2916L81.04 15.733L72.3681 26.9634C72.3681 26.9634 69.6923 31.0357 67.9345 30.3228C69.6142 30.0005 71.8115 27.2466 71.8115 24.8052C71.8115 21.524 74.3701 19.5318 75.1708 18.4966C76.0107 17.4224 79.9267 9.981 72.9345 8.22319C77.4853 12.8619 73.4521 14.9712 69.6142 16.4556C65.9423 17.8521 67.0556 23.4869 65.9423 25.4498C64.7411 27.4517 61.5478 28.1646 60.9521 28.1646C62.0263 26.2896 64.2333 25.6841 65.0244 23.5259C65.8251 21.2505 64.663 17.9302 68.0615 16.2115Z" fill="black"/>
</svg>
