<svg width="232" height="56" viewBox="0 0 232 56" fill="none" xmlns="http://www.w3.org/2000/svg">
<g clip-path="url(#clip0_1460_7106)">
<path fill-rule="evenodd" clip-rule="evenodd" d="M15.7679 6.19064C10.1643 9.56162 6.15604 15.0043 4.48148 21.5167C2.99407 27.3007 3.51054 33.3117 5.91028 38.6751L3.5749 40.0799C-2.40262 27.0039 2.17716 11.1282 14.4221 3.76179C18.661 1.21174 23.2876 0 27.8543 0C31.8612 0 35.8189 0.938561 39.4272 2.72052L38.067 5.17564C34.912 3.64715 31.4368 2.80438 27.8543 2.80438C23.6296 2.80438 19.4502 3.97541 15.7679 6.19064ZM43.1548 4.96786L41.7968 7.41934C44.6391 9.49803 47.0713 12.2057 48.8576 15.429C52.0927 21.2678 52.9522 28.0696 51.2774 34.5818C49.6028 41.0941 45.5948 46.5367 39.9913 49.9078C36.9291 51.7499 33.5222 52.8575 30.0325 53.1826V56C33.8973 55.6798 37.7555 54.4911 41.337 52.3366C54.2102 44.5924 58.6209 27.4404 51.1885 14.0269C49.1211 10.2957 46.3481 7.25869 43.1548 4.96786ZM8.07213 42.5556L5.72783 43.9659C10.4442 51.1082 17.884 55.332 25.7261 55.9956V53.1789C18.6437 52.5087 12.1617 48.6087 8.07213 42.5556ZM48.1915 30.5358H45.4785C44.3086 39.5697 36.8649 46.559 27.8795 46.559C18.0845 46.559 10.1157 38.2557 10.1157 28.0494C10.1157 22.0158 12.9015 16.6487 17.2024 13.2674L15.8454 10.8181C10.7429 14.694 7.42416 20.9664 7.42416 28.0494C7.42416 39.8209 16.5824 49.3634 27.8795 49.3634C38.3689 49.3634 47.009 41.1349 48.1915 30.5358ZM27.8795 6.73521C38.5289 6.73521 47.2737 15.2158 48.242 26.0483H45.5377C44.577 16.7801 37.0256 9.53976 27.8795 9.53976C25.4138 9.53976 23.0645 10.0667 20.9284 11.0169L19.5737 8.57216C22.1125 7.39477 24.9213 6.73521 27.8795 6.73521ZM35.4157 28.0489C35.4157 23.7122 32.0417 20.1965 27.8796 20.1965C23.7175 20.1965 20.3433 23.7122 20.3433 28.0489C20.3433 32.3857 23.7175 35.9016 27.8796 35.9016C32.0417 35.9016 35.4157 32.3857 35.4157 28.0489ZM23.0348 28.0489C23.0348 25.2654 25.208 23.001 27.8796 23.001C30.5509 23.001 32.7242 25.2654 32.7242 28.0489C32.7242 30.8324 30.5509 33.097 27.8796 33.097C25.208 33.097 23.0348 30.8324 23.0348 28.0489ZM34.8774 15.4196C41.5715 19.4466 43.8649 28.3656 40.0002 35.3406C37.4077 40.0194 32.7035 42.6344 27.8664 42.6344C26.1761 42.6344 24.4703 42.3081 22.8317 41.6456L24.1959 39.1839C25.3755 39.6087 26.6165 39.8303 27.8664 39.8303C31.8991 39.8303 35.6557 37.5726 37.6694 33.9384C39.179 31.2138 39.5798 28.0393 38.7984 25.0005C38.017 21.9614 36.1466 19.4214 33.5317 17.8482C31.8129 16.8143 29.8629 16.2677 27.8924 16.2677C23.8597 16.2677 20.1033 18.5255 18.0898 22.1596C16.58 24.8842 16.179 28.0585 16.9604 31.0974C17.5529 33.4006 18.7729 35.4148 20.4662 36.9411L19.0994 39.4075C13.8087 34.9785 12.2603 27.0714 15.759 20.7573C18.3513 16.0785 23.0554 13.4634 27.8924 13.4634C30.2667 13.4634 32.6735 14.0938 34.8774 15.4196ZM72.5413 22.8145V39.2091C72.5413 40.8776 73.0244 42.1994 73.9911 43.175C74.9579 44.1511 76.3058 44.6386 78.0358 44.6386H83.967V39.7948H79.1549C78.1035 39.7948 77.578 39.2448 77.578 38.1444V22.8145H83.967V17.8646H77.578V10.0931H72.5413V17.8646H68.2418V22.8145H72.5413ZM94.7978 20.3663C95.3061 19.5502 95.9249 18.9289 96.6545 18.5033C97.3836 18.0771 98.3589 17.8647 99.58 17.8647H104.057V22.8147H100.038C98.3415 22.8147 97.0363 23.2941 96.1205 24.2521C95.2047 25.21 94.7469 26.5766 94.7469 28.3507V44.6386H89.7104V17.8647H94.0347L94.5434 20.3663H94.7978ZM125.869 33.5138C125.869 34.7204 125.581 35.8385 125.005 36.8672C124.427 37.897 123.639 38.7125 122.638 39.3155C121.638 39.9197 120.544 40.2205 119.357 40.2205C117.593 40.2205 116.118 39.5818 114.931 38.3044C113.743 37.0271 113.15 35.4297 113.15 33.5138V17.8647H108.114V33.9394C108.114 36.1403 108.546 38.0913 109.411 39.7948C110.276 41.4984 111.479 42.8207 113.023 43.7606C114.566 44.6999 116.321 45.1709 118.289 45.1709C119.95 45.1709 121.443 44.8424 122.766 44.1862C124.089 43.5301 125.106 42.7584 125.818 41.8709H126.073L126.582 44.6386H130.906V17.8647H125.869V33.5138ZM148.275 17.3316C150.546 17.3316 152.607 17.8997 154.455 19.0351C156.304 20.1712 157.762 21.7323 158.831 23.7189C159.899 25.7067 160.434 27.9425 160.434 30.426C160.434 31.6683 160.349 32.6084 160.179 33.2471H140.643C140.88 35.4117 141.712 37.1775 143.135 38.5432C144.561 39.9097 146.273 40.5928 148.275 40.5928C149.699 40.5928 150.953 40.256 152.04 39.5812C153.124 38.9075 153.938 38.0377 154.481 36.9728H159.721C158.94 39.3512 157.567 41.3109 155.601 42.855C153.634 44.3986 151.191 45.1703 148.275 45.1703C145.9 45.1703 143.746 44.5767 141.813 43.387C139.88 42.1989 138.361 40.5484 137.26 38.4368C136.157 36.3259 135.606 33.9213 135.606 31.2241C135.606 28.5625 136.157 26.1766 137.26 24.0651C138.361 21.9541 139.88 20.3043 141.813 19.1146C143.746 17.9265 145.9 17.3316 148.275 17.3316ZM143.135 23.932C141.745 25.3161 140.914 27.0723 140.643 29.2013H155.448C155.278 27.0723 154.532 25.3161 153.209 23.932C151.887 22.5478 150.241 21.8561 148.275 21.8561C146.24 21.8561 144.525 22.5478 143.135 23.932ZM184.162 19.0883C182.363 17.9172 180.363 17.3316 178.158 17.3316C174.834 17.3316 172.188 18.6446 170.222 21.2706H169.968L169.458 17.8641H165.133V55.2841H170.171V41.3909H170.424C171.307 42.5619 172.392 43.4849 173.682 44.1587C174.97 44.8323 176.462 45.1703 178.158 45.1703C180.363 45.1703 182.363 44.5848 184.162 43.4137C185.959 42.2427 187.375 40.5929 188.41 38.4633C189.444 36.3341 189.962 33.9213 189.962 31.2241C189.962 28.528 189.444 26.1236 188.41 24.0121C187.375 21.901 185.959 20.2595 184.162 19.0883ZM183.932 35.9617C183.271 37.3458 182.372 38.4101 181.237 39.1556C180.1 39.9006 178.871 40.2728 177.548 40.2728C176.224 40.2728 174.995 39.9006 173.86 39.1556C172.723 38.4101 171.825 37.3458 171.163 35.9617C170.501 34.5775 170.171 32.9993 170.171 31.2241C170.171 29.45 170.501 27.88 171.163 26.5135C171.825 25.148 172.723 24.0915 173.86 23.3465C174.995 22.601 176.224 22.2285 177.548 22.2285C178.871 22.2285 180.1 22.601 181.237 23.3465C182.372 24.0915 183.271 25.148 183.932 26.5135C184.594 27.88 184.925 29.45 184.925 31.2241C184.925 32.9993 184.594 34.5775 183.932 35.9617ZM219.45 40.273C221.146 40.273 222.57 39.83 223.724 38.9427C224.877 38.0558 225.673 36.8316 226.116 35.27H231.203C230.592 38.1802 229.253 40.558 227.184 42.4028C225.114 44.2481 222.536 45.1705 219.45 45.1705C217.076 45.1705 214.923 44.5769 212.99 43.3872C211.056 42.1991 209.537 40.5486 208.435 38.4369C207.334 36.326 206.782 33.9214 206.782 31.2243C206.782 28.5627 207.334 26.1768 208.435 24.0653C209.537 21.9542 211.056 20.3044 212.99 19.1147C214.923 17.9266 217.076 17.3317 219.45 17.3317C222.536 17.3317 225.114 18.2367 227.184 20.0464C229.253 21.8562 230.592 24.1809 231.203 27.0193H226.116C225.673 25.5289 224.877 24.3578 223.724 23.506C222.57 22.6548 221.146 22.2286 219.45 22.2286C218.06 22.2286 216.787 22.6012 215.634 23.3467C214.482 24.0916 213.565 25.1481 212.888 26.5136C212.209 27.8802 211.869 29.4501 211.869 31.2243C211.869 32.9995 212.209 34.5776 212.888 35.9619C213.565 37.346 214.482 38.4103 215.634 39.1558C216.787 39.9007 218.06 40.273 219.45 40.273ZM199.551 6.16971C198.448 6.16971 197.585 6.58236 196.963 7.4073C196.453 7.98575 196.199 8.71974 196.199 9.60975C196.199 9.67908 196.2 9.81783 196.204 9.88482C196.244 10.7778 196.555 11.5175 197.141 12.104C197.769 12.7355 198.572 13.0509 199.551 13.0509C200.505 13.0509 201.299 12.7355 201.927 12.104C202.555 11.4732 202.869 10.6595 202.869 9.66261C202.869 8.6436 202.555 7.80649 201.927 7.15173C201.299 6.49719 200.505 6.16971 199.551 6.16971ZM197.015 22.8147H192.933V17.8647H202.051V44.6385H197.015V22.8147Z" fill="black"/>
</g>
<defs>
<clipPath id="clip0_1460_7106">
<rect width="230.533" height="56" fill="white" transform="translate(0.966797)"/>
</clipPath>
</defs>
</svg>
