<svg width="231" height="100" viewBox="0 0 231 100" fill="none" xmlns="http://www.w3.org/2000/svg">
<path fill-rule="evenodd" clip-rule="evenodd" d="M15.175 28.1906C9.57147 31.5616 5.56321 37.0043 3.88864 43.5167C2.40124 49.3007 2.9177 55.3117 5.31744 60.6751L2.98207 62.0799C-2.99545 49.0039 1.58432 33.1282 13.8293 25.7618C18.0682 23.2117 22.6948 22 27.2615 22C31.2684 22 35.2261 22.9386 38.8344 24.7205L37.4741 27.1756C34.3192 25.6471 30.844 24.8044 27.2615 24.8044C23.0368 24.8044 18.8574 25.9754 15.175 28.1906ZM42.562 26.9679L41.204 29.4193C44.0463 31.498 46.4785 34.2057 48.2648 37.429C51.4999 43.2678 52.3594 50.0696 50.6845 56.5818C49.01 63.0941 45.002 68.5367 39.3984 71.9078C36.3363 73.7499 32.9294 74.8575 29.4397 75.1826V78C33.3044 77.6798 37.1627 76.4911 40.7442 74.3366C53.6174 66.5924 58.0281 49.4404 50.5957 36.0269C48.5283 32.2957 45.7552 29.2587 42.562 26.9679ZM7.47929 64.5556L5.13499 65.9659C9.85139 73.1083 17.2911 77.332 25.1332 77.9956V75.1789C18.0509 74.5087 11.5688 70.6087 7.47929 64.5556ZM47.5986 52.5358H44.8857C43.7158 61.5697 36.2721 68.559 27.2867 68.559C17.4917 68.559 9.52282 60.2557 9.52282 50.0494C9.52282 44.0158 12.3087 38.6487 16.6096 35.2674L15.2526 32.8181C10.15 36.694 6.83132 42.9664 6.83132 50.0494C6.83132 61.8209 15.9895 71.3634 27.2867 71.3634C37.7761 71.3634 46.4161 63.1349 47.5986 52.5358ZM27.2867 28.7352C37.936 28.7352 46.6809 37.2158 47.6491 48.0483H44.9448C43.9842 38.7801 36.4328 31.5398 27.2867 31.5398C24.821 31.5398 22.4716 32.0667 20.3356 33.0169L18.9808 30.5722C21.5197 29.3948 24.3285 28.7352 27.2867 28.7352ZM34.8228 50.0489C34.8228 45.7122 31.4489 42.1965 27.2868 42.1965C23.1246 42.1965 19.7505 45.7122 19.7505 50.0489C19.7505 54.3857 23.1246 57.9016 27.2868 57.9016C31.4489 57.9016 34.8228 54.3857 34.8228 50.0489ZM22.4419 50.0489C22.4419 47.2654 24.6152 45.001 27.2868 45.001C29.958 45.001 32.1314 47.2654 32.1314 50.0489C32.1314 52.8324 29.958 55.097 27.2868 55.097C24.6152 55.097 22.4419 52.8324 22.4419 50.0489ZM34.2846 37.4196C40.9787 41.4466 43.2721 50.3656 39.4074 57.3406C36.8149 62.0194 32.1106 64.6344 27.2735 64.6344C25.5833 64.6344 23.8775 64.3081 22.2388 63.6456L23.6031 61.1839C24.7826 61.6087 26.0237 61.8303 27.2735 61.8303C31.3063 61.8303 35.0629 59.5726 37.0766 55.9384C38.5862 53.2138 38.987 50.0393 38.2056 47.0005C37.4242 43.9614 35.5538 41.4214 32.9388 39.8482C31.22 38.8143 29.2701 38.2677 27.2995 38.2677C23.2669 38.2677 19.5105 40.5255 17.4969 44.1596C15.9871 46.8842 15.5862 50.0585 16.3676 53.0974C16.9601 55.4006 18.18 57.4148 19.8734 58.9411L18.5066 61.4075C13.2158 56.9785 11.6674 49.0714 15.1661 42.7573C17.7584 38.0785 22.4626 35.4634 27.2995 35.4634C29.6739 35.4634 32.0806 36.0938 34.2846 37.4196ZM71.9485 44.8145V61.2091C71.9485 62.8776 72.4316 64.1994 73.3983 65.175C74.3651 66.1511 75.713 66.6386 77.4429 66.6386H83.3742V61.7948H78.5621C77.5107 61.7948 76.9851 61.2448 76.9851 60.1444V44.8145H83.3742V39.8646H76.9851V32.0931H71.9485V39.8646H67.649V44.8145H71.9485ZM94.205 42.3663C94.7133 41.5502 95.3321 40.9289 96.0617 40.5033C96.7908 40.0771 97.7661 39.8647 98.9872 39.8647H103.464V44.8147H99.445C97.7487 44.8147 96.4434 45.2941 95.5277 46.2521C94.6119 47.21 94.1541 48.5766 94.1541 50.3507V66.6386H89.1175V39.8647H93.4418L93.9506 42.3663H94.205ZM125.276 55.5138C125.276 56.7204 124.988 57.8385 124.412 58.8672C123.835 59.897 123.046 60.7125 122.046 61.3155C121.045 61.9197 119.951 62.2205 118.764 62.2205C117 62.2205 115.525 61.5818 114.338 60.3044C113.151 59.0271 112.558 57.4297 112.558 55.5138V39.8647H107.521V55.9394C107.521 58.1403 107.953 60.0913 108.818 61.7948C109.683 63.4984 110.886 64.8207 112.43 65.7606C113.973 66.6999 115.728 67.1709 117.696 67.1709C119.357 67.1709 120.85 66.8424 122.173 66.1862C123.496 65.5301 124.513 64.7584 125.225 63.8709H125.48L125.989 66.6386H130.313V39.8647H125.276V55.5138ZM147.682 39.3316C149.953 39.3316 152.014 39.8997 153.862 41.0351C155.711 42.1712 157.169 43.7323 158.238 45.7189C159.306 47.7067 159.841 49.9425 159.841 52.426C159.841 53.6683 159.756 54.6084 159.586 55.2471H140.05C140.287 57.4117 141.119 59.1775 142.542 60.5432C143.968 61.9097 145.681 62.5928 147.682 62.5928C149.106 62.5928 150.361 62.256 151.447 61.5812C152.532 60.9075 153.345 60.0377 153.888 58.9728H159.128C158.347 61.3512 156.974 63.3109 155.008 64.855C153.041 66.3986 150.598 67.1703 147.682 67.1703C145.307 67.1703 143.153 66.5767 141.22 65.387C139.287 64.1989 137.769 62.5484 136.667 60.4368C135.564 58.3259 135.013 55.9213 135.013 53.2241C135.013 50.5625 135.564 48.1766 136.667 46.0651C137.769 43.9541 139.287 42.3043 141.22 41.1146C143.153 39.9265 145.307 39.3316 147.682 39.3316ZM142.542 45.932C141.152 47.3161 140.321 49.0723 140.05 51.2013H154.855C154.686 49.0723 153.939 47.3161 152.616 45.932C151.294 44.5478 149.648 43.8561 147.682 43.8561C145.647 43.8561 143.933 44.5478 142.542 45.932ZM183.569 41.0883C181.77 39.9172 179.77 39.3316 177.565 39.3316C174.241 39.3316 171.595 40.6446 169.629 43.2706H169.375L168.866 39.8641H164.541V77.2841H169.578V63.3909H169.832C170.714 64.5619 171.799 65.4849 173.089 66.1587C174.377 66.8323 175.869 67.1703 177.565 67.1703C179.77 67.1703 181.77 66.5848 183.569 65.4137C185.366 64.2427 186.782 62.5929 187.817 60.4633C188.851 58.3341 189.369 55.9213 189.369 53.2241C189.369 50.528 188.851 48.1236 187.817 46.0121C186.782 43.901 185.366 42.2595 183.569 41.0883ZM183.34 57.9617C182.678 59.3458 181.78 60.4101 180.644 61.1556C179.507 61.9006 178.278 62.2728 176.955 62.2728C175.632 62.2728 174.403 61.9006 173.267 61.1556C172.13 60.4101 171.232 59.3458 170.57 57.9617C169.908 56.5775 169.578 54.9993 169.578 53.2241C169.578 51.45 169.908 49.88 170.57 48.5135C171.232 47.148 172.13 46.0915 173.267 45.3465C174.403 44.601 175.632 44.2285 176.955 44.2285C178.278 44.2285 179.507 44.601 180.644 45.3465C181.78 46.0915 182.678 47.148 183.34 48.5135C184.002 49.88 184.332 51.45 184.332 53.2241C184.332 54.9993 184.002 56.5775 183.34 57.9617ZM218.857 62.273C220.553 62.273 221.977 61.83 223.131 60.9427C224.284 60.0558 225.08 58.8316 225.523 57.27H230.61C229.999 60.1802 228.66 62.558 226.591 64.4028C224.522 66.2481 221.943 67.1705 218.857 67.1705C216.483 67.1705 214.33 66.5769 212.397 65.3872C210.463 64.1991 208.944 62.5486 207.843 60.4369C206.741 58.326 206.189 55.9214 206.189 53.2243C206.189 50.5627 206.741 48.1768 207.843 46.0653C208.944 43.9542 210.463 42.3044 212.397 41.1147C214.33 39.9266 216.483 39.3317 218.857 39.3317C221.943 39.3317 224.522 40.2367 226.591 42.0464C228.66 43.8562 229.999 46.1809 230.61 49.0193H225.523C225.08 47.5289 224.284 46.3578 223.131 45.506C221.977 44.6548 220.553 44.2286 218.857 44.2286C217.467 44.2286 216.194 44.6012 215.041 45.3467C213.889 46.0916 212.972 47.1481 212.295 48.5136C211.616 49.8802 211.277 51.4501 211.277 53.2243C211.277 54.9995 211.616 56.5776 212.295 57.9619C212.972 59.346 213.889 60.4103 215.041 61.1558C216.194 61.9007 217.467 62.273 218.857 62.273ZM198.958 28.1697C197.855 28.1697 196.992 28.5824 196.37 29.4073C195.861 29.9857 195.606 30.7197 195.606 31.6097C195.606 31.6791 195.607 31.8178 195.612 31.8848C195.651 32.7778 195.962 33.5175 196.548 34.104C197.176 34.7355 197.979 35.0509 198.958 35.0509C199.913 35.0509 200.706 34.7355 201.334 34.104C201.962 33.4732 202.276 32.6595 202.276 31.6626C202.276 30.6436 201.962 29.8065 201.334 29.1517C200.706 28.4972 199.913 28.1697 198.958 28.1697ZM196.422 44.8147H192.34V39.8647H201.458V66.6385H196.422V44.8147Z" fill="black"/>
</svg>
